<?xml version="1.0" encoding="UTF-8"?><svg id="svg3191" xmlns="http://www.w3.org/2000/svg" viewBox="0 0 437.29 441.6"><defs><style>.cls-1{stroke-miterlimit:4;stroke-width:1px;}.cls-1,.cls-2,.cls-3,.cls-4,.cls-5{fill:none;stroke:#00bec2;stroke-linecap:round;}.cls-1,.cls-2,.cls-4,.cls-5{isolation:isolate;opacity:.99;}.cls-2{stroke-miterlimit:4;stroke-width:1px;}.cls-4{stroke-miterlimit:4;stroke-width:1px;}</style></defs><g id="g5553"><path id="path3055" class="cls-3" d="M342.86,240.3s-.11.72-.16,1.09c-.09.64-.2,1.28-.28,1.92-.1.79-.21,1.59-.24,2.38-.01.42.03.84.04,1.25.02.74,0,1.48.04,2.22.06,1.08.21,2.15.32,3.22.08.73.15,1.45.24,2.17.11.94.25,1.87.36,2.8.13,1.04.29,2.09.36,3.14.07,1.06.04,2.12.08,3.18.05,1.35.1,2.71.2,4.06.04.53.1,1.06.16,1.59.06.61.17,1.22.2,1.84.03.59-.02,1.17-.04,1.76-.02.56-.07,1.11-.08,1.67-.01,1.09.08,3.05.08,3.26s.05.78.08,1.17c.07.96.14,1.92.2,2.89.05.75.07,1.51.12,2.26.06.84.17,1.67.2,2.51.03.82-.01,1.65-.04,2.47-.03.88-.07,1.76-.12,2.63-.06,1.13-.14,2.26-.2,3.39-.05.96-.08,1.92-.12,2.89-.04.82-.1,1.64-.12,2.47-.02.67.01,1.34,0,2.01-.01.89-.05,1.78-.08,2.68-.02.72-.07,1.45-.08,2.17-.01.6,0,1.2,0,1.8,0,.66.01,1.31.04,1.97.02.46.03.92.08,1.38.07.61.2,1.2.32,1.8.12.63.26,1.26.4,1.88.15.64.29,1.29.48,1.92.19.64.42,1.26.64,1.88.24.67.5,1.33.72,2.01.25.77.45,1.56.68,2.34.24.8.52,1.58.72,2.38.16.65.29,1.31.4,1.97.13.74.18,1.48.32,2.22.1.52.28,1.02.36,1.55.1.59.12,1.2.16,1.8.04.58.06,1.17.08,1.76.02.77.07,1.53.04,2.3-.03.76-.12,1.51-.2,2.26-.09.92-.2,1.84-.32,2.76-.16,1.2-.34,2.4-.52,3.6-.16,1.05-.33,2.09-.48,3.14-.17,1.17-.33,2.34-.48,3.51-.12.91-.21,1.81-.32,2.72-.1.82-.25,1.64-.32,2.47-.08.92-.11,1.84-.12,2.76,0,.91.02,1.81.08,2.72.06.9.19,1.78.28,2.68.11,1.1.14,2.21.32,3.3.11.65.31,1.28.44,1.92.17.89.3,1.78.44,2.68.12.75.23,1.51.36,2.26.11.68.26,1.36.36,2.05.11.72.19,1.45.28,2.17.09.74.15,1.48.24,2.22.1.82.23,1.64.32,2.47.09.83.13,1.67.2,2.51.08.99.16,1.98.24,2.97.08,1.03.18,2.06.24,3.09.04.78.05,1.56.08,2.34.03.77.07,1.53.08,2.3.02,1.12.02,2.23,0,3.35-.01.92-.08,1.84-.08,2.76,0,.93.06,1.87.08,2.8.02.85.02,1.7.04,2.55.02.63.08,1.88.08,1.88"/><path id="path3825" class="cls-3" d="M350.68,410.68s-.52,1.25-.76,1.88c-.27.71-.48,1.43-.76,2.13-.18.45-.43.88-.6,1.34-.13.33-.28.65-.32,1-.03.31.03.62.08.92.06.34.16.68.28,1,.12.33.34.62.44.96.07.24.1.5.12.75.03.35-.03.7,0,1.05.03.34.08.68.16,1,.12.47.36.91.48,1.38.08.3.13.61.16.92.02.26,0,.79,0,.79"/><path id="path3827" class="cls-3" d="M350.68,421.14s-.02,1.85-.16,2.76c-.12.78-.46,1.52-.6,2.3-.14.76-.17,1.53-.24,2.3-.07.77-.18,1.53-.2,2.3-.02.66.13,1.31.08,1.97-.03.44-.11.88-.24,1.3-.13.4-.43.72-.52,1.13-.06.29,0,.59,0,.88,0,.25,0,.5,0,.75,0,.33-.08.67-.04,1,.03.29.13.57.24.84.15.34.32.69.56.96.21.24.49.42.76.59.37.22.75.43,1.16.54.34.09.7.04,1.04.08.44.06.88.22,1.32.25.48.04.96-.03,1.44-.04.57,0,1.15.02,1.72,0,.76-.03,1.53-.04,2.29-.17.63-.11,1.24-.29,1.84-.5.49-.17.98-.38,1.44-.63.38-.2.75-.44,1.08-.71.28-.22.56-.46.76-.75.18-.26.28-.58.4-.88.09-.25.24-.75.24-.75"/><path id="path3829" class="cls-3" d="M364.67,437.62s.4-.21.6-.29c.63-.27,1.27-.53,1.92-.71.83-.23,1.7-.28,2.53-.5.57-.16,1.11-.42,1.68-.59.7-.2,1.41-.34,2.12-.46.54-.09,1.1-.09,1.64-.21.53-.12,1.06-.29,1.56-.5.32-.13.67-.22.92-.46.22-.21.29-.53.44-.79.16-.27.29-.55.48-.79.11-.14.26-.23.36-.38.13-.2.28-.67.28-.67"/><path id="path3831" class="cls-3" d="M378.94,432.01s.43-.25.6-.42c.19-.19.36-.42.48-.67.11-.22.16-.47.2-.71.05-.3.08-.62.04-.92-.05-.37-.15-.74-.36-1.05-.19-.27-.52-.4-.76-.63-.11-.1-.19-.26-.32-.33-.24-.13-.53-.15-.8-.17-.24-.02-.48.02-.72.04-.2.02-.4.08-.6.08-.19,0-.38-.03-.56-.08-.21-.06-.6-.25-.6-.25"/><path id="path3833" class="cls-3" d="M377.94,427.08s-.31-.38-.52-.46c-.2-.08-.43,0-.64,0h-.84c-.24,0-.49.05-.72,0-.25-.06-.46-.22-.68-.33-.27-.14-.51-.35-.8-.42-.23-.06-.48,0-.72,0-.17,0-.35.04-.52,0-.22-.05-.4-.2-.6-.29-.32-.15-.64-.3-.96-.46-.13-.07-.26-.16-.4-.21-.21-.07-.43-.06-.64-.08-.11-.01-.32-.04-.32-.04"/><path id="path3835" class="cls-3" d="M369.96,425.36s-.44-.63-.68-.92c-.28-.34-.57-.66-.88-.96-.3-.29-.61-.58-.96-.79-.22-.13-.49-.18-.72-.29-.26-.12-.5-.31-.76-.42-.13-.06-.4-.13-.4-.13"/><path id="path3837" class="cls-3" d="M367.44,425.74s-.43-.98-.64-1.46c-.21-.49-.39-1-.64-1.46-.22-.41-.49-.79-.76-1.17-.22-.3-.68-.88-.68-.88"/><path id="path3839" class="cls-3" d="M364.71,426.49s.17-1.25.2-1.88c.04-.71.05-1.42,0-2.13-.05-.76-.25-1.5-.32-2.26-.05-.53-.03-1.06-.08-1.59-.05-.57-.18-1.14-.24-1.71-.06-.56-.09-1.11-.12-1.67-.04-.78-.09-1.56-.08-2.34,0-.56.03-1.12.08-1.67.07-.81.16-1.62.28-2.43.13-.83.31-1.65.48-2.47.22-1.05.45-2.09.68-3.14.19-.87.35-1.74.6-2.59.2-.66.47-1.29.72-1.92.37-.93.8-1.83,1.16-2.76.3-.79.58-1.58.84-2.38.28-.86.51-1.73.76-2.59.29-1,.56-2.02.88-3.01.29-.9.61-1.79.92-2.68.21-.6.48-1.18.64-1.8.18-.67.26-1.36.36-2.05.13-.9.2-1.81.32-2.72.15-1.15.37-2.28.52-3.43.15-1.14.26-2.29.4-3.43.17-1.38.38-2.76.56-4.14.17-1.3.35-2.59.52-3.89.15-1.13.33-2.25.44-3.39.11-1.08.17-2.17.24-3.26.09-1.24.18-2.48.24-3.72.07-1.45.13-2.9.12-4.35,0-1.38-.06-2.76-.16-4.14-.1-1.34-.3-2.68-.44-4.02-.15-1.37-.28-2.73-.44-4.1-.16-1.35-.39-2.7-.52-4.06-.12-1.25-.14-2.51-.24-3.76-.07-.85-.15-1.7-.24-2.55-.06-.6-.12-1.2-.2-1.8-.09-.73-.26-1.44-.32-2.17-.09-1.1-.08-2.2-.04-3.3.05-1.18.26-2.34.32-3.51.06-1.1.03-2.2.04-3.3.01-.95.03-1.9.04-2.84,0-1.2-.03-2.4,0-3.6.02-.85.07-1.7.12-2.55.05-.89.08-1.79.2-2.68.11-.83.36-1.64.48-2.47.21-1.4.27-2.82.44-4.22.15-1.23.34-2.45.52-3.68.22-1.47.41-2.94.68-4.39.16-.84.38-1.67.56-2.51.24-1.13.44-2.26.68-3.39.34-1.54.75-3.06,1.08-4.6.34-1.58.61-3.18.92-4.77.39-1.97.73-3.95,1.2-5.9.26-1.07.61-2.11.88-3.18.47-1.88.81-3.8,1.28-5.69.44-1.74,1.01-3.44,1.44-5.19.39-1.58.75-3.17,1.04-4.77.31-1.66.58-3.34.76-5.02.15-1.33.27-2.67.28-4.02,0-.99-.09-1.98-.16-2.97-.11-1.59-.28-3.18-.4-4.77-.12-1.5-.21-3.01-.32-4.52-.09-1.16-.16-2.32-.28-3.47-.11-.98-.27-1.95-.4-2.93-.18-1.35-.33-2.71-.52-4.06-.21-1.52-.5-3.03-.68-4.56-.15-1.24-.22-2.48-.32-3.72-.08-1.03-.18-2.06-.24-3.09-.05-.89-.03-1.79-.08-2.68-.06-1.09-.14-2.18-.24-3.26-.08-.81-.12-1.63-.28-2.43-.19-.9-.52-1.76-.8-2.63-.24-.77-.5-1.54-.76-2.3-.31-.9-.63-1.79-.96-2.68-.27-.72-.57-1.42-.84-2.13-.27-.71-.58-1.4-.8-2.13-.19-.63-.27-1.29-.44-1.92-.18-.66-.4-1.31-.6-1.97-.28-.91-.55-1.82-.84-2.72-.25-.77-.51-1.54-.8-2.3-.36-.93-.74-1.86-1.16-2.76-.4-.86-.86-1.68-1.32-2.51-.32-.58-.68-1.14-1-1.71-.37-.65-.79-1.27-1.08-1.97-.29-.7-.45-1.44-.64-2.17-.17-.66-.34-1.33-.44-2.01-.08-.57-.11-1.14-.12-1.71-.01-.73.02-1.45.08-2.17.08-.94.21-1.87.36-2.8.13-.81.28-1.63.48-2.43.22-.85.53-1.67.8-2.51.28-.88.54-1.76.84-2.63.19-.55.38-1.1.6-1.63.1-.24.32-.71.32-.71"/><path id="path3841" class="cls-3" d="M374.61,98.68s-.03.98-.04,1.46c-.02.63-.05,1.25-.04,1.88.01.6.12,1.2.12,1.8,0,.8-.07,1.59-.16,2.38-.12,1.01-.31,2.01-.52,3.01-.19.93-.47,1.84-.68,2.76-.23,1.01-.44,2.03-.64,3.05-.17.88-.34,1.75-.48,2.63-.15.9-.31,1.81-.4,2.72-.07.64-.1,1.28-.12,1.92-.03.88-.05,1.76-.04,2.63,0,.88.03,1.76.08,2.63.06,1.05.22,2.09.28,3.14.05.93.04,1.87.08,2.8.1,2.12.12,4.25.4,6.36.06.47.19.92.28,1.38.15.72.53,1.44.44,2.17,0,.06-.07.11-.08.17-.1.76.29,1.5.4,2.26.15,1,.22,2.01.36,3.01.1.73.26,1.45.36,2.17.08.6.12,1.2.2,1.8.09.63.22,1.25.32,1.88.1.64.14,1.29.28,1.92.07.31.22.6.28.92.04.23-.05.49.04.71.03.07.1.12.16.17.06.05.17.05.2.13.06.13-.08.28-.08.42,0,.11,0,.23.04.33.07.16.18.32.32.42.09.06.25,0,.32.08.07.1,0,.25,0,.38,0,.14,0,.28.04.42.04.15.11.29.2.42.02.03.07.05.08.08.07.17,0,.36,0,.54,0,.15-.01.32.04.46.02.07.09.11.12.17.12.22.19.47.28.71.25.63.5,1.26.76,1.88.47,1.13.99,2.25,1.44,3.39.45,1.12.82,2.27,1.28,3.39.5,1.2,1.09,2.36,1.6,3.55.39.91.75,1.84,1.12,2.76s.73,1.85,1.12,2.76c.46,1.1.98,2.17,1.44,3.26.46,1.07.87,2.15,1.32,3.22.41.97.83,1.94,1.28,2.89.87,1.83,1.81,3.62,2.77,5.4.58,1.09,1.22,2.14,1.8,3.22.57,1.05,1.13,2.12,1.68,3.18.72,1.38,1.47,2.73,2.12,4.14.6,1.29,1.06,2.64,1.64,3.93.45.99.98,1.94,1.44,2.93.7,1.48,1.33,3,2.04,4.48.24.49.5.98.76,1.46.17.32.37.63.52.96.1.22.16.45.24.67.09.24.18.48.28.71.15.37.33.72.48,1.09.1.26.23.52.28.79.07.41,0,.84,0,1.25,0,.61-.05,1.23,0,1.84.04.48.14.95.24,1.42.12.58.3,1.14.44,1.71.14.54.3,1.08.4,1.63.09.48.11.98.2,1.46.1.54.23,1.07.4,1.59.16.49.4.94.56,1.42.13.4.23.8.32,1.21.09.41.19.83.24,1.25.06.53.07,1.06.08,1.59,0,.64-.03,1.28-.04,1.92-.01.59-.05,1.17-.04,1.76,0,.43.06.86.08,1.3.02.46.03.92.04,1.38,0,.36,0,.72,0,1.09,0,.4-.06.81-.04,1.21.02.35.11.7.16,1.05.06.42.22,1.42.22,1.42"/><path id="path3843" class="cls-3" d="M408.17,249.58c-.1.06-.2.14-.26.24-.06.1-.08.23-.1.34-.03.21,0,.42,0,.63.01.29-.1.64.06.88.07.1.2.13.32.15.11.01.23-.03.34-.06.19-.05.43-.04.56-.19.12-.13.11-.34.12-.52.01-.24-.03-.48-.08-.71-.04-.17-.07-.35-.16-.5-.05-.09-.13-.17-.22-.23-.08-.05-.17-.1-.26-.1-.11,0-.22.03-.32.08h0Z"/><path id="path3845" class="cls-3" d="M408.13,251.8s.22.23.36.29c.27.11.61.2.88.08.25-.11.35-.44.52-.67.15-.19.36-.35.44-.59.12-.34.05-.72.04-1.09,0-.35-.06-.7-.08-1.05-.02-.32-.01-.64-.04-.96-.04-.43-.16-.86-.16-1.3,0-.39.09-.78.16-1.17.07-.39.16-.78.24-1.17.08-.38.17-.75.24-1.13.06-.31.13-.61.16-.92.02-.18-.02-.36,0-.54.03-.24.02-.51.16-.71.12-.17.33-.25.52-.33.14-.06.3-.17.44-.13.18.06.27.28.36.46.11.22.14.47.2.71.09.39.18.78.24,1.17.07.42.09.84.16,1.25.07.41.18.81.28,1.21.11.42.24.84.36,1.25.13.46.23.93.4,1.38.18.48.46.9.64,1.38.25.65.36,1.35.6,2.01.2.54.48,1.05.68,1.59.2.55.34,1.12.52,1.67.12.36.21.74.36,1.09.1.22.23.42.36.63.07.12.24.33.24.33"/><path id="path3847" class="cls-3" d="M417.51,256.61c.14.14.37.16.56.17.23,0,.47-.07.68-.17.16-.07.33-.15.44-.29.07-.08.1-.19.12-.29.05-.2.08-.42.04-.63-.04-.18-.16-.34-.24-.5-.1-.21-.15-.34-.32-.5-.1-.09-.24-.24-.36-.29-.15-.06-.29-.14-.44-.17-.13-.02-.27-.02-.4,0-.13.02-.26.05-.36.13-.08.06-.13.16-.16.25-.07.2-.09.42-.08.63.01.22.1.42.16.63.11.35.1.79.36,1.05h0Z"/><path id="path3849" class="cls-3" d="M417.59,256.65s.29.29.48.33c.24.06.49,0,.72-.08.29-.1.59-.23.8-.46.18-.19.31-.45.36-.71.04-.18,0-.36-.04-.54-.05-.29-.16-.56-.24-.84-.14-.48-.28-.95-.44-1.42-.2-.59-.45-1.16-.64-1.76-.22-.68-.42-1.36-.6-2.05-.17-.64-.24-1.3-.44-1.92-.1-.32-.1-.55-.16-.88-.07-.36-.16-.77-.2-1.13-.04-.37-.21-.72-.28-1.09-.06-.29-.08-.59-.12-.88-.03-.2-.06-.39-.08-.59-.02-.18-.08-.37-.04-.54.02-.11.06-.26.16-.29.11-.04.24.08.32.17.2.21.24.53.36.79.27.58.59,1.13.84,1.71.24.57.41,1.18.64,1.76.12.31.31.6.4.92.07.23.04.49.12.71.07.2.23.35.32.54.08.17.13.36.2.54.18.44.39.86.56,1.3.22.58.42,1.17.6,1.76.15.47.26.95.4,1.42.12.39.26.78.36,1.17.13.48.24.97.32,1.46.05.32.05.65.12.96.07.3.28.88.28.88"/><path id="path3851" class="cls-3" d="M422.72,256.69c-.07.27-.03.56-.04.84,0,.21-.04.42,0,.63.04.22.09.46.24.63.12.14.31.21.48.25.21.04.44.02.64-.04.24-.07.49-.18.64-.38.09-.11.1-.27.12-.42.02-.22-.01-.45-.04-.67-.02-.15-.02-.32-.08-.46-.07-.17-.21-.31-.32-.46-.13-.16-.24-.33-.4-.46-.05-.04-.11-.06-.16-.08-.09-.04-.18-.12-.28-.13-.13,0-.25.06-.36.13-.11.07-.2.18-.28.29-.07.1-.13.21-.16.33h0Z"/><path id="path3853" class="cls-3" d="M423.36,259.07s.67.11,1,.04c.32-.06.64-.19.88-.42.16-.15.24-.38.32-.59.1-.27.18-.55.2-.84.03-.41-.08-.81-.12-1.21-.03-.31-.04-.61-.08-.92-.07-.53-.19-1.06-.28-1.59-.07-.36-.13-.73-.2-1.09-.08-.4-.16-.81-.24-1.21-.11-.57-.19-1.15-.32-1.71-.17-.71-.44-1.38-.6-2.09-.12-.54-.15-1.1-.28-1.63-.09-.38-.2-.77-.36-1.13-.17-.4-.45-.74-.64-1.13-.14-.3-.22-.62-.36-.92-.16-.34-.37-.66-.52-1-.08-.18-.18-.35-.2-.54-.01-.14-.02-.32.08-.42.06-.06.16-.03.24-.04.09,0,.19-.04.28,0,.07.03.12.1.16.17.15.24.2.54.32.79.17.36.39.69.56,1.05.14.29.28.58.4.88.16.4.26.81.4,1.21.11.32.23.65.36.96.15.34.33.67.48,1,.21.46.42.91.6,1.38.22.58.42,1.16.6,1.76.13.44.27.89.36,1.34.09.44.1.9.2,1.34.07.3.18.59.28.88.11.32.36.96.36.96"/><path id="path3855" class="cls-3" d="M427.25,253.47c-.09.23,0,.5,0,.75,0,.18.06.33.12.5.07.21.15.42.28.59.11.14.2.31.36.38.2.09.44.08.65.01.26-.08.51-.25.68-.47.1-.13.14-.3.16-.46.02-.17,0-.34-.04-.5-.03-.19-.08-.37-.16-.54-.09-.21-.23-.4-.36-.59-.07-.1-.15-.2-.24-.29-.06-.06-.2-.02-.28-.04-.13-.03-.19-.09-.32-.04-.16.06-.31.14-.44.25-.16.13-.33.27-.4.46h0Z"/><path id="path3857" class="cls-3" d="M429.42,255.14s.43-.16.56-.33c.16-.22.15-.53.2-.79.06-.36.13-.72.12-1.09-.01-.4-.13-.78-.2-1.17-.08-.46-.13-.93-.24-1.38-.08-.34-.21-.67-.32-1-.05-.17-.12-.33-.16-.5-.08-.37-.1-.75-.16-1.13-.06-.42-.13-.84-.2-1.25-.07-.42-.14-.84-.24-1.25-.13-.54-.3-1.07-.48-1.59-.2-.58-.43-1.14-.64-1.71-.19-.5-.35-1.01-.56-1.51-.21-.5-.49-.96-.68-1.46-.13-.35-.22-.72-.32-1.09-.16-.62-.26-1.26-.44-1.88-.13-.44-.34-.85-.44-1.3-.06-.26-.06-.53-.08-.79-.03-.38,0-.76-.04-1.13-.06-.5-.22-.97-.32-1.46-.1-.47-.18-.95-.28-1.42-.05-.22-.16-.44-.16-.67,0-.2.08-.4.16-.59.06-.14.14-.27.24-.38.09-.1.2-.2.32-.25.17-.08.37-.06.56-.08.12-.02.24-.06.36-.04.2.02.38.13.56.21.24.11.46.24.68.38.28.18.54.39.8.59.28.21.55.43.84.63.25.17.51.31.76.46.39.24.76.51,1.16.71.3.15.61.26.92.38.29.11.58.23.88.29.34.07.69.09,1.04.08.46,0,.92-.04,1.36-.17.31-.09.6-.25.88-.42.2-.12.38-.27.56-.42.15-.13.56-.71.56-.71"/><path id="path3859" class="cls-3" d="M434.31,227.58c-.18.08-.26.29-.36.46-.14.22-.3.45-.36.71-.03.14-.04.29,0,.42.03.08.09.15.16.21.09.08.22.11.32.17.25.14.47.33.72.46.26.13.52.24.8.29.28.06.57.12.84.04.16-.05.27-.19.4-.29.12-.09.29-.36.36-.5.11-.21.08-.26.08-.5,0-.15.05-.34-.04-.46-.03-.03-.14-.11-.18-.13-.11-.06-.15-.06-.26-.13-.21-.12-.42-.25-.64-.33-.23-.09-.48-.14-.72-.21-.23-.06-.45-.13-.68-.17-.15-.02-.3-.1-.44-.04Z"/><path id="path3861" class="cls-3" d="M434.53,227.65s-.91-.46-1.36-.71c-.23-.13-.45-.28-.68-.41-.55-.33-1.14-.6-1.64-1.01-.49-.39-.9-.88-1.3-1.36-.51-.62-.94-1.3-1.42-1.95-.26-.36-.5-.73-.79-1.06-.26-.3-.53-.6-.85-.83-.36-.26-.79-.4-1.19-.59-.71-.34-1.43-.69-2.15-1.01-.73-.32-1.5-.53-2.21-.89-.71-.36-1.39-.78-2.04-1.24-.28-.2-.51-.46-.79-.65-.27-.18-.58-.29-.85-.47-.34-.23-.69-.46-.96-.77-.3-.33-.46-.77-.74-1.12-.38-.49-.85-.89-1.25-1.36-.26-.3-.55-.59-.74-.95-.31-.6-.32-1.32-.57-1.95-.2-.51-.5-.98-.74-1.48-.35-.71-.68-1.42-1.02-2.13-.55-1.14-1.12-2.28-1.64-3.43-.53-1.17-1.05-2.35-1.53-3.55-.33-.82-.63-1.65-.91-2.48-.27-.82-.46-1.67-.74-2.48-.25-.74-.6-1.45-.85-2.19-.52-1.52-.93-3.07-1.36-4.61-.44-1.57-.87-3.14-1.25-4.73-.31-1.31-.57-2.64-.85-3.96-.31-1.44-.59-2.88-.91-4.32-.25-1.15-.48-2.3-.79-3.43-.41-1.46-.97-2.87-1.42-4.32-.22-.72-.35-1.48-.62-2.19-.4-1.05-.99-2.01-1.47-3.02-.44-.91-.87-1.82-1.3-2.72-.41-.85-.94-1.65-1.25-2.54-.27-.78-.33-1.62-.51-2.42-.22-1.01-.48-2.01-.68-3.02-.15-.76-.4-1.95-.4-2.31s-.19-1.57-.23-2.37c-.06-1.36.07-2.72.06-4.08-.01-1.12-.03-2.25-.11-3.37-.06-.79-.2-1.58-.28-2.37-.14-1.28-.25-2.57-.4-3.84-.15-1.28-.35-2.56-.51-3.84-.16-1.3-.29-2.6-.45-3.9-.21-1.72-.46-3.43-.68-5.15-.12-.95-.26-1.89-.34-2.84-.11-1.38-.17-2.76-.17-4.14,0-2.11.14-4.22.23-6.33.07-1.72.25-3.43.23-5.15-.02-1.01-.16-2.01-.23-3.02-.09-1.32-.1-2.65-.23-3.96-.11-1.11-.33-2.2-.45-3.31-.15-1.36-.19-2.72-.34-4.08-.11-.97-.21-1.94-.4-2.9-.12-.58-.26-1.16-.45-1.72-.2-.57-.45-1.13-.74-1.66-.28-.52-.64-.99-.96-1.48-.43-.65-.83-1.33-1.3-1.95-.35-.46-.7-.93-1.13-1.3-.84-.72-1.85-1.19-2.78-1.77-.6-.38-1.2-.77-1.81-1.12-.52-.3-1.02-.64-1.59-.83-.78-.26-1.63-.24-2.44-.41-.69-.15-1.37-.32-2.04-.53-1.04-.32-2.05-.72-3.06-1.12-1.13-.46-2.25-.95-3.35-1.48-1.21-.59-2.36-1.31-3.57-1.89-1.67-.81-4.71-2.13-5.1-2.25-.4-.12-2.35-1.05-3.46-1.72-.52-.31-1.13-.89-1.47-1.06s-1.03-.55-1.25-1.06c-.19-.43.06-1.42.06-1.42"/><path id="path3863" class="cls-3" d="M371.82,70.91s1.01.51,1.53.71c.66.25,1.35.45,2.04.59.49.1,1.47.18,1.47.18"/><path id="path3865" class="cls-3" d="M383.67,155.6s.97,1.35,1.36,2.09c.51.96.92,1.98,1.28,3.01.22.63.56,1.92.56,1.92"/><path id="path3867" class="cls-3" d="M378.06,163.63s.94,1.71,1.36,2.59c.49,1.01,1.36,3.09,1.36,3.09"/><path id="path3869" class="cls-3" d="M348.88,110.27s-1.47-2.82-1.92-4.35c-.52-1.76-.66-3.61-.88-5.44-.27-2.22-.52-4.45-.56-6.69-.04-2.26.04-4.53.32-6.78.21-1.7,1.04-5.02,1.04-5.02"/><path id="path3871" class="cls-3" d="M339.73,208.39s.28.83.4,1.25c.15.5.33.99.4,1.51.09.72.01,1.45,0,2.17-.03,1.56-.06,3.12-.16,4.68-.09,1.51-.3,3.01-.4,4.52-.11,1.62-.12,3.24-.24,4.85-.12,1.68-.25,3.36-.48,5.02-.14,1.01-.22,2.05-.56,3.01-.23.63-.6,1.2-.96,1.76-.41.64-.8,1.34-1.36,1.84-.56.49-1.25.8-1.92,1.09-.72.31-1.49.46-2.25.67-.64.18-1.29.3-1.92.5-.6.19-1.17.46-1.76.67-.85.3-1.69.66-2.57.84-1,.2-2.03.24-3.05.25-1.45.02-2.9-.02-4.33-.25-1.56-.26-3.06-.79-4.57-1.25-1.16-.36-2.31-.74-3.45-1.17-.92-.35-1.83-.76-2.73-1.17-.97-.45-1.89-1.02-2.89-1.42-.78-.31-1.61-.47-2.41-.75-.65-.23-1.92-.75-1.92-.75"/><path id="path3873" class="cls-3" d="M339.17,232.89s.04,1.42.24,2.09c.22.75.65,1.42,1.04,2.09.48.82,1.02,1.6,1.6,2.34.35.44.69.91,1.12,1.25.77.61,1.68,1.02,2.57,1.42.78.35,1.61.55,2.41.84.59.21,1.17.47,1.76.67,1.08.36,2.17.69,3.29.92.87.18,1.76.33,2.65.33.94,0,1.87-.23,2.81-.33.99-.11,1.99-.13,2.97-.33.82-.17,1.6-.51,2.41-.75.77-.23,1.56-.41,2.33-.67.79-.27,1.55-.62,2.33-.92.93-.37,1.85-.8,2.81-1.09.79-.23,2.41-.5,2.41-.5"/><path id="path3875" class="cls-3" d="M326.35,63.13c2.68-.56,9.49-1.56,12.18-2.05,2.57-.46,5.15-.91,7.7-1.51,1.43-.34,2.8-.95,4.25-1.17.9-.14,1.87.24,2.73-.08,1.38-.52,2.52-1.66,3.45-2.84.78-.99,1.19-2.25,1.68-3.43.37-.87.8-2.01.96-2.68.16-.67,1.46-2.66,1.92-4.1.59-1.86.72-3.84,1.04-5.77.35-2.11.91-4.21.96-6.36.04-1.79-.3-3.58-.56-5.35-.29-1.94-.69-3.86-1.12-5.77-.4-1.77-.71-3.58-1.36-5.27-.73-1.89-1.7-3.68-2.81-5.35-.96-1.45-2.1-2.76-3.29-4.02-.8-.84-1.61-1.71-2.57-2.34-1.01-.67-2.14-1.14-3.29-1.51-1.14-.36-2.41-.23-3.53-.67-.53-.21-.94-.65-1.44-.92-.41-.23-.87-.36-1.28-.59-.39-.22-.69-.63-1.12-.75-.93-.27-1.93.04-2.89.08-.4.02-.83-.08-1.2.08-.49.21-.89.64-1.2,1.09-.36.51-.18,1.46-.72,1.76-.6.33-1.32-.4-2-.42-.92-.02-1.81.31-2.73.42-.91.11-1.9-.15-2.73.25-.86.42-1.5,1.26-2,2.09-.43.73-.56,1.61-.8,2.43-.3.99-.45,2.04-.8,3.01-.41,1.13-.99,2.19-1.52,3.26-.71,1.44-1.66,2.76-2.25,4.27-.41,1.05-.55,2.19-.88,3.26-.36,1.18-.77,2.35-1.2,3.51-.4,1.07-.95,2.08-1.28,3.18-.31,1.03-.46,2.11-.64,3.18-.24,1.41-.51,2.83-.56,4.27-.04,1.23.13,2.46.24,3.68.17,1.79.73,3.56.64,5.35-.06,1.09-.58,2.1-.72,3.18-.17,1.3-.15,2.62-.16,3.93-.01,1.17.28,2.36.08,3.51-.28,1.6-1.15,3.02-1.76,4.52-.49,1.18-1.03,2.34-1.52,3.51-.57,1.36-1.2,2.7-1.68,4.1-.22.63-.56,1.92-.56,1.92"/><path id="path3881" class="cls-3" d="M338.26,110.18s.05,8.13.23,12.18c.14,3.28.43,6.55.68,9.82.25,3.27.6,6.54.79,9.82.19,3.23.39,6.46.34,9.7-.06,3.99-.38,7.98-.79,11.95-.19,1.86-.79,5.56-.79,5.56"/><path id="path3883" class="cls-3" d="M331,80.61s1,2.88,1.25,4.38c.38,2.3.27,4.65.34,6.98.08,2.6.23,5.21.11,7.81-.1,2.22-.24,4.45-.68,6.62-.31,1.5-1.36,4.38-1.36,4.38"/><path id="path3885" class="cls-3" d="M340.58,211.15s.24-.88.4-1.3c.18-.5.62-1.48.62-1.48"/><path id="path3887" class="cls-3" d="M326.41,63.22s-1.74.52-2.61.77c-1.32.38-2.67.66-3.97,1.12-.91.33-1.77.8-2.66,1.18-.86.37-1.77.63-2.61,1.06-.68.35-1.27.85-1.93,1.24-.78.46-1.58.89-2.38,1.3-.9.46-1.84.82-2.72,1.3-.19.11-.39.22-.57.35-.14.11-.25.25-.4.35-.34.24-.7.44-1.08.59-.22.09-.45.12-.68.18-.49.13-.98.29-1.47.41-.49.12-.99.16-1.47.3-.37.11-.74.23-1.08.41-.43.24-.79.6-1.19.89-.5.36-1.01.73-1.53,1.06-.57.36-1.22.59-1.76,1.01-.4.3-.72.7-1.08,1.06-.4.41-.83.79-1.19,1.24-.36.46-.68.96-.96,1.48-.37.66-.67,1.37-.96,2.07-.25.62-.51,1.24-.68,1.89-.17.66-.24,1.34-.34,2.01-.12.81-.25,1.61-.34,2.42-.1.92-.14,1.85-.23,2.78-.09.93-.18,1.85-.28,2.78-.11.95-.28,1.89-.34,2.84-.06,1-.03,2.01,0,3.02.03.97.1,1.93.17,2.9.09,1.18.2,2.37.34,3.55.13,1.07.34,2.12.45,3.19.12,1.18.14,2.37.23,3.55.1,1.4.28,2.8.34,4.2.05,1.3.02,2.6,0,3.9-.02,1.22-.04,2.45-.11,3.67-.09,1.54-.17,3.09-.4,4.61-.2,1.32-.64,2.59-.85,3.9-.2,1.27-.3,2.56-.4,3.84-.06.81-.09,1.62-.11,2.42-.03.85-.02,1.7-.06,2.54-.04.99-.09,1.97-.17,2.96-.06.79-.13,1.58-.23,2.37-.09.77-.2,1.54-.34,2.31-.16.84-.35,1.66-.57,2.48-.17.66-.3,1.33-.57,1.95-.31.7-.82,1.29-1.19,1.95-.4.71-.73,1.47-1.13,2.19-.46.83-1.04,1.58-1.47,2.42-.5.97-.89,2-1.3,3.02-.4.98-.78,1.96-1.13,2.96-.45,1.25-.81,2.53-1.25,3.79-.31.89-.67,1.77-.96,2.66-.33,1-.62,2-.91,3.02-.28,1.02-.48,2.07-.79,3.08-.36,1.16-.85,2.28-1.25,3.43-.45,1.29-.85,2.61-1.3,3.9-.4,1.15-.77,2.31-1.25,3.43-.25.59-.57,1.14-.85,1.72-.15.31-.33.62-.45.95-.13.36-.16.76-.28,1.12-.33.96-.8,1.87-1.25,2.78-.55,1.12-1.18,2.2-1.76,3.31-.62,1.2-1.12,2.46-1.81,3.61-.4.67-.92,1.25-1.36,1.89-.31.46-.65.92-.91,1.42-.19.38-.27.8-.45,1.18-.29.62-.62,1.22-1.02,1.77-.28.39-.63.73-.96,1.06-.42.42-.89.77-1.3,1.18-.36.36-.59.87-1.02,1.12-.32.19-.74.1-1.08.24-.58.24-1.04.71-1.59,1.01-1.06.56-2.17,1.01-3.29,1.42-.72.26-1.48.41-2.21.65-.44.14-.89.26-1.3.47-.28.14-.54.33-.79.53-.26.21-.5.46-.74.71-.3.32-.58.66-.85,1.01-.33.42-.61.9-.96,1.3-.31.35-.65.68-1.02.95-.53.38-1.14.62-1.7.95-.57.33-1.08.79-1.7,1.01-.31.1-.59.15-.91.17"/><path id="path3889" class="cls-3" d="M258.2,216.06s1.15-.35,1.7-.59c.63-.28,1.29-.54,1.81-1.01.24-.21.57-.77.57-.77"/><path id="path3891" class="cls-3" d="M417.92,217.54s-.78-.27-1.13-.47c-.45-.26-.89-.56-1.25-.95-.09-.1-.23-.35-.23-.35"/><path id="path3893" class="cls-3" d="M369.88,301.9s-.13,2.56-.16,3.85c-.02,1.17-.07,2.34,0,3.51.05.95.21,1.9.32,2.84.16,1.34.4,2.67.48,4.02.07,1.22.03,2.45,0,3.68-.03,1.17-.16,3.51-.16,3.51"/><path id="path3895" class="cls-3" d="M356.57,310.43s-.63,3.56-.8,5.35c-.13,1.39-.19,2.79-.16,4.18.04,1.85.21,3.69.48,5.52.12.79.48,2.34.48,2.34"/><path id="path3092" class="cls-3" d="M242.55,224.93c-.05-.17-.12-.34-.21-.5-.06-.1-.12-.21-.21-.28-.09-.07-.13-.02-.24-.03-.2-.01-.42.09-.61.14-.36.09-.76.12-1.12.22-.34.1-.71.1-1.01.28-.09.05-.17.13-.21.22-.08.17-.06.37-.05.56,0,.19.01.4.11.56.2.34.56.56.91.72.16.08.35.11.53.11.23,0,.46-.06.69-.11.29-.07.57-.17.85-.28.2-.08.43-.12.59-.28.09-.09.14-.21.16-.33.02-.15-.03-.3-.05-.44-.03-.19-.05-.38-.11-.56h0Z"/><path id="path3862" class="cls-3" d="M239.62,226.73s.46.45.72.64c.28.2.56.4.88.53.35.15.72.21,1.09.28.37.07.74.12,1.12.11.22,0,.43-.06.64-.11.53-.13,1.06-.27,1.57-.47.53-.21,1.03-.48,1.52-.78.3-.18.56-.43.85-.61.36-.23.75-.41,1.12-.61.28-.16.54-.37.85-.47.24-.08.5-.1.75-.08.23.01.47.02.67.14.13.07.21.21.29.33.14.22.26.46.29.72.05.34-.04.69-.11,1.03-.09.46-.27.89-.4,1.33-.15.51-.35,1-.45,1.53-.04.2-.03.41-.05.61-.03.23-.07.47-.13.69-.2.76-.52,1.48-.77,2.22-.1.3-.2.61-.29.92s-.17.62-.29.92c-.21.54-.49,1.04-.75,1.56-.28.57-.6,1.12-.88,1.69-.21.44-.39.89-.59,1.33-.14.32-.29.65-.43.97-.2.47-.43.93-.59,1.42-.06.2-.08.41-.13.61-.08.34-.17.67-.27,1-.11.38-.25.75-.35,1.14-.07.28-.11.58-.19.86-.08.27-.21.53-.29.81-.09.33-.13.67-.21,1-.08.34-.2.66-.27,1-.07.33-.09.67-.13,1-.03.26-.09.52-.08.78.01.26.05.54.16.78.1.23.25.46.45.61.13.1.45.17.45.17"/><path id="path3864" class="cls-3" d="M247.02,252.03c.15-.32.12-.7.13-1.06.01-.25.05-.51-.03-.75-.04-.13-.13-.25-.24-.33-.11-.08-.24-.09-.37-.11-.13-.02-.27-.04-.4,0-.1.03-.19.1-.27.17-.11.1-.21.21-.29.33-.09.13-.2.26-.24.42-.05.19,0,.39,0,.58,0,.17-.03.33-.03.5,0,.23-.05.5.08.69.07.11.22.15.35.19.19.06.4.15.59.08.32-.11.57-.41.72-.72h0Z"/><path id="path3866" class="cls-3" d="M247.17,251.57s.38-.72.53-1.1c.21-.56.31-1.16.49-1.73.15-.5.3-1.01.49-1.49.24-.62.56-1.2.83-1.81.25-.57.37-1.21.72-1.73.17-.25.5-.36.64-.63.11-.21.04-.48.11-.71.19-.56.54-1.05.83-1.57.32-.57.7-1.1.98-1.69.11-.23.13-.5.26-.71.09-.13.19-.28.34-.31.14-.03.32.04.41.16.09.13.06.32.04.47-.04.21-.16.4-.26.59-.29.57-.67,1.09-.98,1.65-.33.6-.64,1.21-.9,1.85-.25.6-.44,1.23-.64,1.85-.29.87-.56,1.75-.83,2.63-.29.94-.53,1.89-.83,2.83-.14.44-.36.85-.45,1.3-.04.22,0,.45-.04.67-.06.39-.2.75-.26,1.14-.06.39-.09.78-.11,1.18-.01.26-.06.53,0,.79.05.2.14.39.26.55.15.21.33.42.56.51.14.05.45,0,.45,0"/><path id="path3868" class="cls-3" d="M249.47,254.26c-.09.25-.08.52-.08.78,0,.24-.02.49.05.72.05.17.15.32.27.44.14.15.31.28.51.33.17.05.36.06.53,0,.15-.05.29-.17.37-.31.08-.13.07-.3.11-.44.1-.4.23-.79.29-1.19.02-.16.04-.32.03-.47,0-.09,0-.18-.05-.25-.07-.11-.19-.15-.29-.22-.12-.09-.23-.21-.37-.25-.09-.03-.18,0-.27,0-.11,0-.22-.01-.32.03-.17.07-.32.2-.45.33-.13.14-.25.31-.32.5h0Z"/><path id="path3870" class="cls-3" d="M251.31,255.59s.29-.56.4-.86c.11-.31.17-.63.27-.94.11-.35.24-.68.35-1.03.07-.2.14-.4.19-.61.05-.25.03-.51.11-.75.15-.45.48-.82.69-1.25.28-.56.5-1.15.75-1.72.2-.47.37-.95.59-1.42.12-.26.26-.52.4-.78.04-.08.09-.14.13-.22.05-.11.1-.22.13-.33.04-.14,0-.28.05-.42.05-.15.16-.28.24-.42.12-.22.22-.45.35-.67.17-.29.38-.56.53-.86.29-.56.44-1.19.72-1.75.19-.37.42-.71.64-1.06.12-.2.19-.44.37-.58.07-.06.16-.08.27-.08s.2.1.24.19c.05.1,0,.22,0,.33,0,.2-.02.39-.05.58-.05.25-.14.48-.21.72-.07.22-.16.44-.24.67-.07.21-.16.42-.21.64-.05.21-.07.43-.11.64-.08.41-.15.82-.27,1.22-.15.55-.38,1.07-.56,1.61-.17.5-.43,1.36-.51,1.5-.08.14-.39.85-.59,1.28-.19.42-.39.84-.56,1.28-.18.45-.28.92-.48,1.36-.1.22-.28.4-.35.64-.05.18-.03.37-.03.56,0,.19-.02.39.03.58.04.16.07.33.19.44.1.09.37.14.37.14"/><path id="path3872" class="cls-3" d="M256.82,254.39c.17-.46.44-.88.53-1.36.03-.17.02-.35,0-.53-.02-.16-.05-.33-.13-.47-.05-.08-.13-.15-.21-.19-.12-.06-.27-.05-.4-.06-.13,0-.27-.04-.4,0-.1.03-.19.11-.27.19-.11.12-.19.27-.27.42-.15.28-.29.56-.4.86-.06.15-.09.31-.13.47-.02.08-.06.16-.05.25,0,.07.05.13.08.19.1.19.17.24.35.36.12.08.28.23.43.25.17.02.34.06.51.03.23.05.26-.29.37-.42h0Z"/><path id="path3874" class="cls-3" d="M256.93,254.32s.34-.49.49-.75c.32-.57.59-1.17.87-1.77.41-.89.77-1.81,1.17-2.71.27-.61.56-1.2.83-1.81.26-.57.5-1.15.75-1.73.24-.54.52-1.05.72-1.61.2-.57.3-1.18.45-1.77.15-.58.3-1.15.45-1.73.09-.35.12-.73.26-1.06.05-.1.1-.21.19-.27.11-.09.25-.12.38-.16.11-.03.23-.06.34-.04.17.03.34.11.45.24.11.12.15.31.19.47.1.45.05.92.08,1.37.02.34.01.68.04,1.02.02.21.05.42.08.63.06.45.15.89.19,1.34.03.37.05.73.04,1.1,0,.25-.05.5-.08.75-.04.39-.11.78-.15,1.18-.05.42-.09.84-.11,1.26-.02.38-.05.76-.04,1.14,0,.22-.02.47.08.67.11.23.32.41.53.55.15.1.31.19.49.2.09,0,.56-.2.56-.2"/><path id="path3876" class="cls-3" d="M266.94,250.27c.16-.41.12-.91,0-1.34-.03-.09-.09-.17-.15-.24-.1-.1-.21-.19-.34-.24-.11-.03-.23-.03-.34,0-.11.03-.21.09-.3.16-.09.07-.18.16-.23.27-.05.11-.04.23-.04.35,0,.25.06.5.11.75.03.15.01.33.11.43.11.11.3.1.45.12.16.01.34.03.49-.04.1-.05.19-.13.23-.24h0Z"/><path id="path3878" class="cls-3" d="M267.02,248.93s.26-.96.34-1.45c.08-.51.09-1.02.11-1.53.01-.29-.02-.58,0-.86.03-.58.15-1.57.19-1.73s.23-.99.3-1.49c.11-.77.16-1.54.19-2.32.03-.75-.07-1.5,0-2.24.04-.39.11-.77.23-1.14.25-.83.68-1.58.98-2.4.57-1.56,1.01-3.16,1.51-4.75.3-.95.65-1.89.87-2.87.13-.57.17-1.15.26-1.73.09-.56.17-1.13.26-1.69.05-.31.07-.64.15-.94.06-.24.16-.48.26-.71.46-.99,1.07-1.89,1.62-2.83.78-1.35,1.6-2.69,2.37-4.05.89-1.56,1.69-3.17,2.6-4.71.7-1.19,1.44-2.34,2.18-3.5.86-1.34,1.74-2.66,2.64-3.97.8-1.18,1.64-2.33,2.45-3.5,1.14-1.64,2.29-3.28,3.39-4.95.45-.69.9-1.38,1.32-2.08.81-1.35,2.18-3.97,2.33-4.12.15-.16,1.86-3.58,2.79-5.38,1.07-2.09,2.11-4.2,3.2-6.28.82-1.57,1.71-3.1,2.52-4.67.85-1.65,1.74-3.28,2.48-4.99.25-.58.55-1.15.68-1.77.05-.24.02-.5.04-.75.01-.24-.07-.5.04-.71.07-.13.25-.16.34-.27.07-.08.1-.18.15-.27.05-.1.08-.22.15-.31.05-.07.14-.09.19-.16.13-.18.22-.4.26-.63.02-.09-.02-.19,0-.27.06-.28.28-.5.34-.79.04-.18,0-.37,0-.55,0-.3.02-.6.04-.9.04-.58.09-1.15.15-1.73.08-.79.17-1.57.26-2.36.18-1.47.34-2.94.56-4.4.24-1.55.62-3.08.83-4.63.23-1.69.34-3.4.49-5.11.14-1.52.27-3.04.38-4.56.06-.85.11-1.73.14-2.59.01-.5-.14-1.02.09-1.45.06-.12.2-.55.24-.84.14-1.12,0-2.27-.06-3.4-.08-1.41-.27-2.82-.43-4.22-.18-1.56-.38-3.11-.59-4.67-.16-1.2-.43-3.17-.48-3.61-.05-.44-.32-1.98-.59-2.94-.23-.83-.58-1.63-.85-2.44-.57-1.68-1.1-3.37-1.65-5.05-.28-.87-.85-2.61-.85-2.61"/><path id="path3880" class="cls-3" d="M309.9,130.83s.01,1.47.04,2.2c.04,1.36.12,2.72.19,4.08.05,1.01.08,2.02.15,3.02.09,1.18.2,2.36.34,3.53.09.76.19,1.52.3,2.28.13.87.28,1.73.41,2.59.09.56.2,1.12.26,1.69.07.64.1,1.28.15,1.92.05.56.14,1.12.15,1.69.02.9-.05,1.81-.11,2.71-.06.85-.17,1.7-.26,2.55-.1.94-.11,1.9-.3,2.83-.14.68-.37,1.35-.6,2-.31.86-.69,1.68-1.05,2.51-.29.67-.6,1.34-.9,2-.33.72-.68,1.43-.98,2.16-.26.63-.49,1.28-.72,1.92-.26.74-.48,1.49-.72,2.24-.28.91-.54,1.84-.83,2.75-.25.79-.53,1.57-.79,2.36-.24.71-.45,1.42-.72,2.12-.47,1.26-1.03,2.49-1.54,3.73-.33.8-.69,1.58-.98,2.4-.38,1.07-.72,2.16-1.02,3.26-.23.86-.41,1.73-.6,2.59-.14.64-.29,1.28-.41,1.92-.17.91-.33,1.83-.45,2.75-.15,1.08-.2,2.18-.34,3.26-.13,1.02-.31,2.04-.45,3.06-.17,1.26-.3,2.52-.49,3.77-.35,2.24-.76,4.46-1.2,6.68-.41,2.03-.92,4.03-1.36,6.05-.32,1.48-.64,2.96-.94,4.44-.22,1.08-.42,2.17-.64,3.26-.13.67-.3,1.33-.41,2-.1.57-.18,1.15-.23,1.73-.05.65-.06,1.31-.04,1.96.02.68.05,1.37.15,2.04.12.75.34,1.47.53,2.2.17.64.37,1.28.53,1.92.1.43.19.86.26,1.3.23,1.41.29,2.84.53,4.24.2,1.21.5,2.41.75,3.61.28,1.32.59,2.64.87,3.97.3,1.42.53,2.86.87,4.28.38,1.6.93,3.15,1.28,4.75.36,1.65.63,3.32.87,4.99.17,1.2.24,2.41.41,3.61.16,1.12.45,2.22.6,3.34.17,1.24.25,2.49.34,3.73.08,1.1.11,2.2.19,3.3.16,2.29.39,4.58.56,6.87.22,3,.41,6,.6,8.99.11,1.73.25,3.45.3,5.18.03,1.09.04,2.17,0,3.26-.04,1.25-.2,2.49-.26,3.73-.05.97-.08,1.94-.08,2.91,0,.86.08,1.73.11,2.59.04,1.06.11,2.12.11,3.18,0,.76,0,1.52-.08,2.28-.1.95-.3,1.9-.53,2.83-.21.84-.59,1.63-.75,2.47-.18.9-.17,1.83-.26,2.75-.12,1.24-.21,2.49-.38,3.73-.15,1.17-.35,2.34-.56,3.5-.16.87-.42,1.72-.56,2.59-.14.82-.19,1.65-.3,2.47-.19,1.43-.47,2.85-.64,4.28-.12.97-.23,1.93-.26,2.91-.03.92.07,1.83.08,2.75.01,1.39-.09,2.78-.04,4.16.04.99.16,1.97.26,2.95.1.93.23,1.86.34,2.79.13,1.11.23,2.23.38,3.34.25,1.93.59,3.84.83,5.77.19,1.54.3,3.09.49,4.63.15,1.22.27,2.44.49,3.65.29,1.65.69,3.28,1.09,4.91.27,1.09.62,2.17.9,3.26.32,1.23.55,2.48.9,3.69.43,1.48,1.01,2.9,1.51,4.36.45,1.31.93,2.6,1.32,3.93.17.58.33,1.17.45,1.77.16.74.26,1.49.38,2.24.17,1.07.31,2.15.45,3.22.17,1.31.37,2.61.49,3.93.08.85.13,1.7.15,2.55.02.62.06,1.23,0,1.85-.05.52-.15,1.03-.3,1.53-.06.19-.19.35-.23.55-.04.18,0,.37,0,.55,0,.26.05.52.04.79-.01.24-.08.47-.11.71-.03.26-.08.52-.08.79,0,.37.07.73.11,1.1.05.41.11.81.19,1.22.07.38.15.77.26,1.14.11.38.27.74.41,1.1.12.29.29.56.38.86.09.32.15.98.15.98"/><path id="path3882" class="cls-3" d="M306.21,301.96s.41,3.04.3,4.56c-.09,1.18-.49,2.31-.75,3.46-.29,1.26-.75,2.48-.9,3.77-.13,1.09-.07,2.2,0,3.3.05.79.3,2.36.3,2.36"/><path id="path3884" class="cls-3" d="M318.71,322.7l.75-11.78"/><path id="path3886" class="cls-3" d="M308.04,421.62s-.54.59-.85.83c-.46.37-1.03.57-1.49.94-.22.18-.33.51-.59.61-.23.09-.5-.06-.75-.06-.59,0-1.17.09-1.76.17-.23.03-.46.06-.69.11-.38.09-.8.11-1.12.33-.19.13-.43.56-.43.56"/><path id="path3888" class="cls-3" d="M301.12,425.23s-.74-.21-1.12-.22c-.25,0-.51.03-.75.11-.27.09-.52.21-.75.39-.25.2-.5.43-.64.72-.14.3-.15.66-.16,1,0,.32.01.64.11.94.11.36.3.71.53,1,.09.11.32.28.32.28"/><path id="path3890" class="cls-3" d="M298.56,428.67s.01.48.05.72c.06.36.09.74.27,1.06.25.45.67.78,1.06,1.11.46.39.96.73,1.49,1,.49.25,1.03.36,1.54.56.8.3,1.59.64,2.4.94.41.15.84.24,1.22.44.14.07.27.16.37.28.1.13.14.3.21.44.22.42.43.84.69,1.22.37.53.77,1.05,1.22,1.5.19.19.41.36.64.5.5.32,1.04.6,1.6.78.96.31,1.98.43,2.98.5,1.03.08,2.06,0,3.09-.06,1-.06,2-.09,2.98-.28.51-.1,1.06-.15,1.49-.44.33-.22.56-.59.75-.94.24-.46.35-.99.48-1.5.14-.58.3-1.18.32-1.78.01-.34-.09-.67-.11-1-.06-.98-.06-1.96-.05-2.94,0-.61.04-1.22.05-1.83.01-.74.02-1.48,0-2.22-.02-.7-.11-2.11-.11-2.11"/><path id="path3892" class="cls-3" d="M322.84,430.28s-.03-1.41,0-2.11c.03-.72.06-1.45.16-2.17.11-.77.36-1.51.48-2.28.16-1.05.07-2.14.32-3.17.06-.23.21-.43.27-.67.06-.29.02-.59.05-.89.05-.5.13-1,.21-1.5.09-.52.32-1.03.32-1.56,0-.27-.11-.52-.16-.78-.07-.33-.12-.67-.21-1-.21-.71-.51-1.38-.8-2.06-.23-.53-.55-1.01-.75-1.56-.17-.48-.25-1-.37-1.5-.09-.37-.17-.74-.27-1.11-.07-.26-.14-.52-.21-.78-.17-.63-.4-1.24-.48-1.89-.1-.79-.01-1.59,0-2.39.02-1.07.05-2.15.11-3.22.08-1.54.2-3.07.32-4.61.13-1.65.32-4.72.43-4.94.11-.22.33-3.16.59-4.72.3-1.83.77-3.62,1.12-5.44.34-1.75.67-3.51.96-5.28.24-1.48.44-2.96.64-4.44.21-1.52.44-3.03.59-4.55.13-1.37.22-2.74.27-4.11.05-1.44.01-2.89,0-4.33,0-.98.01-1.97-.05-2.94-.05-.74-.19-1.48-.27-2.22-.11-1.05-.2-2.11-.27-3.17-.1-1.46-.13-2.93-.21-4.39-.07-1.24-.21-2.48-.27-3.72-.04-.92-.07-1.85-.05-2.78.02-.89.09-1.78.16-2.67.09-1.11.17-2.23.32-3.33.14-1.02.32-2.04.53-3.06.21-1.03.47-2.05.75-3.06.35-1.27.75-2.53,1.17-3.78.43-1.29,1.28-3.61,1.38-3.83.11-.22.72-2.13,1.01-3.22.27-.99.55-1.98.69-3,.15-1.05.1-2.11.16-3.17.07-1.31.16-2.63.21-3.94.05-1.18.07-2.37.11-3.55.08-2.68.16-5.37.21-8.05.03-1.59,0-3.19.05-4.78.04-1.17.12-2.33.21-3.5.1-1.24.2-2.49.37-3.72.14-1.01.38-2,.53-3,.13-.83.21-1.67.32-2.5.17-1.22.37-2.44.53-3.67.13-1,.18-2.01.37-3,.13-.68.36-1.33.53-2,.38-1.48.82-2.94,1.12-4.44.28-1.41.4-2.86.64-4.28.21-1.28.49-2.55.69-3.83.23-1.42.45-2.84.59-4.28.13-1.35.21-2.7.21-4.05,0-1.06-.07-2.11-.16-3.17-.09-1.04-.2-2.08-.37-3.11-.12-.73-.48-2.17-.48-2.17"/><path id="path4148" class="cls-3" d="M293.55,163.09s1.06-2.94,1.84-4.28c.59-1.02,2.12-2.8,2.12-2.8"/></g><path id="path3210" class="cls-3" d="M107.53,428.83s-.43-.46-.61-.72c-.32-.5-.59-1.05-.78-1.62-.15-.46-.21-.96-.26-1.44-.07-.66-.1-1.32-.09-1.99.02-.88.22-1.74.26-2.62.04-.9.02-1.81,0-2.71-.01-.81-.07-1.62-.09-2.44,0-.45.03-.9,0-1.35-.02-.28-.08-.56-.11-.83-.02-.2-.03-.41-.06-.61-.07-.48-.18-.96-.26-1.44-.1-.63-.29-1.26-.26-1.9.03-.48.19-.95.34-1.4.25-.73.62-1.4.92-2.11.36-.85.74-1.68,1.04-2.55.3-.88.55-1.77.73-2.68.19-.92.28-1.87.37-2.81.14-1.53.22-3.06.24-4.59.02-1.57-.06-3.15-.12-4.72-.06-1.43-.13-2.85-.24-4.28-.11-1.34-.27-2.68-.43-4.02-.3-2.51-.64-5.02-.98-7.53-.3-2.19-.64-4.38-.92-6.57-.25-1.91-.52-3.82-.67-5.74-.11-1.42-.17-2.85-.18-4.28-.02-1.21-.01-2.43.06-3.64.12-1.9.43-3.78.61-5.68.12-1.21.19-2.43.31-3.64.2-1.98.52-3.95.67-5.93.08-1.06.13-2.13.12-3.19,0-.85-.06-1.7-.12-2.55-.08-1.02-.15-2.05-.31-3.06-.12-.77-.34-1.53-.49-2.3-.2-1-.33-2.01-.55-3-.21-.95-.46-1.88-.73-2.81-.26-.86-.57-1.7-.86-2.55-.27-.81-.55-1.61-.8-2.43-.24-.8-.49-1.61-.67-2.43-.1-.46-.18-.93-.24-1.4-.08-.59-.15-1.19-.18-1.79-.05-.76-.05-1.53-.06-2.3-.03-2.11-.02-4.21,0-6.32.02-1.72.07-3.45.12-5.17.05-1.53.18-3.06.18-4.59,0-1.92-.13-3.83-.18-5.74-.04-1.51-.06-3.02-.12-4.53-.06-1.47-.13-2.94-.24-4.4-.08-1-.21-2-.31-3-.15-1.53-.28-3.06-.43-4.59-.1-1.06-.14-2.14-.31-3.19-.13-.86-.4-1.69-.55-2.55-.16-.89-.25-1.79-.37-2.68-.13-.98-.24-1.96-.37-2.94-.19-1.45-.49-2.88-.61-4.34-.12-1.38-.14-2.76-.12-4.15.02-1.02.09-2.04.18-3.06.09-.98.19-1.97.37-2.94.19-1.05.48-2.09.73-3.13.2-.83.42-1.66.61-2.49.09-.38.25-.76.24-1.15,0-.18-.12-.51-.12-.51l2.96-1.8"/><path id="path3980" class="cls-3" d="M107.34,426.39s.26.71.31,1.08c.05.47-.03.94-.06,1.4-.03.53-.02,1.07-.12,1.6-.09.48-.28.94-.43,1.4-.12.38-.28.76-.37,1.15-.1.44-.2.89-.18,1.34.02.5.09,1.02.31,1.47.25.51.67.92,1.1,1.28.27.22.92.51.92.51"/><path id="path3982" class="cls-3" d="M108.56,436.73s.2.77.31,1.15c.12.41.2.82.37,1.21.13.31.25.66.49.89.36.36.87.53,1.35.7.47.17.97.26,1.47.32.67.08,1.35.13,2.02.06.46-.05.94-.09,1.35-.32.2-.12.37-.3.49-.51.15-.27.19-.6.23-.9.04-.34.08-.69,0-1.02-.07-.3-.26-.56-.41-.82-.22-.38-.47-.74-.73-1.08-.12-.15-.22-.33-.37-.45-.14-.12-.49-.26-.49-.26"/><path id="path3986" class="cls-3" d="M115.24,436s-.04-.63-.04-.95c0-.29.03-.57,0-.86-.01-.14-.09-.41-.09-.41"/><path id="path3988" class="cls-3" d="M116.67,438.8l.56.14"/><path id="path3990" class="cls-3" d="M116.19,433.84s-.02.87,0,1.31c.01.39.03.79.09,1.17.04.24.08.49.17.72.14.33.42.58.56.9.08.19.14.38.17.59.03.18-.05.37,0,.54.12.4.42.73.69,1.04.18.21.38.39.61.54.16.11.33.21.52.27.4.12.83.14,1.26.14.39,0,.79-.03,1.17-.14.26-.07.53-.15.74-.32.17-.14.31-.33.39-.54.08-.2.1-.42.09-.63-.01-.16-.08-.3-.13-.45-.04-.11-.07-.22-.13-.32-.08-.14-.19-.25-.3-.36-.16-.16-.36-.29-.52-.45-.19-.18-.37-.37-.52-.59-.12-.18-.22-.38-.3-.59-.08-.19-.14-.38-.17-.59-.03-.18,0-.36,0-.54v-.72"/><path id="path3992" class="cls-3" d="M122.51,440.06s.5.27.78.32c.3.05.61,0,.91-.05.32-.04.65-.07.95-.18.26-.09.54-.2.74-.41.11-.12.17-.29.22-.45.05-.19.08-.39.04-.59-.04-.18-.17-.33-.26-.5-.11-.2-.23-.39-.35-.59-.13-.22-.25-.46-.39-.68-.14-.22-.31-.41-.43-.63-.09-.16-.15-.33-.22-.5-.1-.24-.15-.52-.3-.72-.12-.16-.32-.24-.48-.36-.07-.06-.17-.1-.22-.18-.12-.2-.14-.45-.17-.68-.02-.19,0-.59,0-.59"/><path id="path3994" class="cls-3" d="M126.14,439.16s.47.06.69,0c.26-.07.49-.23.69-.41.18-.16.35-.36.43-.59.07-.2.04-.42.04-.63,0-.27-.02-.54-.04-.81-.03-.3-.05-.61-.13-.9-.06-.21-.18-.39-.26-.59-.1-.25-.13-.53-.26-.77-.19-.34-.46-.63-.74-.9-.12-.12-.3-.17-.39-.32-.04-.07-.04-.23-.04-.23"/><path id="path3996" class="cls-3" d="M127.96,438.12s.41.11.61.05c.16-.05.27-.2.39-.32.16-.16.31-.35.43-.54.15-.24.3-.49.39-.77.08-.26.11-.54.13-.81.02-.25.03-.51,0-.77-.03-.28-.1-.55-.17-.81-.06-.2-.13-.4-.22-.59-.16-.32-.37-.6-.56-.9-.09-.14-.18-.27-.26-.41-.19-.31-.37-.63-.56-.95-.21-.35-.43-.69-.65-1.04-.18-.29-.37-.58-.56-.86-.25-.35-.48-.73-.78-1.04-.31-.33-.69-.57-1.04-.86-.27-.23-.57-.43-.82-.68-.41-.39-.74-.85-1.13-1.26-.18-.2-.42-.36-.56-.59-.31-.49-.43-1.08-.65-1.62-.18-.45-.37-.9-.56-1.35-.14-.33-.33-.65-.43-.99-.11-.36-.09-.77-.22-1.13-.1-.3-.31-.56-.43-.86-.11-.26-.2-.53-.26-.81-.07-.34-.1-.69-.09-1.04.02-.44.11-.88.22-1.31.12-.49.32-.96.48-1.44.14-.44.31-.86.43-1.31.11-.41.22-.83.26-1.26.04-.51-.02-1.02-.04-1.53-.02-.42-.02-.85-.09-1.26-.06-.38-.19-.75-.26-1.13-.07-.39-.14-.78-.17-1.17-.02-.28-.01-.57,0-.86.02-.47.08-.93.13-1.4.05-.48.11-.96.17-1.44.08-.63.16-1.26.26-1.9.12-.78.25-1.57.39-2.35.16-.86.33-1.72.52-2.57.16-.73.33-1.45.52-2.17.2-.73.41-1.45.65-2.17.33-.98.72-1.93,1.08-2.89.32-.84.64-1.68.95-2.53.23-.63.49-1.25.69-1.9.4-1.3.65-2.65,1-3.97.29-1.13.59-2.26.91-3.38.26-.94.55-1.86.82-2.8.24-.83.51-1.64.69-2.48.19-.88.29-1.77.43-2.66.12-.75.23-1.5.35-2.26.19-1.31.36-2.62.56-3.93.19-1.24.41-2.47.61-3.7.15-.93.29-1.86.43-2.8.1-.69.22-1.38.3-2.08.12-.99.21-1.98.26-2.98.05-1.02.02-2.05.04-3.07.01-.65.04-1.29.04-1.94,0-.95,0-1.9-.04-2.84-.05-1.06-.15-2.11-.26-3.16-.11-1.09-.25-2.17-.39-3.25-.15-1.2-.32-2.41-.48-3.61-.12-.93-.25-1.86-.35-2.8-.06-.6-.1-1.2-.13-1.81-.03-.69.02-1.39-.04-2.08-.06-.65-.2-1.29-.3-1.94-.14-.83-.3-1.65-.43-2.48-.11-.68-.23-1.35-.3-2.03-.06-.54-.15-1.08-.13-1.62.02-.53.19-1.05.26-1.58.08-.63.13-1.26.17-1.9.04-.48.06-.96.09-1.44.05-.83.14-1.65.17-2.48.03-.65.03-1.29.04-1.94.02-.92.02-1.84.04-2.75.02-1.01.06-2.02.09-3.02.02-.75-.02-1.51.04-2.26.07-.82.23-1.62.35-2.44.17-1.22.32-2.44.52-3.66.18-1.12.44-2.22.61-3.34.15-1.03.18-2.08.35-3.11.2-1.25.54-2.46.78-3.7.28-1.44.51-2.89.78-4.33.29-1.57.6-3.13.91-4.69.24-1.22.5-2.44.74-3.66.43-2.22.77-4.47,1.26-6.68.37-1.67.82-3.31,1.26-4.96.46-1.74.98-3.45,1.43-5.19.36-1.39.65-2.8,1-4.2.28-1.15.62-2.28.87-3.43.23-1.09.32-2.21.56-3.29.34-1.53.84-3.01,1.26-4.51.15-.54.34-1.07.43-1.62.12-.67.13-1.35.17-2.03.04-.71.07-1.41.09-2.12.01-.6.02-1.2,0-1.81-.01-.47-.03-.94-.09-1.4-.07-.55-.22-1.08-.3-1.62-.15-1.05-.23-2.11-.35-3.16-.1-.84-.19-1.69-.3-2.53-.07-.53-.14-1.05-.22-1.58-.09-.62-.16-1.23-.26-1.85-.15-.95-.34-1.89-.48-2.84-.14-1-.2-2.02-.35-3.02-.12-.82-.3-1.62-.43-2.44-.12-.74-.24-1.47-.35-2.21-.09-.66-.19-1.32-.26-1.99-.1-.95-.14-1.9-.22-2.84-.07-.96-.1-1.93-.22-2.89-.1-.82-.22-1.63-.39-2.44-.2-.93-.51-1.83-.74-2.75-.25-.99-.41-2-.69-2.98-.25-.87-.57-1.72-.87-2.57-.28-.81-.55-1.64-.87-2.44-.24-.61-.57-1.18-.78-1.81-.22-.65-.37-1.32-.52-1.99-.19-.84-.31-1.69-.48-2.53-.21-1.04-.4-2.08-.65-3.11-.2-.84-.43-1.66-.69-2.48-.27-.85-.59-1.69-.91-2.53-.32-.85-.64-1.7-1-2.53-.3-.69-.64-1.35-.95-2.03-.25-.54-.51-1.07-.74-1.62-.24-.61-.46-1.22-.65-1.85-.22-.73-.4-1.47-.56-2.21-.12-.58-.23-1.17-.3-1.76-.11-.88-.18-1.77-.22-2.66-.03-.72,0-1.99,0-2.17s.13-1.72.26-2.57c.12-.77.33-1.53.48-2.3.17-.87.32-1.75.48-2.62.16-.86.33-1.71.48-2.57.13-.79.25-1.59.35-2.39.16-1.29.31-2.58.39-3.88.07-1.04.08-2.08.09-3.11,0-.86-.07-1.72-.04-2.57.01-.35-.05-.72.09-1.04.05-.12.19-.17.26-.27.07-.1.17-.32.17-.32"/><path id="path3998" class="cls-3" d="M127.31,306.4s-.43,1.37-.61,2.08c-.19.79-.28,1.6-.48,2.39-.17.7-.38,1.39-.61,2.08-.18.55-.61,1.04-.61,1.62,0,.31.25.56.35.86.28.88.56,1.78.65,2.71.05.58-.04,1.17-.09,1.76-.06.71-.12,1.42-.26,2.12-.15.71-.33,1.41-.61,2.08-.15.35-.56.99-.56.99"/><path id="path4000" class="cls-3" d="M105.01,303.6s.15,2.23.37,3.32c.23,1.17.46,2.38.98,3.45.46.95,1.55,1.53,1.84,2.55.14.49-.07,1.02-.12,1.53-.1.9-.31,1.78-.37,2.68-.05.81-.14,1.63,0,2.43.21,1.21.66,2.37,1.22,3.45.42.8,1.59,2.17,1.59,2.17"/><path id="path4002" class="cls-3" d="M141.12,104.65s-.52,1.32-.78,1.99c-.29.72-.51,1.48-.87,2.17-.37.7-.83,1.35-1.3,1.99-.43.6-.87,1.2-1.39,1.71-.34.34-.78.57-1.13.9-.44.42-.87.85-1.21,1.35-.29.44-.55.93-.69,1.44-.17.61-.12,1.26-.17,1.9s-.13,1.26-.17,1.9c-.05.87,0,1.75-.09,2.62-.07.7-.26,1.38-.35,2.08-.08.63-.07,1.27-.17,1.9-.16.92-.44,1.81-.69,2.71-.24.82-.49,1.63-.78,2.44-.24.67-.59,1.3-.78,1.99-.18.65-.25,1.32-.35,1.99-.11.72-.26,2.17-.26,2.17"/><path id="path4004" class="cls-3" d="M130.21,116.11s.5,2.03.61,3.07c.09.93.16,1.88,0,2.8-.19,1.08-.58,2.14-1.13,3.07-.45.76-1.04,1.46-1.73,1.99-.51.39-1.11.67-1.73.81-.96.21-1.96.07-2.94,0-1.34-.09-2.71-.12-3.98-.54-1.37-.45-2.57-1.06-3.81-1.81-1.07-.64-2.16-1.54-3.12-2.35-.48-.4-1.3-1.35-1.3-1.35"/><path id="path4010" class="cls-3" d="M131.34,131.63s-.04,1.26-.09,1.9c-.04.63-.16,1.26-.17,1.9-.02.96.11,1.93.17,2.89.08,1.11.11,2.23.26,3.34.14,1.06.38,2.11.61,3.16.21.97.46,1.92.69,2.89.23.99.47,1.98.69,2.98.3,1.32.56,2.65.87,3.97.14.6.3,1.2.43,1.81.09.42.1.87.26,1.26.16.4.55.68.69,1.08.15.43.08.91.17,1.35.11.52.26,1.03.43,1.53.35,1.02.8,1.99,1.21,2.98.54,1.33,1.03,2.68,1.64,3.97.55,1.15,1.24,2.21,1.82,3.34.75,1.46,1.47,2.93,2.16,4.42.61,1.31,1.09,2.68,1.73,3.97.61,1.23,1.35,2.4,1.99,3.61.74,1.4,1.39,2.86,2.16,4.24.73,1.32,1.56,2.59,2.34,3.88.67,1.11,1.33,2.23,1.99,3.34.61,1.02,1.2,2.05,1.82,3.07.46.76.94,1.49,1.39,2.26.66,1.13,1.28,2.28,1.9,3.43.56,1.02,1.09,2.05,1.64,3.07.68,1.24,1.43,2.44,2.08,3.7.71,1.39,1.27,2.86,1.99,4.24.59,1.14,1.43,2.14,1.9,3.34.18.46.3.95.35,1.44.04.48-.06.96-.09,1.44-.03.6-.11,1.2-.09,1.81.02.51.09,1.03.17,1.53.13.76.34,1.51.52,2.26.2.84.4,1.69.61,2.53.23.93.42,1.88.69,2.8.27.92.67,1.79.95,2.71.17.54.34,1.07.43,1.62.08.48.05.96.09,1.44.04.51.09,1.03.17,1.53.11.73.27,1.45.43,2.17.08.33.21.65.26.99.08.54,0,1.09.09,1.62.07.39.23.76.34,1.15.11.38.2.77.31,1.15.1.38.16.78.31,1.15.14.34.28.72.55.96.17.15.39.27.61.26.24-.02.43-.22.61-.38.2-.18.39-.39.49-.64.11-.28.1-.59.12-.89.02-.23,0-.47,0-.7-.01-.32,0-.65-.06-.96-.05-.22-.18-.42-.24-.64-.08-.25-.08-.53-.18-.77-.07-.17-.25-.27-.31-.45-.11-.36,0-.77,0-1.15.01-.43.03-.85.06-1.28.02-.26.05-.51.06-.77.03-.45.07-.89.06-1.34,0-.32-.03-.64-.06-.96-.02-.19-.06-.38-.06-.57,0-.15-.02-.32.06-.45.05-.08.15-.12.24-.13.15-.01.3.04.43.13.18.12.32.32.43.51.12.21.17.46.24.7.12.4.2.81.31,1.21.12.45.24.9.37,1.34.13.45.27.9.43,1.34.15.43.3.86.49,1.28.26.57.58,1.1.86,1.66.24.48.44.98.67,1.47.33.69.72,1.35,1.04,2.04.24.52.43,1.07.67,1.6.23.48.42.98.73,1.4.19.25.42.47.67.64.26.18.55.33.86.38.26.05.55.05.8-.06.18-.09.33-.26.43-.45.12-.23.15-.5.18-.77.03-.27.06-.56,0-.83-.04-.2-.16-.39-.24-.57-.19-.41-.44-.79-.61-1.21-.15-.35-.21-.74-.37-1.08-.18-.39-.48-.71-.67-1.08-.21-.41-.4-.84-.55-1.28-.18-.5-.24-1.04-.43-1.53-.13-.35-.35-.67-.49-1.02-.1-.27-.18-.55-.24-.83-.05-.21-.07-.43-.12-.64-.09-.39-.22-.76-.31-1.15-.07-.3-.07-.61-.18-.89-.06-.14-.2-.24-.24-.38-.05-.16-.02-.34,0-.51.01-.11-.02-.25.06-.32.05-.04.13-.03.18,0,.18.1.24.34.37.51.22.3.5.56.67.89.21.41.25.91.43,1.34.19.44.47.84.67,1.28.19.41.33.85.49,1.28.13.34.23.69.37,1.02.2.48.45.94.67,1.4.26.53.55,1.05.8,1.6.24.52.46,1.06.67,1.6.19.47.39.93.55,1.4.18.52.33,1.06.49,1.6.13.42.19.87.37,1.28.11.25.26.49.43.7.16.21.31.47.55.57.19.08.41.04.61,0,.28-.05.57-.14.8-.32.16-.13.27-.33.37-.51.16-.28.3-.58.37-.89.05-.23.02-.47,0-.7-.03-.3-.12-.6-.18-.89-.09-.41-.21-.81-.31-1.21-.09-.38-.14-.77-.24-1.15-.1-.37-.25-.72-.37-1.08-.15-.49-.29-.98-.43-1.47-.13-.45-.23-.9-.37-1.34-.13-.39-.29-.76-.43-1.15-.15-.44-.28-.9-.43-1.34-.15-.45-.31-.9-.49-1.34-.21-.52-.42-1.04-.67-1.53-.18-.35-.45-.66-.61-1.02-.16-.37-.24-.77-.37-1.15-.06-.17-.17-.33-.18-.51,0-.11-.02-.25.06-.32.14-.13.37-.1.55-.06.16.03.32.13.43.26.2.22.25.55.37.83.17.38.3.78.49,1.15.18.34.47.6.61.96.15.36.1.79.24,1.15.15.37.41.68.61,1.02.25.44.51.88.73,1.34.22.44.39.9.61,1.34.15.3.36.58.49.89.18.45.23.94.37,1.4.11.37.23.73.37,1.08.18.48.37.96.61,1.4.18.32.39.61.61.89.15.2.27.46.49.57.16.09.37.07.55.06.23,0,.48,0,.67-.13.22-.15.32-.45.43-.7.1-.24.14-.51.18-.77.07-.4.13-.81.12-1.21,0-.34-.05-.69-.12-1.02-.08-.37-.24-.72-.37-1.08-.14-.41-.28-.81-.43-1.21-.1-.26-.23-.5-.31-.77-.14-.46-.21-.94-.31-1.4-.08-.4-.12-.82-.24-1.21-.2-.6-.54-1.14-.8-1.72-.17-.38-.33-.77-.49-1.15-.26-.62-.53-1.23-.8-1.85-.18-.43-.36-.85-.55-1.28-.16-.34-.35-.67-.49-1.02-.23-.58-.34-1.2-.55-1.79-.13-.37-.32-.71-.43-1.08-.12-.39-.09-.83-.24-1.21-.07-.17-.25-.27-.31-.45-.13-.4,0-.85-.06-1.28-.06-.45-.22-.89-.31-1.34-.08-.42-.15-.85-.18-1.28-.02-.21,0-.64,0-.64"/><path id="path4012" class="cls-3" d="M184.65,228.11s.34-.91.55-1.34c.16-.33.35-.65.55-.96.17-.26.29-.6.55-.77.19-.13.45-.13.67-.13.12,0,.26,0,.37.06.28.15.45.47.67.7s.44.48.67.7c.31.29.65.56.98.83.47.39.92.8,1.41,1.15.33.24.69.43,1.04.64.34.2.67.44,1.04.57.39.15.81.22,1.22.26.41.03.82,0,1.22-.06.39-.05.79-.11,1.16-.26.33-.12.63-.31.92-.51.24-.17.52-.32.67-.57.05-.09.06-.21.06-.32,0-.17,0-.35-.06-.51-.04-.1-.11-.19-.18-.26-.18-.15-.4-.23-.61-.32-.42-.18-.87-.25-1.29-.45-.26-.12-.5-.28-.73-.45-.4-.28-.76-.61-1.16-.89-.42-.29-.89-.5-1.29-.83-.38-.32-.71-.71-1.04-1.08-.28-.31-.54-.63-.8-.96-.26-.33-.51-.66-.73-1.02-.25-.41-.42-.87-.67-1.28-.22-.36-.51-.67-.73-1.02-.2-.31-.32-.67-.55-.96-.17-.22-.38-.42-.61-.57-.28-.18-.61-.25-.92-.38-.59-.25-1.2-.47-1.78-.77-.44-.23-.86-.5-1.29-.77-.58-.35-1.17-.69-1.71-1.08-.43-.31-.79-.72-1.22-1.02-.48-.34-1.04-.57-1.53-.89-.3-.2-.58-.41-.86-.64-.3-.26-.6-.52-.86-.83-.42-.51-.71-1.12-1.1-1.66-.37-.51-.86-.92-1.16-1.47-.21-.37-.28-.81-.43-1.21-.2-.55-.33-1.14-.61-1.66-.34-.63-.9-1.12-1.29-1.72-.48-.75-.88-1.56-1.29-2.36-.52-1.01-.98-2.04-1.47-3.06-.47-.96-.94-1.91-1.41-2.87-.43-.87-.98-1.69-1.29-2.62-.18-.55-.13-1.17-.31-1.72-.19-.61-.56-1.14-.8-1.72-.35-.86-.62-1.74-.92-2.62-.34-1-.66-2-.98-3-.31-.98-.62-1.95-.92-2.94-.29-.98-.6-1.95-.86-2.94-.39-1.48-.64-2.99-1.04-4.47-.38-1.42-.86-2.81-1.29-4.21-.43-1.4-.81-2.82-1.29-4.21-.26-.77-.54-1.55-.86-2.3-.33-.78-.72-1.54-1.1-2.3-.33-.67-.69-1.32-1.04-1.98-.64-1.18-1.4-2.29-1.96-3.51-.44-.97-.78-1.98-1.1-3-.34-1.07-.58-2.17-.86-3.25-.25-.98-.55-1.94-.73-2.94-.21-1.1-.34-2.21-.43-3.32-.07-.89,0-1.79-.06-2.68-.06-.98-.21-1.96-.31-2.94-.13-1.23-.25-2.47-.37-3.7-.11-1.19-.2-2.38-.31-3.57-.08-.91-.17-1.83-.24-2.74-.11-1.32-.21-2.64-.31-3.96-.07-.98-.17-1.96-.18-2.94,0-.92.05-1.83.12-2.74.07-.9.17-1.79.31-2.68.16-1.07.48-2.12.61-3.19.13-1.01.15-2.04.18-3.06.03-.98.02-1.96,0-2.94-.02-1.15-.07-2.3-.12-3.45-.05-1.06-.1-2.13-.18-3.19-.1-1.26-.26-2.51-.37-3.77-.08-.91-.09-1.83-.18-2.74-.08-.75-.18-1.49-.31-2.23-.1-.58-.19-1.16-.37-1.72-.14-.46-.32-.92-.55-1.34-.26-.46-.6-.86-.92-1.28-.43-.57-.87-1.13-1.35-1.66-.41-.45-.82-.89-1.29-1.28-.78-.65-1.68-1.14-2.51-1.72-.45-.32-.88-.66-1.35-.96-.69-.44-1.38-.92-2.14-1.21-.29-.11-.61-.15-.92-.19-.59-.07-1.19.03-1.78-.06-.52-.08-1.03-.27-1.53-.45-.46-.16-.89-.39-1.35-.57-.69-.27-1.4-.47-2.08-.77-.55-.24-1.07-.53-1.59-.83-.6-.34-1.19-.71-1.78-1.08-.74-.47-1.46-.99-2.2-1.47-.65-.42-1.31-.81-1.96-1.21-.68-.42-1.36-.83-2.02-1.28-.63-.43-1.22-.9-1.84-1.34-.55-.39-1.13-.72-1.65-1.15-.37-.31-.69-.69-1.04-1.02-.42-.39-.87-.75-1.29-1.15-.25-.25-.54-.47-.73-.77-.11-.17-.2-.37-.24-.57-.09-.41-.06-1.28-.06-1.28"/><path id="path4014" class="cls-3" d="M150.43,152.04s-.13,1.49-.06,2.23c.05.56.2,1.12.37,1.66.23.77.86,2.23.86,2.23"/><path id="path4016" class="cls-3" d="M109.05,74.57s1.64.37,2.45.57c.96.24,1.9.59,2.88.77.67.12,1.34.16,2.02.19,1.16.05,2.33-.03,3.49,0,.82.02,1.64,0,2.45.13.92.15,1.8.51,2.69.77.88.25,1.74.57,2.63.77.67.15,1.34.27,2.02.32.53.04,1.06,0,1.59,0h.24"/><path id="path4018" class="cls-3" d="M114.99,71.06s-.31-1.22-.37-1.85c-.07-.78,0-1.58.06-2.36.06-.94.18-1.87.31-2.81.09-.66.18-1.32.31-1.98.2-1.01.53-1.99.73-3,.2-.95.33-1.91.49-2.87.13-.79.26-1.57.37-2.36.05-.36.12-1.08.12-1.08"/><path id="path4020" class="cls-3" d="M99.63,73.99s.68.83,1.1,1.15c.28.22.59.4.92.51.27.09.57.14.86.13.5-.03,1-.2,1.47-.38.39-.15.78-.3,1.1-.57.26-.22.61-.83.61-.83"/><path id="path4022" class="cls-4" d="M127.12,119.37c-1.18,1.03-3.4.31-4.94-1.61s-1.84-4.32-.65-5.35,3.4-.31,4.94,1.61,1.84,4.32.65,5.35Z"/><path id="path4022-1" class="cls-4" d="M125.47,117.35c-.49.43-1.33.22-1.88-.46s-.6-1.58-.11-2.01,1.33-.22,1.88.46.6,1.58.11,2.01Z"/><path id="path4042" class="cls-3" d="M136.36,159.43s-.03-.91-.09-1.35c-.06-.43-.1-.87-.26-1.26-.16-.4-.51-.69-.69-1.08-.25-.54-.52-1.71-.52-1.71"/><path id="path4044" class="cls-3" d="M95.5,169.99s.54-.45.87-.54c.31-.09.64-.03.95,0,.32.03.65.06.95.18.25.1.69.45.69.45"/><path id="path4046" class="cls-3" d="M97.49,169.45l.52,1.53"/><path id="path4050" class="cls-3" d="M97.91,56.63s.94.59,1.35.96c.27.25.48.56.73.83.16.17.29.39.49.51.48.29,1.05.33,1.59.45.77.16,1.55.24,2.33.32.57.06,1.14.1,1.71.13.73.04,1.48.17,2.2.06.49-.07.97-.22,1.41-.45.25-.13.45-.34.67-.51.53-.4,1.06-.8,1.59-1.21.41-.32.83-.61,1.22-.96.45-.4.87-.84,1.29-1.28.58-.6,1.13-1.25,1.71-1.85.5-.52,1.08-.97,1.53-1.53.38-.47.7-.99.98-1.53.33-.65.55-1.35.8-2.04.28-.78.58-1.56.8-2.36.36-1.32.57-2.68.86-4.02.14-.66.3-1.31.43-1.98.17-.91.36-1.82.43-2.74.05-.7.04-1.41,0-2.11-.04-.71-.21-1.4-.24-2.11-.03-.72.02-1.45.06-2.17.05-.87.17-1.74.24-2.62.07-.91.12-1.83.18-2.74.07-.91-.44-2.48-.72-3.7-.31-1.36-.51-2.78-1.04-4.06-.39-.94-1.01-1.76-1.56-2.62-.66-1.04-1.17-2.25-2.08-3.07-1.2-1.08-2.71-1.83-4.24-2.26-.61-.17-1.28-.21-1.9-.09-.62.12-1.12.65-1.73.81-.76.2-1.56.18-2.34.18-.75,0-1.5-.16-2.25-.18-1.18-.03-2.38-.08-3.55.09-1.18.17-2.38.38-3.46.9-1.29.63-2.55,1.47-3.46,2.62-.69.87-.93,2.04-1.39,3.07-.53,1.2-1.06,2.4-1.56,3.61-.48,1.17-1.1,2.29-1.39,3.52-.32,1.38-.36,2.82-.35,4.24.01,1.81.29,3.62.52,5.42.16,1.27.49,2.52.61,3.79.1,1.11.13,2.23.09,3.34-.04,1.12-.19,2.23-.35,3.34-.09.67-.38,1.31-.35,1.99.04.87.54,1.67.69,2.53.22,1.22.23,2.47.35,3.7.11,1.2.31,2.4.35,3.61.03.99-.09,1.99-.09,2.98,0,1.02.04,2.58-.1,3.13-.11.44-.65,2.03-1.2,3-.5.89-1.73,2.53-1.73,2.53"/><path id="path4052" class="cls-3" d="M138.26,78.12s-1.83-2.68-2.51-4.15c-.8-1.72-1.25-3.6-1.82-5.42-.86-2.75-1.65-5.52-2.42-8.3-.61-2.19-1.42-4.33-1.73-6.59-.26-1.88-.13-3.79-.09-5.69.04-1.87.42-3.73.35-5.6-.07-1.82-.43-3.63-.78-5.42-.3-1.52-.84-2.99-1.13-4.51-.13-.71-.16-1.45-.26-2.17-.26-1.93-.63-3.84-.87-5.78-.22-1.83-.13-3.71-.52-5.51-.32-1.5-.92-2.91-1.47-4.33-.6-1.53-1.13-3.12-1.99-4.51-.72-1.17-1.9-1.97-2.6-3.16-.52-.89-.53-2.05-1.13-2.89-.46-.65-1.13-1.15-1.82-1.53-1.52-.85-3.24-1.27-4.93-1.62-1.59-.33-3.23-.45-4.85-.45-1.88,0-3.77.19-5.63.54-1.38.26-2.74.69-4.07,1.17-1.18.43-2.37.9-3.46,1.53-1.61.94-3.16,2.03-4.5,3.34-1.8,1.75-3.42,3.75-4.67,5.96-1.06,1.87-1.52,4.05-2.34,6.05-1,2.46-2.33,4.77-3.12,7.31-.6,1.93-.72,3.99-1.21,5.96-.44,1.74-1.12,3.41-1.56,5.14-.32,1.25-.64,2.51-.78,3.79-.21,1.88.07,3.8-.09,5.69-.27,3.28-.88,6.52-1.47,9.75-.4,2.18-.91,4.34-1.39,6.5-.33,1.51-.36,3.14-1.04,4.51-.68,1.38-1.92,2.39-2.94,3.52-.86.94-2.68,2.71-2.68,2.71"/><path id="path4054" class="cls-3" d="M90.83,45.99s.23,2.08.52,3.07c.29.98.76,1.89,1.21,2.8.4.8.84,1.58,1.3,2.35.46.77,1.08,1.45,1.47,2.26.35.71.53,1.5.78,2.26.12.36.35,1.08.35,1.08"/><path id="path4056" class="cls-3" d="M105.54,69.63s1.06-.96,1.47-1.53c.4-.55.65-1.19.95-1.81.52-1.07.91-2.2,1.47-3.25.39-.72.87-1.38,1.3-2.08.41-.66,1.21-1.99,1.21-1.99"/><path id="path4058" class="cls-3" d="M97.14,63.49s.27,1.39.61,1.99c.43.75,1.11,1.31,1.73,1.9.46.43,1.47,1.17,1.47,1.17"/><path id="path4062" class="cls-3" d="M111.01,32.64c.13-.4.43-.74.73-1.02.37-.34.81-.63,1.29-.77.35-.1.73-.02,1.1,0,.45.02.92-.02,1.35.13.38.13.77.33,1.04.64.19.21.37.48.37.77,0,.17-.13.32-.24.45-.2.21-.48.33-.73.45-.31.14-.64.26-.98.32-.42.08-.86.05-1.29.06-.43.01-.86.05-1.29,0-.42-.05-.92-.02-1.22-.32-.09-.09-.1-.25-.12-.38-.02-.1-.03-.22,0-.32Z"/><path id="path4064" class="cls-5" d="M114.61,30.87c.38.29.63.76.63,1.29,0,.67-.4,1.25-.97,1.48M113.27,33.69c-.63-.2-1.09-.81-1.09-1.53,0-.46.19-.88.49-1.17"/><path id="path4067" class="cls-5" d="M114.23,31.92c0,.34-.27.62-.6.62s-.6-.28-.6-.62.27-.62.6-.62.6.28.6.62Z"/><path id="path4069" class="cls-3" d="M101.43,32.85c.02-.21-.14-.41-.26-.59-.16-.24-.37-.46-.61-.63-.14-.1-.32-.15-.48-.23-.31-.16-.58-.4-.91-.5-.24-.07-.49-.07-.74-.05-.34.04-.69.1-1,.27-.24.14-.38.42-.61.59-.15.11-.33.15-.48.27-.15.13-.31.27-.39.45-.05.11-.09.25-.04.36.06.15.26.18.39.27.24.16.48.32.74.45.22.12.45.25.69.32.36.1.75.15,1.13.14.44-.02.87-.15,1.3-.27.29-.08.62-.13.87-.32.17-.13.37-.32.39-.54h0Z"/><path id="path4071" class="cls-5" d="M97.55,33.78c-.36-.31-.58-.77-.58-1.29,0-.68.39-1.26.95-1.52M99.3,31c.52.28.88.84.88,1.49,0,.6-.31,1.13-.77,1.43"/><path id="path4074" class="cls-5" d="M99.46,32.39c0,.44-.34.8-.77.8s-.77-.36-.77-.8.34-.8.77-.8.77.36.77.8Z"/><path id="path4076" class="cls-3" d="M102.88,34.01l-.15-.79-.35-.79-.61-.83-.8-.72-1.1-.52-1.02-.14-.69.07-1.43.43-.82.38-.76.52-.58.52-.37.43"/><path id="path4078" class="cls-3" d="M94.03,33.34s.46-.24.67-.38c.16-.11.3-.24.46-.35.17-.12.34-.22.52-.32.24-.13.73-.35.73-.35"/><path id="path4080" class="cls-3" d="M110.06,32.45s.4-.5.61-.73c.21-.23.45-.44.67-.67.24-.25.42-.57.7-.77.26-.18.59-.24.89-.35.26-.09.61-.26.8-.26s.74-.05,1.1,0c.34.05.66.16.98.29.32.13.63.32.92.51.36.24.73.47,1.01.8.2.23.46.8.46.8"/><path id="path4082" class="cls-3" d="M110.74,27.76c.31.15.68-.05,1.01-.1.43-.06.86-.16,1.29-.26.47-.11.94-.24,1.41-.38.28-.09.54-.22.83-.29.36-.08.73-.09,1.1-.13.42-.05.84-.16,1.25-.13.27.02.53.11.8.19.22.06.42.22.64.22.13,0,.3-.01.37-.13.03-.06,0-.14-.03-.19-.15-.22-.46-.24-.67-.38-.17-.12-.32-.26-.49-.38-.28-.2-.55-.43-.86-.57-.27-.12-.57-.18-.86-.22-.33-.05-.67-.06-1.01-.03-.36.03-.72.13-1.07.22-.43.12-.86.27-1.29.41-.59.2-1.22.33-1.78.64-.29.17-.63.33-.8.64-.09.16-.1.37-.06.54.03.13.1.26.21.32h0Z"/><path id="path4084" class="cls-3" d="M92.04,28.87c.41.26.89-.35,1.35-.51.38-.14.76-.33,1.16-.38.32-.04.65.05.98.06.55.02,1.1,0,1.65,0h1.47c.49,0,.98,0,1.47,0,.51.01,1.04.23,1.53.06.22-.07.49-.21.55-.45.05-.2-.09-.44-.24-.57-.27-.25-.68-.27-1.04-.32-.42-.06-.86,0-1.29,0-.35,0-.69.02-1.04,0-.45-.02-.9-.06-1.35-.13-.33-.05-.65-.19-.98-.19-.5,0-.99.17-1.47.32-.36.11-.7.28-1.04.45-.31.15-.63.31-.92.51-.3.21-.72.35-.86.7-.05.14-.06.37.06.45Z"/><path id="path4086" class="cls-3" d="M107.53,43.96s.42-.38.65-.54c.18-.12.37-.23.56-.32.12-.05.24-.1.37-.11.12-.01.26-.03.37.02.07.03.16.1.17.18.02.1-.06.21-.13.27-.08.07-.2.08-.3.09-.16.02-.32.01-.48,0-.12,0-.23-.04-.35-.05-.09,0-.26,0-.26,0"/><path id="path4088" class="cls-3" d="M106.02,43.66s-.32-.15-.48-.23c-.19-.09-.37-.21-.56-.29-.15-.07-.3-.14-.45-.18-.16-.04-.33-.05-.5-.05-.13,0-.27,0-.39.05-.05.02-.11.06-.13.11-.02.05-.02.12,0,.18.03.08.1.15.17.2.11.08.26.1.39.14.15.04.3.06.45.07.2.01.41.03.61,0,.11-.02.21-.09.32-.11.06-.01.19-.02.19-.02"/><path id="path4090" class="cls-3" d="M110.19,44.09s.3-.17.41-.29c.16-.17.29-.37.37-.59.08-.21.07-.45.09-.68.01-.19.04-.38,0-.56-.06-.26-.22-.48-.35-.72-.11-.21-.23-.42-.35-.63-.08-.14-.26-.43-.26-.43"/><path id="path4092" class="cls-3" d="M102.86,44.02s-.27-.23-.37-.38c-.13-.2-.22-.44-.26-.68-.04-.26,0-.53.02-.79.01-.22,0-.44.06-.65.09-.32.26-.61.45-.88.13-.19.33-.32.48-.5.09-.11.26-.34.26-.34"/><path id="path4094" class="cls-3" d="M108.01,37.8s-.04-1.02-.04-1.53c0-.64,0-1.28,0-1.92,0-.62-.06-1.25.02-1.87.08-.56.2-1.12.43-1.62.14-.29.56-.79.56-.79"/><path id="path4096" class="cls-3" d="M104.94,37.95s.13-1.38.17-2.08c.05-.87.19-1.75.09-2.62-.06-.53-.22-1.05-.43-1.53-.18-.42-.69-1.17-.69-1.17"/><path id="path4098" class="cls-3" d="M104.33,39.35s-.3.62-.39.95c-.07.26-.06.55-.13.81-.03.11-.06.23-.13.32-.1.11-.39.23-.39.23"/><path id="path4100" class="cls-3" d="M108.74,39.26s.27.45.39.68c.11.21.21.42.3.63.09.21.23.4.26.63.01.11-.04.32-.04.32"/><path id="path4102" class="cls-3" d="M94.55,73.35s-.98.25-1.47.38c-.51.14-1.01.37-1.53.45-.79.11-1.59,0-2.39,0-.84.01-1.67.08-2.51.06-.59-.01-1.18-.1-1.78-.13-.57-.03-1.14-.06-1.71-.06-.63,0-1.27.02-1.9.06-.78.06-1.55.19-2.33.26-.81.07-1.63.11-2.45.13-.55.01-1.1.01-1.65,0-.43-.01-1.29-.06-1.29-.06"/><path id="path4104" class="cls-3" d="M90.63,63.46s-.87,1.14-1.41,1.6c-.57.48-1.29.72-1.9,1.15-.58.41-1.06.96-1.65,1.34-.85.54-1.78.92-2.69,1.34-.64.3-1.32.52-1.96.83-.94.45-1.81,1.04-2.75,1.47-1.08.49-2.19.89-3.31,1.28-.97.33-1.94.68-2.94.89-.85.18-1.71.24-2.57.32-.75.07-1.52.03-2.26.13-.7.09-1.4.25-2.08.45-.42.12-.82.28-1.22.45-.31.13-.63.27-.92.45-.3.18-.55.46-.86.64-.29.16-.62.24-.92.38-.5.25-.99.53-1.47.83-.53.33-1.06.66-1.53,1.08-.46.41-.8.95-1.22,1.4-.27.29-.57.56-.86.83-.42.39-.94.68-1.29,1.15-.34.47-.54,1.04-.73,1.6-.2.56-.3,1.14-.43,1.72-.14.63-.25,1.27-.37,1.91-.13.76-.21,1.54-.37,2.3-.17.82-.48,1.6-.61,2.43-.16.99-.13,2-.24,3-.11.98-.31,1.95-.43,2.94-.1.83-.16,1.66-.24,2.49-.1.92-.25,1.83-.31,2.74-.06.98-.06,1.96-.06,2.94,0,1.17.07,2.34.06,3.51-.01,1.06-.08,2.13-.12,3.19-.04,1.13-.08,2.25-.12,3.38-.04,1.04-.05,2.09-.12,3.13-.06.9-.13,1.79-.24,2.68-.18,1.37-.45,2.72-.67,4.08-.18,1.11-.36,2.21-.55,3.32-.21,1.24-.45,2.47-.67,3.7-.14.79-.31,1.57-.43,2.36-.19,1.25-.34,2.51-.49,3.77-.14,1.17-.27,2.34-.37,3.51-.08.91-.1,1.83-.18,2.74-.08.83-.17,1.66-.31,2.49-.17,1.03-.32,2.07-.61,3.06-.27.9-.76,1.72-1.04,2.62-.14.44-.18.9-.31,1.34-.17.63-.37,1.25-.61,1.85-.28.7-.62,1.38-.98,2.04-.45.83-1.01,1.6-1.47,2.43-.52.94-1.04,1.88-1.47,2.87-.43.97-.75,1.99-1.1,3-.38,1.1-.73,2.21-1.1,3.32-.36,1.07-.81,2.1-1.1,3.19-.31,1.19-.37,2.44-.67,3.64-.29,1.15-.76,2.25-1.1,3.38-.5,1.67-.89,3.38-1.41,5.04-.36,1.16-.8,2.29-1.16,3.45-.26.82-.43,1.68-.73,2.49-.29.77-.74,1.47-1.04,2.23-.29.73-.45,1.5-.73,2.23-.36.94-.79,1.84-1.22,2.74-.4.82-.86,1.62-1.29,2.43-.31.57-.62,1.14-.92,1.72-.38.74-.72,1.5-1.1,2.23-.37.71-.7,1.46-1.16,2.11-.28.4-.75.65-.98,1.08-.15.29-.16.64-.24.96-.08.3-.1.62-.24.89-.28.54-.8.92-1.16,1.4-.26.35-.47.74-.73,1.08-.38.49-.77.99-1.22,1.4-.49.44-1.08.74-1.59,1.15-.59.46-1.11,1.02-1.71,1.47-.64.47-1.32.9-2.02,1.28-.34.18-.7.31-1.04.48-.36.17-.71.37-1.07.54-.54.26-1.1.48-1.62.77-.28.15-.56.32-.83.51-.16.12-.33.23-.46.38-.16.2-.25.44-.37.67-.23.44-.61,1.21-.67,1.34-.06.13-.31.59-.49.86-.27.4-.61.73-.89,1.12-.17.24-.28.51-.46.73-.22.28-.46.54-.73.77-.26.22-.58.37-.86.57-.17.12-.34.24-.49.38-.2.2-.3.49-.52.67-.37.31-.86.43-1.29.64-.41.2-.82.39-1.22.61-.31.16-.63.31-.92.51-.22.15-.54.25-.61.51-.03.1.05.2.09.29.1.19.25.35.4.51.22.23.44.47.7.64.3.19.64.3.98.41.47.16.95.32,1.44.35.42.03.85-.02,1.25-.13.43-.11.83-.31,1.22-.51.37-.19.73-.4,1.07-.64.44-.31.86-.65,1.25-1.02.36-.34.66-.76,1.01-1.12.24-.24.48-.47.73-.7.23-.21.46-.42.7-.61.19-.14.38-.32.61-.38.18-.05.38-.03.55.03.16.05.31.16.43.29.14.15.2.36.31.54.12.21.25.42.37.64.14.25.43.77.43.77"/><path id="path4106" class="cls-3" d="M12.34,226.86s0,.57-.03.86c-.03.37-.07.75-.12,1.12-.03.21-.06.43-.12.64-.08.27-.22.52-.31.8-.07.22-.12.44-.15.67-.04.31-.02.62-.06.93-.04.35-.08.71-.18,1.05-.1.32-.29.61-.4.93-.14.4-.18.84-.31,1.24-.13.39-.31.76-.46,1.15-.12.3-.21.6-.34.89-.22.49-.48.96-.73,1.44-.2.37-.43.71-.61,1.08-.2.41-.36.85-.52,1.28-.16.42-.31.85-.46,1.28-.08.24-.16.49-.24.73-.12.35-.26.7-.37,1.05-.15.47-.27.96-.4,1.44-.08.32-.16.64-.24.96-.13.49-.29.98-.43,1.47-.1.36-.19.72-.28,1.08-.07.31-.19.61-.21.93-.02.29.02.58.06.86.05.39.06.8.24,1.15.07.13.2.22.31.32.1.09.2.18.31.26.14.09.29.2.46.22.15.02.32,0,.46-.06.15-.07.26-.2.37-.32.19-.2.34-.44.49-.67.19-.28.38-.55.52-.86.15-.33.21-.71.34-1.05.1-.28.25-.54.34-.83.11-.38.07-.81.21-1.18.08-.21.26-.37.37-.57.2-.39.3-.82.49-1.21.16-.32.38-.61.55-.93.18-.33.31-.69.49-1.02.17-.3.41-.55.55-.86.09-.2.12-.43.18-.64.06-.2.11-.41.18-.61.12-.32.25-.63.4-.93.14-.27.32-.52.46-.8.11-.22.2-.45.31-.67.11-.22.21-.44.34-.64.09-.15.17-.32.31-.41.11-.07.24-.09.37-.1.12-.01.26-.03.37.03.07.04.12.12.15.19.07.15.15.32.12.48-.04.2-.25.31-.37.48-.12.17-.23.36-.34.54-.14.25-.26.5-.37.77-.11.27-.17.56-.28.83-.13.32-.29.61-.43.93-.13.3-.25.61-.37.93-.11.3-.2.6-.31.89-.12.33-.29.65-.4.99-.1.31-.12.64-.21.96-.1.35-.25.68-.37,1.02-.14.41-.27.83-.4,1.24-.09.3-.16.6-.24.89-.1.33-.2.66-.31.99-.11.34-.24.67-.34,1.02-.1.38-.18.76-.24,1.15-.06.37-.12.74-.15,1.12-.03.35-.08.71-.03,1.05.04.25.11.49.24.7.13.21.32.38.52.51.21.14.46.25.7.29.18.03.38.03.55-.03.16-.06.28-.2.4-.32.19-.19.37-.4.49-.64.11-.23.13-.49.21-.73.15-.43.34-.85.49-1.28.12-.35.26-.69.34-1.05.05-.23,0-.48.06-.7.09-.34.29-.64.43-.96.15-.35.3-.7.46-1.05.14-.3.29-.59.43-.89.22-.47.41-.95.64-1.4.2-.38.44-.74.64-1.12.13-.24.28-.47.37-.73.08-.27.03-.57.12-.83.09-.27.3-.48.43-.73.09-.18.16-.36.24-.54.14-.3.31-.58.43-.89.09-.25.11-.52.21-.77.13-.29.35-.52.49-.8.08-.16.13-.35.21-.51.09-.16.15-.36.31-.45.05-.03.13-.03.18,0,.1.05.17.15.21.26.05.1.06.21.06.32,0,.2-.07.39-.12.57-.07.26-.18.51-.28.77-.08.22-.19.44-.24.67-.07.26-.07.53-.12.8-.06.29-.13.58-.21.86-.07.26-.16.51-.24.77-.08.22-.16.43-.24.64-.12.29-.28.57-.4.86-.12.3-.19.62-.31.93-.15.39-.35.76-.52,1.15-.12.26-.21.54-.34.8-.15.32-.33.61-.49.93-.17.33-.34.65-.49.99-.11.25-.21.51-.31.77-.08.23-.17.46-.21.7-.03.16-.04.32-.03.48,0,.16,0,.33.06.48.06.14.18.23.28.35.1.13.17.3.31.38.16.09.37.05.55.06.21.01.44.07.64,0,.12-.04.21-.14.31-.22.2-.19.34-.43.52-.64.15-.17.34-.31.46-.51.11-.18.12-.41.21-.61.13-.28.31-.53.46-.8.21-.39.4-.78.58-1.18.16-.36.29-.73.46-1.08.18-.39.38-.77.58-1.15.22-.41.49-.79.7-1.21.18-.35.29-.73.46-1.08.17-.34.42-.63.55-.99.12-.31.12-.67.21-.99.14-.48.36-.93.52-1.4.17-.53.34-1.05.46-1.6.05-.21.05-.43.09-.64.06-.29.07-.62.24-.86.11-.15.3-.21.46-.29.13-.06.26-.13.4-.16.12-.03.28-.12.37-.03.11.11,0,.32,0,.48.01.21.05.42.06.64,0,.28-.02.55-.03.83-.01.31-.04.62-.03.93,0,.42.09.83.09,1.24,0,.39-.07.79-.06,1.18,0,.28.1.55.06.83-.05.4-.29.76-.4,1.15-.11.42-.17.85-.24,1.28-.07.37-.16.74-.18,1.12-.02.34-.06.69.03,1.02.06.23.18.45.34.64.13.16.3.31.49.38.15.06.33.02.49.03.15.01.31.09.46.03.2-.07.36-.26.46-.45.13-.24.08-.54.15-.8.08-.31.21-.62.31-.93.14-.43.29-.87.4-1.31.09-.36.17-.72.21-1.08.05-.41.02-.83.06-1.24.04-.43.08-.86.18-1.28.12-.48.39-.92.49-1.4.09-.46.05-.94.09-1.4.04-.47.09-.94.15-1.4.05-.44.1-.88.18-1.31.1-.49.22-.96.37-1.44.14-.48.33-.93.49-1.4.14-.42.28-.85.4-1.28.18-.64.3-1.3.46-1.95.14-.6.29-1.19.43-1.79.13-.55.26-1.11.4-1.66.16-.63.37-1.24.49-1.88.1-.53.15-1.06.18-1.6.04-.66.03-1.32.03-1.98,0-.51-.07-1.02-.03-1.53.02-.27.04-.55.15-.8.07-.15.22-.24.31-.38.15-.27.21-.58.34-.86.22-.51.5-1,.73-1.5.21-.44.39-.9.61-1.34.27-.54.6-1.06.89-1.6.34-.63.65-1.28.98-1.91.42-.81.85-1.62,1.29-2.43.81-1.48,1.67-2.93,2.48-4.4.44-.79.86-1.59,1.29-2.39.5-.94.98-1.89,1.5-2.81.63-1.11,1.32-2.2,1.99-3.29.5-.82,1.03-1.63,1.53-2.46.39-.64.77-1.3,1.16-1.95.51-.84,1.05-1.66,1.53-2.52.51-.92.96-1.87,1.44-2.81.45-.87.89-1.75,1.35-2.62.53-1.01,1.1-1.99,1.62-3,.44-.85.87-1.72,1.29-2.58.48-1,.9-2.03,1.38-3.03.45-.94.97-1.84,1.41-2.78.22-.46.39-.94.61-1.4.39-.82.85-1.61,1.25-2.43.39-.77.78-1.54,1.13-2.33.32-.71.61-1.44.89-2.17.34-.9.63-1.83.95-2.74.17-.51.41-1,.52-1.53.09-.41-.07-.88.12-1.24.1-.19.38-.2.49-.38.1-.17.06-.38.09-.57.03-.15.04-.3.09-.45.08-.25.25-.46.34-.7.17-.47.26-.97.37-1.47.13-.6.2-1.21.31-1.82.14-.79.29-1.57.43-2.36.15-.84.31-1.68.46-2.52.18-1.01.37-2.02.52-3.03.1-.69.15-1.39.28-2.07.07-.41.28-1.21.28-1.21"/><path id="path4108" class="cls-3" d="M62.17,161.45s-.04-1.05.03-1.56c.07-.49.22-.97.4-1.44.19-.51.5-.96.7-1.47.19-.47.46-1.44.46-1.44"/><path id="path4110" class="cls-3" d="M60.76,99.07s.14,1.11.24,1.66c.13.67.24,1.35.49,1.98.23.59.61,1.1.92,1.66.35.64.72,1.26,1.04,1.91.29.58.55,1.18.8,1.79.22.55.51,1.08.61,1.66.1.54,0,1.11,0,1.66s.05,1.07,0,1.6c-.08.93-.39,1.82-.49,2.74-.07.72-.09,1.45-.06,2.17.02.58.06,1.16.18,1.72.11.53.39,1,.49,1.53.11.54.11,1.1.12,1.66.01.87-.12,1.74-.12,2.62,0,.68.04,1.36.06,2.04.02.91.05,1.83.06,2.74,0,.68,0,1.36,0,2.04s-.02,1.36,0,2.04c.02.85.04,1.7.12,2.55.1,1.05.28,2.09.43,3.13.1.7.15,1.42.31,2.11.17.72.46,1.4.67,2.11.3.97.55,1.96.86,2.94.33,1.05.73,2.07,1.04,3.13.38,1.3.7,2.63.98,3.96.17.82.36,1.65.43,2.49.08.89.06,1.79,0,2.68-.03.49-.11.97-.19,1.45-.13.8-.26,1.61-.48,2.39-.19.68-.46,1.34-.74,1.99-.32.76-.71,1.48-1.08,2.21-.38.76-.78,1.5-1.17,2.26-.36.71-.75,1.4-1.08,2.12-.32.69-.57,1.42-.87,2.12-.33.79-.73,1.55-1.04,2.35-.3.8-.5,1.63-.78,2.44-.23.68-.52,1.34-.74,2.03-.15.47-.27.96-.39,1.44-.13.52-.22,1.05-.35,1.58-.12.53-.2,1.07-.39,1.58-.28.73-.76,1.37-1.08,2.08-.42.91-.76,1.86-1.13,2.8-.25.63-.51,1.26-.74,1.9-.33.95-.65,1.91-.91,2.89-.24.88-.45,1.77-.61,2.66-.12.67-.2,1.35-.26,2.03-.05.57-.06,1.14-.09,1.71-.03.75-.04,1.51-.09,2.26-.04.63-.11,1.26-.17,1.9-.05.53-.12,1.05-.17,1.58-.08.84-.11,1.69-.22,2.53-.1.77-.25,1.54-.39,2.3-.22,1.19-.49,2.37-.69,3.56-.2,1.15-.36,2.31-.52,3.47-.14.98-.27,1.95-.39,2.93-.11.95-.2,1.9-.3,2.84-.12,1.13-.21,2.26-.35,3.38-.1.8-.25,1.59-.35,2.39-.11.86-.21,1.71-.26,2.57-.06,1.04-.03,2.08-.04,3.11-.01.9-.09,1.81-.04,2.71.05.95.19,1.9.35,2.84.16.99.42,1.95.61,2.93.18.94.28,1.9.48,2.84.21,1.02.47,2.02.74,3.02.26.98.55,1.96.82,2.93.31,1.11.64,2.22.95,3.34.29,1.05.59,2.1.87,3.16.34,1.31.64,2.62,1,3.93.24.88.53,1.74.78,2.62.33,1.14.67,2.28.95,3.43.3,1.22.54,2.46.78,3.7.23,1.2.4,2.41.65,3.61.27,1.33.6,2.65.91,3.97.18.78.4,1.56.56,2.35.25,1.24.4,2.5.61,3.75.21,1.23.45,2.46.65,3.7.22,1.35.36,2.72.61,4.06.26,1.42.73,2.8.91,4.24.1.82.05,1.65.09,2.48.04.9.12,1.8.13,2.71.01,1.05-.09,2.11-.09,3.16,0,.9.08,1.8.09,2.71,0,.89-.1,1.78-.04,2.66.05.82.27,1.62.35,2.44.08.87.11,1.74.13,2.62.01.41.03.81,0,1.22-.04.47-.15.93-.22,1.4-.12.87-.26,1.74-.35,2.62-.1.98-.13,1.96-.22,2.93-.1,1.03-.23,2.05-.35,3.07-.11.96-.22,1.93-.35,2.89-.11.81-.24,1.62-.35,2.44-.15,1.17-.25,2.35-.39,3.52-.11.9-.28,1.8-.35,2.71-.08.97-.08,1.95-.09,2.93,0,.96.01,1.93.04,2.89.03.87.07,1.75.13,2.62.06.92.14,1.84.22,2.75.1,1.16.15,2.32.3,3.47.14,1.03.4,2.04.56,3.07.24,1.5.41,3.01.61,4.51.13.98.28,1.95.39,2.93.19,1.61.26,3.23.48,4.83.15,1.13.34,2.26.56,3.38.16.83.33,1.67.56,2.48.22.75.56,1.46.78,2.21.33,1.14.46,2.33.78,3.47.29,1.06.68,2.08,1.04,3.11.43,1.24.86,2.48,1.34,3.7.26.65.59,1.28.82,1.94.37,1.03.64,2.1.91,3.16.31,1.21.62,2.42.82,3.66.17,1.03.23,2.08.35,3.11.22,2.06.65,6.18.65,6.18"/><path id="path4112" class="cls-3" d="M73.9,402.79s-.18,1.77-.22,2.48c-.04.72.01,1.45-.04,2.17-.05.65-.15,1.3-.26,1.94-.07.44-.21.87-.26,1.31-.04.37-.02.75-.04,1.13-.02.38-.07.75-.09,1.13-.04.74.03,1.48-.04,2.21-.03.3-.17.9-.17.9"/><path id="path4114" class="cls-3" d="M76.15,411.23s-.31.92-.52,1.35c-.22.47-.46.94-.78,1.35-.32.42-.75.76-1.13,1.13-.31.31-.66.57-.95.9-.31.35-.55.75-.82,1.13-.36.51-.77.99-1.08,1.53-.28.5-.42,1.07-.69,1.58-.25.47-.56.92-.87,1.35-.32.45-.63.93-1.04,1.31-.58.53-1.31.85-1.95,1.31-.63.45-1.26.91-1.86,1.4-.7.57-1.31,1.27-2.03,1.81-.65.48-1.39.84-2.08,1.26-.43.27-.84.6-1.3.81-.3.14-.63.22-.95.32-.17.05-.37.04-.52.14-.23.15-.37.4-.52.63-.15.23-.28.47-.39.72-.11.27-.21.56-.26.86-.06.37-.05.75-.04,1.13,0,.23.03.45.04.68.01.17-.05.36.04.5.06.09.3.14.3.14"/><path id="path4116" class="cls-3" d="M60.35,429.96s-.33.28-.52.36c-.26.11-.56.07-.82.18-.2.09-.39.22-.56.36-.26.21-.49.46-.69.72-.18.24-.33.5-.48.77-.18.32-.39.63-.48.99-.08.35,0,.72,0,1.08,0,.29-.06.57-.04.86.01.3.04.61.13.9.08.26.16.53.35.72.15.15.36.23.56.27.2.04.61-.05.61-.05"/><path id="path4118" class="cls-3" d="M62.17,431.54s-.19.34-.3.5c-.15.2-.35.36-.52.54-.13.14-.27.26-.39.41-.26.3-.49.64-.74.95-.17.21-.35.41-.52.63-.2.26-.38.54-.56.81s-.41.52-.56.81c-.1.18-.2.38-.22.59-.02.21.06.43.13.63.07.19.16.39.3.54.21.23.49.41.78.5.18.05.38,0,.56,0h1.04"/><path id="path4120" class="cls-3" d="M64.68,432.8s-.14.41-.26.59c-.14.22-.35.39-.52.59-.17.2-.35.38-.52.59-.23.28-.43.58-.65.86-.2.25-.36.53-.61.72-.15.12-.37.14-.52.27-.21.19-.36.45-.48.72-.08.18-.13.39-.13.59,0,.26.03.55.17.77.18.26.5.36.78.5.25.12.51.21.78.27.34.08.69.12,1.04.14.3.01.62.04.91-.05.3-.08.57-.27.82-.45.22-.16.41-.35.61-.54.12-.12.24-.23.35-.36.13-.16.35-.5.35-.5"/><path id="path4122" class="cls-3" d="M70.09,432.93s-.28.34-.35.54c-.07.2.03.44-.04.63-.06.15-.18.27-.3.36-.2.16-.47.19-.69.32-.32.18-.6.44-.91.63-.21.13-.48.18-.65.36-.24.25-.41.6-.48.95-.06.31.06.63.09.95.02.26-.02.52.04.77.1.36.25.74.52.99.3.28.73.35,1.13.45.51.13,1.04.16,1.56.18.53.02,1.07.02,1.6-.05.51-.07,1.02-.19,1.51-.36.4-.14.83-.28,1.17-.54.25-.19.42-.47.61-.72.18-.24.31-.52.48-.77.18-.26.36-.52.56-.77.19-.22.61-.63.61-.63"/><path id="path4124" class="cls-3" d="M75.33,437.72s.7-.17,1.04-.27c.48-.15.99-.25,1.43-.5.35-.2.69-.45.95-.77.26-.31.43-.71.61-1.08.17-.38.36-.76.43-1.17.07-.37-.03-.75,0-1.13.02-.32,0-.66.13-.95.16-.35.52-.55.74-.86.22-.31.38-.66.56-.99.09-.16.14-.35.26-.5.19-.24.47-.39.69-.59.26-.23.78-.72.78-.72"/><path id="path4126" class="cls-3" d="M81.35,429.73s.93-.18,1.39-.32c.52-.16,1.02-.37,1.51-.59.56-.25,1.16-.43,1.64-.81.41-.32.73-.76,1-1.22.22-.39.39-.82.48-1.26.08-.43.06-.87.04-1.31-.02-.56-.17-1.49-.17-1.67s-.02-.99-.04-1.49c-.03-.63-.12-1.26-.13-1.9,0-.36.04-1.08.04-1.08"/><path id="path4138" class="cls-3" d="M91.08,301.39s-.15,1.03-.26,1.53c-.19.88-.34,1.79-.69,2.62-.35.82-.93,1.5-1.39,2.26-.38.63-.96,1.17-1.13,1.9-.15.65.13,1.32.17,1.99.05.87.1,1.74.09,2.62-.02.78-.07,1.57-.17,2.35-.12.88-.22,1.78-.52,2.62-.27.74-.7,1.41-1.13,2.08-.36.57-1.21,1.62-1.21,1.62"/><path id="path4140" class="cls-3" d="M68.14,299.59c0,.81.05,2.71.17,4.06.11,1.3.36,2.59.52,3.88.15,1.2.31,2.4.43,3.61.1.96.2,1.92.26,2.89.06.96.06,1.93.09,2.89.03,1.17-.1,2.36.09,3.52.21,1.28.59,2.53,1.13,3.7.27.59,1.04,1.62,1.04,1.62"/><path id="path4142" class="cls-3" d="M67.71,119.54s-.12,1.18.09,1.71c.26.69.88,1.19,1.39,1.71.48.5.97,1,1.56,1.35.51.3,1.09.44,1.64.63.69.24,1.36.53,2.08.63.94.14,1.92.15,2.86,0,.84-.14,1.63-.49,2.42-.81,1.51-.6,2.98-1.3,4.41-2.08.95-.52,1.83-1.18,2.77-1.71.96-.55,2.94-1.53,2.94-1.53"/><path id="path4144" class="cls-2" d="M79.35,109.16c.78.88-.04,2.99-1.83,4.71s-3.87,2.4-4.65,1.52.04-2.99,1.83-4.71,3.87-2.4,4.65-1.52Z"/><path id="path4146" class="cls-1" d="M76.76,111.7c.37.46.12,1.31-.56,1.89s-1.52.69-1.89.24-.12-1.31.56-1.89,1.52-.69,1.89-.24Z"/><path id="path4461" class="cls-3" d="M100.12,50s.42-.07.61,0c.26.09.41.41.67.51.4.16.86.12,1.29.13.47.01.95.02,1.41-.06.34-.06.64-.27.98-.32.51-.07,1.02.02,1.53.06.57.05,1.14.23,1.71.26.37.02.73-.08,1.1-.06.5.03,1.22.32,1.47.26s.66,0,.98-.06c.17-.04.49-.19.49-.19"/><path id="path4463" class="cls-3" d="M101.77,50.83s.75.36,1.1.57c.47.29.86.71,1.35.96.52.26,1.08.42,1.65.51.59.09,1.19.06,1.78,0,.52-.05,1.03-.16,1.53-.32.49-.16.96-.38,1.41-.64.32-.18.63-.41.92-.64.17-.14.49-.45.49-.45"/><path id="path4465" class="cls-3" d="M102.02,49.61s1-.02,1.47-.19c.36-.13.63-.47.98-.64.31-.15.64-.27.98-.32.26-.04.53-.05.8,0,.24.04.44.22.67.26.24.03.5,0,.73-.06.24-.06.43-.29.67-.32.29-.03.58.09.86.19.39.14.73.38,1.1.57.29.15.58.29.86.45.25.14.73.45.73.45"/><path id="path3877" class="cls-3" d="M107.59,222.65s3.23-4.79,4.83-7.19c2.09-3.14,4.25-6.24,6.21-9.47,1.83-3.01,5.17-9.23,5.17-9.23"/><path id="path3879" class="cls-3" d="M90.46,223.37s-1.92-5.54-2.99-8.27c-1.26-3.23-2.74-6.61-4.48-9.59-1.68-2.86-5.63-7.79-5.63-7.79"/><path id="path4026" class="cls-3" d="M168.27,201.55l4.43,6.75"/><path id="path4028" class="cls-3" d="M175.5,217.53s.94,2.82,1.84,3.94c.97,1.22,2.34,2.05,3.67,2.81.88.5,2.81,1.13,2.81,1.13"/><path id="path4030" class="cls-3" d="M25.09,211.68l5.51-8.67"/><path id="path4032" class="cls-3" d="M22.71,218.54s-.14,2.17-.54,3.15c-.36.89-.99,1.65-1.62,2.36-.99,1.11-2.11,2.13-3.35,2.93-.47.3-1.51.68-1.51.68"/><path class="cls-3" d="M86.28,420.48s.28-.91.43-1.35c.12-.35.3-.68.39-1.04.08-.34.09-.69.13-1.04.04-.35.03-.69.09-1.04.07-.46.16-.92.3-1.35.07-.2.22-.38.26-.59.06-.26,0-.54,0-.81,0-.26-.13-.54,0-.77s.18-.85.3-1.26c.12-.43.32-.83.43-1.26.1-.35.21-.71.22-1.08,0-.38-.07-.76-.17-1.13-.12-.44-.34-.84-.52-1.26-.22-.53-.5-1.04-.69-1.58-.16-.46-.25-.94-.39-1.4-.16-.53-.42-1.03-.52-1.58-.09-.53-.05-1.08-.04-1.62,0-1.07.1-2.14.13-3.2.03-1.08.03-2.17.04-3.25.01-.98.02-1.96.04-2.93.02-1.11.03-2.23.09-3.34.06-1.25.14-2.5.26-3.75.13-1.34.39-2.67.52-4.02.11-1.15.11-2.32.22-3.47.11-1.27.27-2.53.43-3.79.16-1.21.32-2.41.52-3.61.22-1.31.52-2.61.74-3.93.18-1.06.43-3.02.48-3.2.04-.18.43-2.22.56-3.34.11-.93.19-1.86.22-2.8.02-.78,0-1.57-.04-2.35-.05-1.01-.16-2.02-.26-3.02-.14-1.43-.3-2.86-.48-4.29-.19-1.55-.4-3.1-.61-4.65-.18-1.38-.39-2.77-.56-4.15-.06-.53-.12-1.05-.17-1.58-.1-1.02-.24-2.04-.26-3.07-.01-.6.04-1.62.09-1.81.04-.18.28-2.05.48-3.07.17-.91.39-1.81.61-2.71.23-.97.49-1.93.74-2.89.22-.84.38-1.7.65-2.53.33-1,.81-1.94,1.17-2.93.3-.83.58-1.67.82-2.53.2-.7.38-1.41.52-2.12.14-.7.24-1.41.3-2.12.07-.73.06-1.47.09-2.21.04-.96.12-1.92.13-2.89.01-.87-.05-1.74-.04-2.62,0-.87.05-1.74.09-2.62.04-1.04.13-2.07.13-3.11,0-1.16-.08-2.32-.13-3.47-.04-1.07-.09-2.14-.13-3.2-.04-1.16-.08-2.32-.09-3.47,0-.92.04-2.53.04-2.75s.08-1.59.13-2.39c.07-1.2.14-2.41.22-3.61.05-.8.14-1.59.17-2.39.03-.81,0-1.62,0-2.44,0-1.04,0-2.08,0-3.11,0-1.32,0-2.65.04-3.97.03-.92.1-1.84.17-2.75.07-.92.17-1.84.26-2.75.13-1.31.28-2.62.43-3.93.13-1.11.27-2.22.39-3.34.11-1.05.19-2.11.3-3.16.09-.83.27-1.65.3-2.48.03-.8,0-1.6-.09-2.39-.08-.76-.2-1.52-.39-2.26-.2-.8-.56-1.55-.78-2.35-.22-.82-.38-1.65-.52-2.48-.07-.42-.16-.84-.17-1.26,0-.24.04-.72.04-.72l-2.16-2.23"/><path class="cls-3" d="M94.33,235.74c2.27,1.08,4.45,1.07,6.52-.03"/></svg>