<?xml version="1.0" encoding="UTF-8"?><svg id="svg3191" xmlns="http://www.w3.org/2000/svg" viewBox="0 0 437.29 441.6"><defs><style>.cls-1{stroke-miterlimit:4;stroke-width:1px;}.cls-1,.cls-2,.cls-3,.cls-4{stroke-linecap:round;}.cls-1,.cls-2,.cls-3,.cls-4,.cls-5{fill:none;stroke:#00bec2;}.cls-1,.cls-2,.cls-4{isolation:isolate;opacity:.99;}.cls-2{stroke-miterlimit:4;stroke-width:1px;}</style></defs><g id="layer1"><g id="g5815"><path id="path3191" class="cls-3" d="M352.8,237.2s-.05,1.16-.07,1.74c-.06,2.29-.09,4.58-.07,6.88.02,2.18.05,4.36.21,6.53.21,2.84.62,5.65.97,8.47.36,2.85.77,5.7,1.18,8.54.35,2.41.79,4.81,1.11,7.22.35,2.59.69,5.18.9,7.78.17,2.08.2,4.17.28,6.25.11,3.08.31,6.16.28,9.24-.03,2.83-.21,5.65-.42,8.47-.12,1.67-.44,3.33-.49,5-.04,1.48.01,2.97.21,4.45.14,1.06.39,2.1.69,3.13.58,1.94,1.38,3.82,2.15,5.7.71,1.73,1.52,3.43,2.29,5.14.66,1.46,1.48,2.86,2.01,4.38.34.97.64,1.97.76,2.99.13,1.03.04,2.08,0,3.13-.06,1.69-.22,3.38-.35,5.07-.13,1.78-.22,3.57-.42,5.35-.13,1.14-.4,2.26-.49,3.4-.08,1.11-.09,2.23,0,3.33.08,1.01.33,1.99.49,2.99.15.95.21,1.91.42,2.85.35,1.6.93,3.15,1.39,4.72.44,1.5.91,3,1.32,4.51.38,1.4.74,2.81,1.04,4.24.33,1.56.54,3.15.83,4.72.46,2.5,1.05,4.99,1.46,7.5.29,1.75.44,3.52.69,5.28.13.86.37,1.7.42,2.57.03.46-.02.93-.07,1.39-.09.86-.26,1.72-.42,2.57-.17.95-.35,1.9-.56,2.85-.21.93-.41,1.87-.69,2.78-.19.61-.43,1.22-.69,1.81-.25.57-.58,1.1-.83,1.67-.26.59-.53,1.18-.69,1.81-.12.48-.21.97-.21,1.46,0,.56.15,1.12.28,1.67.09.4.24.79.35,1.18.15.53.39,1.05.42,1.6.02.47-.22.92-.21,1.39.02.57.29,1.1.35,1.67.06.6.02,1.2,0,1.81-.01.28-.07.55-.07.83,0,.39.06.79.07,1.18.01.35-.06.7,0,1.04.06.36.22.7.35,1.04.13.35.28.7.42,1.04.23.56.52,1.09.69,1.67.17.56.35,1.74.35,1.74"/><path id="path3961" class="cls-3" d="M373.56,409.66s.36,3.98.42,5.97c.04,1.41,0,2.83-.07,4.24-.06,1.23-.02,2.48-.28,3.68-.24,1.11-.77,2.14-1.18,3.19-.31.81-.69,1.6-.97,2.43-.25.73-.43,1.48-.63,2.22-.17.67-.35,1.34-.49,2.01-.19.92-.4,1.84-.49,2.78-.03.39-.09.8,0,1.18.11.43.39.8.63,1.18.19.29.36.61.63.83.48.4,1.07.65,1.67.83,1.21.38,2.49.48,3.75.56,1.34.08,2.7.08,4.03-.14,1-.17,2-.45,2.92-.9.69-.34,1.37-.74,1.88-1.32.4-.45.65-1.03.83-1.6.09-.29,0-.63.14-.9.12-.25.32-.47.56-.63.24-.16.56-.16.83-.28.58-.25,1.14-.56,1.67-.9.83-.54,1.56-1.22,2.36-1.81.32-.24.7-.4.97-.69.3-.32.56-.69.69-1.11.14-.44.12-.93.07-1.39-.06-.55-.22-1.08-.42-1.6-.15-.39-.36-.75-.56-1.11-.18-.33-.31-.69-.56-.97-.29-.32-.64-.61-1.04-.76-.22-.08-.46-.04-.69-.07-.23-.03-.46-.15-.69-.14-.15,0-.42.14-.42.14"/><path id="path3963" class="cls-3" d="M389.26,424.38s-.33-.43-.56-.56c-.33-.19-.73-.23-1.11-.28-.39-.05-1.18,0-1.18,0"/><path id="path3965" class="cls-3" d="M377.73,414.66s-.33,2.08-.35,3.13c-.02,1.46.19,2.92.35,4.38.16,1.46.27,2.95.63,4.38.26,1.07,1.11,3.13,1.11,3.13"/><path id="path3967" class="cls-3" d="M388.22,424.38s-1.26-.61-1.81-1.04c-.37-.3-.97-1.04-.97-1.04"/><path id="path3969" class="cls-3" d="M384.4,424.8s.71-1.46.97-2.22c.21-.61.41-1.23.49-1.88.08-.74.03-1.49-.07-2.22-.12-.9-.39-1.77-.63-2.64-.17-.61-.42-1.19-.56-1.81-.12-.57-.15-1.16-.21-1.74-.08-.74-.21-1.48-.21-2.22,0-1.37.23-2.74.42-4.1.19-1.4.46-2.78.69-4.17.23-1.32.42-2.65.69-3.96.34-1.59.81-3.14,1.18-4.72.47-1.98.91-3.97,1.32-5.97.53-2.61,1.01-5.23,1.46-7.85.36-2.1.58-4.23.97-6.32.34-1.79.83-3.56,1.18-5.35.37-1.94.78-3.87.97-5.83.2-2.05.22-4.12.21-6.18,0-1.62-.08-3.24-.21-4.86-.1-1.23-.25-2.46-.42-3.68-.26-1.97-.53-3.95-.9-5.9-.41-2.1-1.03-4.15-1.46-6.25-.4-1.96-.59-3.96-1.04-5.9-.26-1.13-.72-2.2-.97-3.33-.22-.98-.4-1.98-.49-2.99-.1-1.2-.04-2.41,0-3.61.05-1.3.25-2.59.28-3.89.03-1.53-.1-3.06-.14-4.58-.03-1.06-.04-2.13-.07-3.19-.04-1.55-.12-3.1-.14-4.65-.02-2.41,0-4.82.07-7.22.04-1.44.15-2.87.21-4.31.14-3.4.32-6.8.35-10.21,0-1.23-.07-3.68-.07-3.68"/><path id="path3971" class="cls-3" d="M368.49,306.72s-.08,5.84,0,8.75c.06,2.11.13,4.22.35,6.32.19,1.89.83,5.63.83,5.63"/><path id="path3973" class="cls-3" d="M382.52,312.21l1.81,7.08"/><path id="path3975" class="cls-3" d="M388.01,291.79s1.05-6.62,1.6-9.93c.54-3.29,1.21-6.56,1.67-9.86.48-3.46.79-6.94,1.11-10.42.27-2.91.52-5.83.69-8.75.2-3.24.36-6.48.42-9.72.05-2.71.07-5.42-.07-8.13-.16-3.2-.59-6.39-.9-9.58-.26-2.66-.56-5.32-.83-7.99-.16-1.55-.38-3.1-.49-4.65-.14-2.06-.09-4.12-.21-6.18-.08-1.35-.13-2.7-.35-4.03-.21-1.25-.6-2.45-.9-3.68-.46-1.9-.91-3.8-1.39-5.7-.29-1.14-.66-2.26-.9-3.4-.12-.57-.21-1.15-.28-1.74-.07-.65-.14-1.67-.14-1.94s-.38-1.25-.56-1.88c-.19-.67-.46-1.32-.56-2.01-.12-.92.01-1.85,0-2.78-.01-1-.01-1.99-.07-2.99-.09-1.6-.23-3.2-.42-4.79-.11-.93-.27-1.85-.42-2.78-.24-1.46-.52-2.91-.76-4.38-.27-1.62-.57-3.23-.76-4.86-.2-1.68-.33-3.38-.42-5.07-.06-1.06-.13-2.13-.07-3.19.08-1.31.44-2.59.56-3.89.11-1.22.06-2.46.14-3.68.13-2,.45-3.98.56-5.97.07-1.32-.02-2.64.07-3.96.16-2.26.56-4.49.83-6.74.21-1.71.4-3.43.63-5.14.4-3.01.68-6.06,1.32-9.03.25-1.15.62-2.28.97-3.4.24-.77.49-1.53.76-2.29.24-.68.57-1.32.76-2.01.25-.91.39-1.84.49-2.78.07-.69-.04-1.4.07-2.08.12-.74.63-2.15.63-2.15"/><path id="path3977" class="cls-3" d="M384.89,128.22s.42,2.97.69,4.45c.48,2.63,1.18,5.22,1.67,7.85.36,1.94.44,3.92.9,5.83.16.64.43,1.24.63,1.88.33,1.08.69,2.16.9,3.26.23,1.21.37,2.45.42,3.68.03.76,0,1.53-.07,2.29-.07.79-.3,1.57-.35,2.36-.04.74,0,1.49.07,2.22.07.68.24,1.34.35,2.01.07.46.17.92.21,1.39.04.51-.07,1.02,0,1.53.14.96.53,1.86.83,2.78.26.77.42,1.59.83,2.29.45.75,1.19,1.26,1.74,1.94"/><path id="path3979" class="cls-3" d="M391.55,171.5s.32,1.34.49,2.01c.18.76.36,1.53.56,2.29.22.86.38,1.74.69,2.57.52,1.35,1.37,2.56,1.94,3.89.43,1,.74,2.04,1.11,3.06.5,1.37,1.01,2.74,1.53,4.1.68,1.77,1.43,3.5,2.08,5.28.9,2.45,1.72,4.94,2.5,7.43.55,1.75,1.06,3.51,1.53,5.28.2.76.34,1.54.56,2.29.42,1.48.88,2.95,1.46,4.38.48,1.19,1.19,2.28,1.67,3.47.44,1.11.97,3.06,1.11,3.4.14.35.24.92.28,1.39.04.53-.04,1.07-.07,1.6-.07,1.18-.25,2.36-.28,3.54-.02.81,0,1.62.07,2.43.07.79.18,1.58.35,2.36.19.87.52,1.71.76,2.57.31,1.09.61,2.17.9,3.26.21.79.44,1.57.63,2.36.11.46.23.92.28,1.39.04.44.01.88,0,1.32-.01.51-.02,1.02-.07,1.53-.04.41-.13.81-.17,1.22-.05.47-.03.95-.07,1.42-.04.48-.1.95-.17,1.42-.06.4-.16.78-.21,1.18-.02.22-.03.44-.03.66,0,.21-.02.42,0,.63.03.43.14.86.21,1.28.07.41.03.85.21,1.22.13.27.34.5.59.66.21.13.48.21.73.21.23,0,.46-.06.66-.17.21-.12.4-.31.52-.52.18-.3.22-.66.28-1.01.07-.41.05-.84.1-1.25.05-.41.15-.81.21-1.22.05-.37.12-.74.14-1.11.02-.34.03-.74.07-1.08.04-.27.05-.47.14-.73.11-.33.27-.65.42-.97.12-.26.3-.49.38-.76.06-.21.06-.44.07-.66.02-.29-.04-.58,0-.87,0-.05,0-.11.03-.14.16-.12.41-.05.59.03.19.09.37.25.45.45.05.12,0,.25,0,.38-.02.3-.07.6-.1.9-.04.37-.12.74-.14,1.11-.02.36-.03.72,0,1.08.04.43.17.85.24,1.28.08.48.15.97.21,1.46.08.67.15,1.34.21,2.01.04.45.02.91.1,1.35.05.28.18.55.24.83.06.29.1.58.14.87.04.35,0,.71.1,1.04.09.28.25.54.45.76.19.22.43.4.69.52.17.08.37.12.56.14.28.03.57.05.83-.03.17-.06.31-.2.45-.31.18-.15.41-.27.52-.49.09-.18.06-.39.07-.59.02-.38.03-.77,0-1.15-.02-.28-.11-.55-.14-.83-.04-.38-.05-.76-.07-1.15-.02-.35,0-.7-.07-1.04-.04-.23-.16-.43-.21-.66-.05-.27-.05-.56-.07-.83-.03-.34-.07-.67-.07-1.01s.04-.67.07-1.01c.03-.37.1-.74.1-1.11,0-.26-.04-.51-.07-.76-.03-.26-.1-.51-.14-.76-.05-.36-.02-.72-.1-1.08-.03-.13-.12-.25-.14-.38,0-.08-.03-.19.03-.24.12-.11.33-.02.49,0,.16.02.35.01.49.1.16.11.26.3.31.49.05.16,0,.32,0,.49,0,.29.03.58.03.87,0,.27-.02.53,0,.8.02.26.08.51.14.76.08.34.19.68.31,1.01.13.33.34.63.45.97.13.38.14.79.24,1.18.12.44.35.84.45,1.28.11.5.12,1.02.17,1.53.05.49.09.97.14,1.46.04.38.08.77.14,1.15.05.29.11.58.17.87.05.24.04.52.17.73.17.26.44.47.73.59.31.13.67.16,1.01.1.29-.05.56-.2.8-.38.18-.14.32-.33.45-.52.16-.22.33-.44.42-.69.1-.3.09-.62.1-.94.03-.6,0-1.2,0-1.81,0-.47.08-.96,0-1.42-.06-.35-.26-.66-.35-1.01-.13-.52-.18-1.07-.28-1.6-.06-.3-.21-.76-.17-.9.03-.14-.01-.72-.07-1.08-.04-.27-.14-.53-.21-.8-.08-.31-.09-.64-.21-.94-.08-.21-.27-.37-.35-.59-.08-.24-.04-.51-.1-.76-.07-.31-.24-.59-.31-.9-.04-.16-.05-.32-.07-.49-.02-.15-.12-.33-.03-.45.04-.06.14-.06.21-.07.09-.01.19-.04.28,0,.13.06.22.19.28.31.1.2.1.44.14.66.03.22.02.44.07.66.05.23.17.44.24.66.08.26.12.54.21.8.09.27.24.53.35.8.12.3.24.6.35.9.14.39.28.78.38,1.18.14.55.21,1.11.31,1.67.1.57.17,1.14.28,1.7.07.36.14.72.24,1.08.1.35.21.71.38,1.04.11.21.27.4.42.59.13.16.25.34.42.45.18.13.41.2.63.24.24.05.49.09.73.03.17-.04.32-.14.45-.24.14-.11.23-.26.35-.38.14-.15.36-.23.45-.42.08-.16.05-.35.07-.52.05-.46.09-.92.1-1.39.01-.46-.03-.93-.03-1.39,0-.28.07-.56,0-.83-.05-.21-.24-.36-.31-.56-.11-.29-.17-.6-.21-.9-.03-.22,0-.44-.03-.66-.05-.25-.2-.48-.24-.73-.07-.4.01-.81-.03-1.22-.03-.3-.08-.61-.17-.9-.07-.21-.2-.39-.28-.59-.14-.4-.18-.84-.31-1.25-.12-.37-.31-.71-.42-1.08-.13-.44-.14-.91-.28-1.35-.08-.25-.25-.47-.31-.73-.06-.25-.05-.51-.03-.76,0-.18.03-.35.07-.52.05-.25.16-.48.21-.73.06-.31.11-.62.1-.94,0-.21-.08-.41-.1-.63-.04-.38,0-.77-.03-1.15-.02-.23-.09-.46-.1-.69-.01-.22,0-.44.03-.66.03-.16.08-.3.14-.45.12-.33.34-.63.42-.97.07-.29,0-.6.03-.9.03-.3.14-.6.14-.9,0-.2-.1-.59-.1-.59"/><path id="path3993" class="cls-3" d="M412.01,253.73c.24,0,.49,0,.73,0,.21,0,.46.16.63.03.09-.07.05-.23.07-.35.05-.25.12-.51.14-.76.01-.21.02-.42-.03-.63-.05-.18-.15-.35-.28-.49-.11-.11-.27-.18-.42-.24-.12-.05-.25-.11-.38-.1-.11,0-.22.05-.31.1-.13.07-.24.17-.35.28-.08.07-.16.15-.21.24-.07.13-.09.27-.1.42-.01.13.02.25.03.38.02.24.04.49.07.73.02.13-.03.3.07.38.09.07.23,0,.35,0h0Z"/><path id="path3995" class="cls-3" d="M418.57,256.96c.19.16.49.06.73.07.28.01.56.03.83,0,.21-.02.49.02.63-.14.12-.14.04-.37.03-.56-.01-.29-.04-.59-.14-.87-.05-.15-.14-.29-.24-.42-.13-.15-.28-.28-.45-.38-.13-.08-.27-.15-.42-.17-.17-.03-.36-.03-.52.03-.21.08-.39.24-.52.42-.1.13-.15.29-.17.45-.04.25,0,.51.03.76.04.27,0,.62.21.8h0Z"/><path id="path3997" class="cls-3" d="M424.41,257.86c.14.14.39.06.59.07.43.02.86.02,1.28-.03.28-.04.66.02.83-.21.19-.25.03-.63-.03-.94-.07-.32-.2-.63-.38-.9-.06-.1-.14-.19-.24-.24-.21-.12-.46-.19-.69-.17-.14,0-.26.08-.38.14-.13.06-.26.12-.38.21-.13.09-.25.19-.35.31-.09.1-.16.22-.21.35-.06.15-.09.32-.1.49-.02.31-.15.71.07.94h0Z"/><path id="path3999" class="cls-3" d="M430.03,255.4c.15.12.37.11.56.14.23.03.46.05.69.03.21-.01.43-.03.63-.1.19-.07.43-.13.52-.31.1-.2-.02-.44-.07-.66-.05-.21-.09-.44-.21-.63-.08-.13-.19-.23-.31-.31-.13-.09-.27-.17-.42-.21-.14-.03-.28-.01-.42,0-.19.02-.37.05-.56.1-.12.03-.24.08-.35.14-.13.07-.28.13-.38.24-.07.09-.13.2-.14.31-.02.16.05.33.1.49.09.27.13.58.35.76Z"/><path id="path4001" class="cls-3" d="M430.53,239.19s.09.72.15,1.08c.07.49.16.98.25,1.47.08.41.1.84.25,1.23.17.45.42.87.74,1.23.36.41.84.71,1.28,1.03.33.24.67.49,1.03.69.34.18.7.38,1.08.44.21.03.43,0,.64-.05.14-.03.29-.06.39-.15.1-.09.08-.07.16-.17.07-.09.24-.31.28-.42.04-.11.03-.23,0-.34-.03-.13-.13-.23-.2-.34-.39-.63-1.01-1.15-1.23-1.87-.03-.09,0-.2,0-.29,0-.2.03-.39,0-.59-.02-.17-.12-.32-.15-.49-.05-.29-.03-.59-.05-.88-.04-.48-.06-.95-.15-1.42-.06-.33-.11-.67-.25-.98-.12-.28-.36-.51-.49-.79-.26-.56-.37-1.19-.59-1.77-.12-.32-.29-.61-.39-.93-.07-.22-.08-.46-.15-.69-.1-.35-.31-.67-.39-1.03-.08-.32-.02-.66-.1-.98-.04-.17-.1-.34-.2-.49-.1-.17-.26-.3-.39-.44-.47-.49-.99-.95-1.47-1.42-.74-.73-1.49-1.46-2.21-2.21-.72-.74-1.44-1.48-2.11-2.26-.48-.55-.92-1.14-1.38-1.72-.42-.53-.85-1.06-1.23-1.62-.27-.4-.51-.81-.74-1.23-.2-.38-.42-.76-.54-1.18-.14-.49-.13-1.02-.2-1.52-.08-.57-.16-1.15-.25-1.72-.09-.57-.18-1.15-.29-1.72-.27-1.3-.61-2.59-.93-3.88-.3-1.2-.61-2.39-.93-3.59-.43-1.59-.94-3.16-1.33-4.76-.38-1.56-.67-3.14-.98-4.71-.19-.98-.41-1.96-.54-2.95-.11-.9-.15-1.8-.2-2.7-.05-.82-.06-1.64-.1-2.46-.06-1.46-.11-2.91-.2-4.37-.07-1.21-.15-2.42-.25-3.63-.1-1.21-.13-2.44-.34-3.63-.09-.52-.27-1.01-.39-1.52-.16-.67-.36-1.33-.44-2.01-.08-.67,0-1.34-.05-2.01-.08-.96-.22-1.91-.39-2.85-.19-1.04-.41-2.08-.69-3.09-.31-1.11-.71-2.2-1.08-3.29-.42-1.23-.79-2.48-1.28-3.68-.44-1.1-1-2.15-1.47-3.24-.57-1.3-1.18-2.59-1.67-3.93-.49-1.32-.93-2.66-1.28-4.03-.4-1.58-.67-3.2-.93-4.81-.24-1.52-.36-3.05-.59-4.57-.19-1.26-.48-2.51-.64-3.78-.14-1.14-.18-2.29-.29-3.44-.14-1.41-.32-2.82-.49-4.22-.16-1.34-.26-2.69-.49-4.03-.18-1.04-.51-2.05-.69-3.09-.17-1.01-.31-2.02-.34-3.04-.03-.89.03-1.77.15-2.65.15-1.09.47-2.16.69-3.24.24-1.16.51-2.32.69-3.49.22-1.43.39-2.88.49-4.32.07-1.03.08-2.06.1-3.09.02-.95.05-1.9,0-2.85-.06-1.05-.23-2.1-.34-3.14-.1-.87-.25-1.73-.29-2.6-.07-1.21.11-2.43,0-3.63-.08-.93-.25-1.85-.49-2.75-.16-.61-.35-1.21-.64-1.77-.24-.46-.56-.87-.88-1.28-.54-.68-1.15-1.3-1.77-1.92-.66-.65-1.33-1.3-2.06-1.87-.47-.36-.95-.71-1.47-.98-.48-.25-1.01-.42-1.52-.59-.74-.25-1.52-.39-2.26-.64-.95-.33-1.88-.72-2.8-1.13-1.2-.53-2.38-1.1-3.54-1.72-1.54-.83-2.97-1.88-4.52-2.7-1.1-.58-2.27-1.03-3.39-1.57-1.44-.7-2.84-1.45-4.27-2.16-1.14-.57-2.29-1.12-3.44-1.67-1.26-.61-2.56-1.14-3.78-1.82-.95-.52-1.89-1.06-2.75-1.72-.64-.5-1.25-1.05-1.77-1.67-.25-.3-.42-.66-.64-.98-.41-.6-1.28-1.77-1.28-1.77"/><path id="path4003" class="cls-3" d="M362.55,59.93s-.24-.61-.29-.93c-.15-.97-.04-1.97,0-2.95.06-1.61.21-3.21.34-4.81.07-.82.15-1.64.25-2.46.1-.8.22-1.61.34-2.41.15-.95.32-1.9.49-2.85.17-.97.54-2.9.54-2.9"/><path id="path4005" class="cls-3" d="M363.14,46.57s.54-.73.83-1.08c.28-.33.52-.71.88-.93.2-.12.46-.12.69-.2.35-.13.73-.22,1.03-.44.43-.32.74-.78,1.03-1.23.37-.58.61-1.24.88-1.87.31-.71.7-1.41.88-2.16.17-.67.14-1.37.2-2.06.04-.46.03-.92.1-1.38.12-.75.45-1.46.54-2.21.08-.7.01-1.41,0-2.11,0-.41.05-.83-.05-1.23-.1-.39-.54-1.08-.54-1.08"/><path id="path4007" class="cls-3" d="M355.63,44.12c1.25-.37,2.42-.96,3.63-1.42,1.39-.52,2.87-.83,4.17-1.52.59-.31,1.18-.67,1.62-1.18.9-1.04,1.38-2.38,1.92-3.63.59-1.37,1.06-2.78,1.42-4.22.26-1.05-.04-2.28.54-3.19.11-.17.29-.35.49-.34.3,0,.74.54.74.54,0,0,.17-.28.2-.44.13-.86-.21-1.73-.29-2.6-.15-1.57-.36-3.14-.39-4.71-.03-1.79.53-3.59.25-5.35-.28-1.73-1.09-3.34-1.87-4.91-.85-1.73-1.8-3.44-3.04-4.91-1.02-1.21-2.19-2.32-3.54-3.14-1.62-.99-3.44-1.69-5.3-2.06-1.48-.29-3.01-.02-4.52-.1-1.61-.08-3.2-.36-4.81-.39-1.61-.03-3.21.05-4.81.2-1.58.15-3.22.16-4.71.69-1.58.56-3,1.53-4.32,2.55-1.02.79-1.83,1.83-2.75,2.75-1.11,1.11-2.49,2.01-3.34,3.34-.97,1.53-1.46,3.34-1.87,5.11-.28,1.22-.29,2.49-.39,3.73-.09,1.11-.24,2.23-.2,3.34.05,1.19.33,2.36.49,3.54.17,1.24.28,2.5.49,3.73.11.63.39,1.87.39,1.87,0,0,.36-.76.69-.98.22-.15.55-.32.79-.2.34.18.3.71.39,1.08.22.87.15,1.79.39,2.65.23.82.54,1.63.98,2.36.77,1.27,1.9,2.29,2.85,3.44.76.92,1.3,2.05,2.26,2.75,1.17.85,2.63,1.23,4.03,1.57,1.7.42,3.46.49,5.21.59,1.96.11,3.93,0,5.89,0,1.34,0,2.69.14,4.03,0,.78-.08,1.55-.27,2.31-.49h0Z"/><path id="path4009" class="cls-3" d="M325.87,31.3s-.07.62-.05.93c.03.45.12.9.25,1.33.18.6.52,1.13.74,1.72.21.56.41,1.13.54,1.72.15.65.19,1.31.29,1.96.11.64.17,1.29.34,1.92.18.66.46,1.29.74,1.92.28.64.46,1.36.93,1.87.35.38.85.59,1.33.79.36.15.75.22,1.13.29.23.05.48,0,.69.1.26.13.42.4.59.64.18.26.44.83.44.83"/><path id="path4011" class="cls-3" d="M333.19,43.33s.49,1.66.69,2.5c.23.97.43,1.96.59,2.95.26,1.64.38,3.31.59,4.96.18,1.44.47,2.87.59,4.32.05.6.09,1.21.05,1.82-.02.31-.15.93-.15.93"/><path id="path4013" class="cls-3" d="M331.47,45.59s.19.58.25.88c.14.76.05,1.55.2,2.31.15.74.39,1.47.69,2.16.32.75.72,1.48,1.18,2.16.23.35.57.62.79.98.34.57.79,1.82.79,1.82"/><path id="path4015" class="cls-3" d="M336.62,57.82s-.35,1.26-.59,1.87c-.2.51-.33,1.06-.69,1.47-.58.67-1.44,1.03-2.21,1.47-.84.48-1.73.85-2.6,1.28-1.14.56-2.3,1.11-3.44,1.67-.92.45-1.82.95-2.75,1.38-1.53.7-3.11,1.29-4.67,1.92-1.27.51-2.57.98-3.83,1.52-1.43.61-2.79,1.38-4.22,1.96-.96.39-1.95.71-2.93,1.03-1.19.39-2.39.71-3.58,1.11-1,.34-2.03.62-2.99,1.08-.58.28-1.12.62-1.63,1.01-.5.37-.93.82-1.39,1.25-.56.52-1.13,1.03-1.63,1.6-.45.51-.91,1.04-1.25,1.63-.31.54-.49,1.15-.69,1.74-.18.52-.33,1.06-.45,1.6-.15.64-.26,1.29-.35,1.94-.08.59-.09,1.18-.14,1.77-.09,1.24-.17,2.48-.28,3.72-.06.73-.14,1.46-.21,2.19-.08.8-.2,1.59-.24,2.4-.06.99-.08,1.99-.03,2.99.03.74.12,1.48.21,2.22.1.86.24,1.72.38,2.57.16.93.36,1.85.52,2.78.14.81.31,1.61.38,2.43.07.74.07,1.48.07,2.22,0,.81-.07,1.62-.1,2.43-.04.9-.08,1.81-.14,2.71-.07,1.09-.14,2.18-.24,3.26-.08.87-.25,1.73-.31,2.6-.06.89-.05,1.78-.07,2.67-.02,1.27-.01,2.55-.03,3.82-.02,1.22-.03,2.43-.1,3.65-.05.75-.12,1.51-.21,2.26-.13,1.14-.33,2.27-.49,3.4-.14,1-.24,2-.42,2.99-.21,1.22-.46,2.44-.76,3.65-.36,1.44-.76,2.87-1.25,4.27-.48,1.38-1.09,2.71-1.63,4.06-.44,1.12-.91,2.23-1.32,3.37-.29.8-.55,1.61-.8,2.43-.35,1.15-.71,2.3-.97,3.47-.21.95-.35,1.92-.49,2.88-.14,1-.25,2.01-.35,3.02-.14,1.42-.21,2.85-.35,4.27-.1,1.08-.27,2.15-.35,3.23-.11,1.49-.12,2.99-.17,4.48-.04,1.1-.08,2.2-.1,3.3-.03,1.56-.02,3.13-.03,4.69,0,.82.03,1.65-.03,2.47-.04.59-.16,1.18-.24,1.77-.1.7-.19,1.39-.31,2.08-.18,1.03-.38,2.06-.59,3.09-.27,1.29-.53,2.58-.87,3.85-.16.62-.39,1.22-.56,1.84-.15.56-.24,1.14-.38,1.7-.24.9-.55,1.78-.8,2.67-.21.75-.38,1.51-.59,2.26-.12.42-.3.82-.38,1.25-.09.43-.1.88-.14,1.32-.04.43-.08.86-.1,1.28-.01.22.03.45-.03.66-.07.23-.23.43-.38.63-.23.29-.54.51-.8.76-.49.48-.94,1.01-1.46,1.46-.49.42-1.03.78-1.56,1.15-1.06.73-2.07,1.55-3.23,2.12-.25.12-.54.17-.8.28-.5.22-.97.52-1.46.76-.46.23-.98.35-1.39.66-.29.22-.49.53-.69.83-.24.36-.42.75-.59,1.15-.25.6-.35,1.25-.63,1.84-.2.42-.48.79-.73,1.18-.25.4-.53.77-.76,1.18-.18.31-.3.66-.49.97-.14.23-.33.42-.45.66-.21.42-.33.87-.45,1.32-.09.31-.1.64-.21.94-.11.33-.36.6-.45.94-.03.12-.03.38-.03.38"/><path id="path4017" class="cls-3" d="M436.35,244.6s-.51-.17-.66-.28c-.2-.13-.4-.27-.56-.45-.14-.16-.26-.35-.31-.56-.05-.18-.05-.38,0-.56.02-.08.06-.18.14-.21.08-.03.24.1.24.1"/><path id="path4019" class="cls-3" d="M263.13,233.97c-.12-.01-.2.12-.28.21-.48.53-1.27,1.14-1.11,1.84,0,.04.07.05.1.07.13.05.28.08.42.07.2-.02.4-.09.56-.21.2-.15.34-.37.45-.59.1-.2.17-.43.17-.66,0-.17-.03-.34-.1-.49-.05-.1-.1-.23-.21-.24h0Z"/><path id="path4021" class="cls-3" d="M261.6,236.02s-.23.31-.28.49c-.04.16-.04.33,0,.49.04.14.1.29.21.38.2.16.48.18.73.21.3.03.61,0,.9-.07.39-.1.74-.32,1.11-.49.58-.25,1.22-.4,1.74-.76.26-.18.46-.44.66-.69.22-.28.41-.59.59-.9.28-.49.49-1.02.73-1.53.14-.29.29-.57.42-.87.08-.19.11-.41.21-.59.12-.21.3-.37.45-.56.34-.41.71-.79,1.04-1.22.17-.22.26-.53.49-.69.13-.09.3-.12.45-.14.09-.01.28,0,.28,0"/><path id="path4023" class="cls-3" d="M270.22,226.71s.6.94.8,1.46c.14.36.2.74.28,1.11.06.31.1.62.14.94.05.45.12.9.1,1.35-.01.46-.09.91-.17,1.35-.09.47-.27.92-.35,1.39-.08.47-.09.95-.1,1.42-.01.53.11,1.07.03,1.6-.06.43-.25.83-.38,1.25-.17.53-.34,1.07-.52,1.6-.15.44-.27.89-.45,1.32-.15.34-.41.62-.52.97-.12.37-.1.76-.14,1.15-.05.5-.02,1-.1,1.49-.07.43-.23.83-.35,1.25-.13.47-.28.94-.38,1.42-.09.42-.17.85-.21,1.28-.03.36-.03.72-.03,1.08,0,.35,0,.69,0,1.04,0,.28-.04.57.03.83.06.21.19.4.31.59.1.16.19.35.35.45.19.12.44.11.66.14.26.03.54.08.8.03.22-.04.44-.12.63-.24.17-.12.3-.28.42-.45.22-.31.4-.65.52-1.01.11-.33.11-.7.17-1.04.09-.51.2-1.02.31-1.53.12-.52.24-1.05.38-1.56.17-.6.33-1.19.56-1.77.19-.49.45-.95.66-1.42.12-.28.26-.55.35-.83.1-.32.14-.65.21-.97.12-.61.27-1.22.35-1.84.04-.3-.09-.65.07-.9.07-.11.22-.16.35-.21.09-.03.19-.08.28-.03.06.03.08.11.1.17.05.12.08.25.07.38-.01.26-.14.51-.21.76-.11.38-.24.76-.35,1.15-.1.33-.18.67-.28,1.01-.06.21-.09.43-.17.63-.12.29-.37.51-.49.8-.12.3-.15.62-.21.94-.05.28-.11.55-.14.83-.04.36,0,.72-.03,1.08-.05.48-.12.96-.24,1.42-.13.47-.38.89-.52,1.35-.14.47-.22.95-.31,1.42-.1.53-.18,1.06-.24,1.6-.05.45-.09.9-.1,1.35-.01.43-.13.89.03,1.28.13.33.43.6.73.8.26.17.56.28.87.31.3.03.62,0,.9-.1.23-.09.42-.25.59-.42s.33-.37.42-.59c.11-.28.09-.6.14-.9.05-.31.11-.63.17-.94.06-.28.16-.55.21-.83.04-.22.03-.44.07-.66.17-.93.43-1.84.69-2.74.18-.62.37-1.23.59-1.84.18-.49.43-.96.59-1.46.14-.44.23-.9.31-1.35.1-.55.14-1.11.21-1.67.05-.39.08-.79.14-1.18.05-.28,0-.61.17-.83.09-.11.25-.13.38-.17.19-.07.39-.13.59-.14.19,0,.41,0,.56.1.14.11.22.31.24.49.04.28-.08.56-.14.83-.08.35-.16.7-.28,1.04-.09.26-.25.5-.31.76-.08.33-.05.67-.07,1.01-.01.22-.04.44-.03.66,0,.28.05.56.07.83.03.36.09.72.07,1.08-.02.34-.12.67-.17,1.01-.09.62-.14,1.25-.24,1.88-.09.51-.22,1.02-.31,1.53-.11.59-.23,1.18-.31,1.77-.03.25-.07.51-.07.76,0,.19-.01.38.03.56.05.17.14.34.24.49.09.12.19.24.31.31.17.1.37.11.56.17.14.05.27.14.42.17.17.03.35.01.52,0,.15-.01.31-.01.45-.07.21-.09.4-.25.56-.42.18-.19.32-.42.42-.66.12-.32.12-.67.17-1.01.07-.39.12-.79.21-1.18.13-.57.33-1.13.45-1.7.08-.38.11-.77.17-1.15.09-.52.26-1.03.31-1.56.03-.26-.03-.53,0-.8.05-.51.2-1,.31-1.49.09-.4.26-.78.31-1.18.07-.5.05-1.02.03-1.53-.02-.67-.17-1.34-.17-2.01,0-.34-.11-.72.07-1.01.1-.16.31-.21.49-.28.17-.07.34-.12.52-.14.2-.02.42-.07.59.03.17.1.26.33.31.52.05.17,0,.35,0,.52,0,.28-.08.56-.03.83.04.27.17.52.28.76.13.29.36.53.45.83.07.22.05.46.07.69.04.49.03.97.07,1.46.04.46.13.92.17,1.39.04.5.02,1,.07,1.49.04.36.08.72.17,1.08.05.2.07.43.21.59.17.2.45.29.69.38.2.08.41.17.63.14.26-.04.5-.21.69-.38.16-.14.29-.33.38-.52.16-.35.19-.74.28-1.11.11-.45.27-.89.31-1.35.04-.38-.02-.76-.03-1.15-.03-.54-.04-1.09-.1-1.63-.04-.33-.14-.65-.17-.97-.08-.73,0-1.47-.1-2.19-.05-.34-.17-.67-.24-1.01-.09-.4-.19-.81-.24-1.22-.05-.44-.08-.88-.07-1.32,0-.38.04-.77.1-1.15.11-.66.32-1.3.49-1.94.21-.84.4-1.69.63-2.54.31-1.17.68-2.33.97-3.51.22-.89.39-1.78.59-2.67.1-.46.25-.92.31-1.39.08-.6.09-1.2.1-1.81.03-1.03-.03-2.06,0-3.09.01-.44.01-.88.07-1.32.04-.33.12-.65.21-.97.14-.51.32-1,.49-1.49.24-.74.49-1.48.73-2.22.24-.76.46-1.53.69-2.29.17-.53.35-1.07.52-1.6.43-1.31.91-2.6,1.28-3.92.51-1.81.87-3.66,1.32-5.49.44-1.8.87-3.6,1.35-5.38.39-1.46.82-2.92,1.25-4.38.77-2.63,1.49-5.28,2.36-7.88.57-1.72,1.24-3.41,1.88-5.1.58-1.57,1.25-3.1,1.77-4.69.36-1.11.66-2.24.94-3.37.16-.66.3-1.32.42-1.98.14-.77.23-1.55.35-2.33.09-.57.14-1.14.28-1.7.11-.46.38-.88.45-1.35.06-.38,0-.76,0-1.15.01-.49.03-.97.07-1.46.04-.46.12-.93.17-1.39.04-.31.11-.62.1-.94-.01-.47-.16-.93-.24-1.39-.06-.35-.11-.7-.17-1.04-.07-.36-.19-.71-.24-1.08-.06-.42-.1-.86-.1-1.28,0-.74.06-1.48.14-2.22.12-1.08.31-2.15.49-3.23.22-1.35.44-2.69.69-4.03.17-.92.41-1.82.56-2.74.26-1.63.37-3.29.56-4.93.15-1.35.3-2.71.45-4.06.13-1.16.3-2.31.38-3.47.06-.84.07-2.54.07-2.54"/><path id="path4025" class="cls-3" d="M304.8,94.61s.38,1.69.56,2.54c.18.88.36,1.76.52,2.64.12.67.2,1.35.35,2.01.09.41.21.82.35,1.22.18.53.41,1.04.63,1.56.29.71.62,1.4.87,2.12.21.64.34,1.3.52,1.94.24.88.49,1.76.73,2.64.4,1.5.87,2.99,1.18,4.51.21,1.03.28,2.09.45,3.13.21,1.28.47,2.55.69,3.82.18,1.01.32,2.02.52,3.02.16.79.32,1.58.52,2.36.22.86.51,1.71.73,2.57.23.92.48,1.84.63,2.78.14.93.17,1.87.24,2.81.08,1.06.14,2.13.21,3.19.07,1.01.08,2.02.21,3.02.1.79.31,1.57.45,2.36.12.69.25,1.39.35,2.08.12.84.2,1.69.31,2.54.1.72.27,1.43.31,2.15.05.72-.02,1.44-.03,2.15-.01.93.02,1.85-.03,2.78-.03.59-.11,1.18-.17,1.77-.1.87-.22,1.74-.35,2.6-.1.66-.22,1.32-.31,1.98-.24,1.64-.47,3.28-.66,4.93-.12,1.02-.22,2.04-.31,3.06-.08.89-.15,1.78-.21,2.67-.06.89-.13,1.78-.14,2.67,0,.57.03,1.14.07,1.7.03.56.08,1.11.14,1.67.07.67.17,1.34.28,2.01.05.33.15.64.17.97.02.27-.03.8-.03.8"/><path id="path4027" class="cls-3" d="M315.12,181.15s-.12.81-.21,1.22c-.07.33-.17.65-.28.97-.17.52-.43,1.01-.59,1.53-.26.84-.47,1.7-.63,2.57-.13.76-.15,1.53-.24,2.29-.09.74-.14,1.49-.28,2.22-.16.83-.42,1.64-.63,2.47-.2.82-.39,1.65-.59,2.47-.21.86-.44,1.71-.66,2.57-.24.95-.52,1.89-.73,2.85-.21.94-.38,1.89-.52,2.85-.15.99-.23,1.99-.35,2.99-.14,1.25-.29,2.5-.42,3.75-.09.9-.16,1.81-.24,2.71-.11,1.19-.21,2.39-.35,3.58-.11.96-.22,1.93-.38,2.88-.21,1.3-.54,2.59-.76,3.89-.19,1.1-.35,2.2-.49,3.3-.19,1.57-.36,3.14-.45,4.72-.07,1.31-.05,2.62-.07,3.92-.01.69-.02,1.39-.03,2.08-.02,1.42-.1,2.85-.07,4.27.02,1.19.14,2.38.21,3.58.06.93.13,1.85.17,2.78.1,2.11.1,4.22.21,6.32.06,1.16.15,2.32.24,3.47.08,1.07.19,2.13.28,3.19.16,1.85.25,3.71.45,5.56.18,1.65.43,3.29.66,4.93.14,1,.3,1.99.45,2.99.28,1.85.57,3.71.87,5.56.23,1.44.49,2.87.73,4.31.21,1.27.46,2.54.63,3.82.09.73.15,1.46.21,2.19.07.9.13,1.81.17,2.71.05,1.11.08,2.22.1,3.33.03,1.26.04,2.52.03,3.79,0,1.19-.01,2.38-.03,3.58-.02,1.42-.06,2.85-.1,4.27-.05,1.61-.14,3.22-.17,4.83-.01.69-.02,1.39,0,2.08.04,1.17.24,2.34.24,3.51,0,.87-.08,1.74-.17,2.6-.09.83-.18,1.65-.35,2.47-.18.89-.46,1.76-.69,2.64-.14.52-.29,1.04-.42,1.56-.13.51-.25,1.02-.35,1.53-.22,1.13-.32,2.28-.56,3.4-.2.98-.51,1.94-.73,2.92-.21.97-.37,1.94-.56,2.92-.22,1.18-.66,3.37-.66,3.54s-.26,1.73-.35,2.6c-.11,1.06-.17,2.13-.24,3.19-.1,1.5-.25,3.01-.24,4.51,0,.96.14,1.92.17,2.88.04,1.05,0,2.11.03,3.16.03.92.08,1.83.17,2.74.16,1.49.5,2.96.66,4.45.11,1.02.06,2.05.21,3.06.16,1.05.5,2.06.73,3.09.39,1.77.72,3.55,1.11,5.31.39,1.75.8,3.5,1.22,5.24.36,1.48.73,2.97,1.11,4.45.42,1.62.92,3.23,1.32,4.86.33,1.36.61,2.73.9,4.1.25,1.13.5,2.27.73,3.4.27,1.35.54,2.7.76,4.06.17,1.03.33,2.06.42,3.09.05.55.08,1.11.07,1.67,0,.52-.05,1.04-.1,1.56-.09.92-.25,1.83-.38,2.74-.11.74-.24,1.48-.35,2.22-.1.67-.21,1.34-.28,2.01-.07.67-.14,1.34-.14,2.01,0,.34.04.67.07,1.01.03.28.02.57.1.83.11.36.34.67.52,1.01.21.4.45.78.66,1.18.14.26.42.8.42.8"/><path id="path4029" class="cls-3" d="M313.44,319.34s1.93-3.26,2.65-5.01c.9-2.18,1.6-4.46,2.06-6.78.26-1.29.39-3.93.39-3.93"/><path id="path4031" class="cls-3" d="M332.99,313.16l-1.87,10.12"/><path id="path4033" class="cls-3" d="M314.57,421.4s-.12.43-.2.64c-.1.27-.21.53-.34.79-.14.27-.26.58-.49.79-.23.2-.56.26-.83.39-.45.22-.87.48-1.33.69-.39.18-.76.43-1.18.49-.13.02-.26-.05-.39-.05-.28,0-.57,0-.83.1-.32.12-.61.33-.83.59-.14.15-.19.36-.29.54-.15.25-.36.47-.49.74-.18.37-.29.78-.39,1.18-.11.45-.23.91-.25,1.38-.02.46.01.93.15,1.38.13.44.3.92.64,1.23.25.23.64.22.93.39.48.28.87.7,1.33,1.03.5.36,1.01.7,1.52,1.03.42.27.84.54,1.28.79.27.16.83.44.83.44"/><path id="path4035" class="cls-3" d="M313.3,434.71s-.03.79.05,1.18c.1.48.32.93.54,1.38.28.58.54,1.2.98,1.67.39.42.91.71,1.42.98.71.38,1.47.69,2.26.88.83.21,1.7.27,2.55.29.88.03,1.77-.06,2.65-.15.94-.09,1.9-.12,2.8-.39.64-.2,1.3-.45,1.82-.88.37-.31.63-.74.83-1.18.16-.35.27-.74.29-1.13.03-.46-.09-.92-.15-1.38-.06-.51-.13-1.01-.2-1.52-.05-.43-.12-.85-.15-1.28-.05-.75,0-1.51-.05-2.26-.03-.38-.08-.76-.15-1.13-.15-.8-.38-1.58-.59-2.36-.14-.51-.26-1.03-.44-1.52-.22-.58-.61-1.08-.79-1.67-.28-.93-.36-1.92-.44-2.9-.08-.93-.05-2.8-.05-2.8"/><path id="path4037" class="cls-3" d="M322.38,416.19s.24,1.67.25,2.5c.01,1.25-.16,2.49-.29,3.73-.12,1.07-.13,2.16-.44,3.19-.27.9-.82,1.7-1.23,2.55-.37.77-.87,1.49-1.13,2.31-.24.76-.39,2.36-.39,2.36"/><path id="path4039" class="cls-3" d="M328.91,432.15s.37-1.01.64-1.47c.23-.39.61-.69.83-1.08.26-.44.47-.92.59-1.42.1-.42.11-.85.1-1.28-.01-.33-.1-.65-.15-.98-.03-.23-.03-.47-.1-.69-.08-.26-.34-.74-.34-.74"/><path id="path4041" class="cls-3" d="M330.09,427.24s.22-1.57.34-2.36c.12-.72.28-1.44.39-2.16.14-.91.16-1.85.34-2.75.13-.63.35-1.25.54-1.87.14-.46.29-.92.44-1.38.13-.38.33-.74.39-1.13.06-.37.05-.76,0-1.13-.12-.85-.51-1.63-.74-2.46-.23-.81-.35-1.66-.64-2.46-.32-.88-.86-1.67-1.18-2.55-.28-.77-.47-1.56-.64-2.36-.22-1.01-.4-2.02-.49-3.04-.1-1.19-.04-2.39-.05-3.59,0-.79-.08-1.58,0-2.36.14-1.32.57-2.58.83-3.88.3-1.47.57-2.94.83-4.42.38-2.17.71-4.36,1.08-6.53.16-.95.27-1.91.49-2.85.43-1.77,1.06-3.48,1.62-5.21.59-1.82,1.35-3.59,1.82-5.45.31-1.22.5-2.48.64-3.73.16-1.43.16-2.88.25-4.32.06-1,.2-2,.2-3,0-1.69-.14-3.38-.34-5.06-.16-1.3-.49-2.58-.69-3.88-.15-.98-.33-1.96-.39-2.95-.07-1.16,0-2.33.05-3.49.04-1,.06-2,.2-3,.15-1.14.37-2.28.69-3.39.4-1.43,1-2.79,1.52-4.17.43-1.13.87-2.26,1.33-3.39.63-1.56,1.35-3.08,1.92-4.67.44-1.22.82-2.47,1.13-3.73.31-1.23.6-2.47.74-3.73.13-1.19.08-2.39.1-3.59.02-1.57-.01-3.14,0-4.71.02-2.64.08-5.27.1-7.91.02-2.54-.09-5.08,0-7.61.05-1.35.15-2.69.29-4.03.15-1.36.39-2.72.59-4.08.31-2.11.62-4.22.93-6.34.4-2.69.87-5.36,1.23-8.05.34-2.52.55-5.05.88-7.56.32-2.46.79-4.9,1.08-7.37.17-1.49.31-2.98.39-4.47.09-1.59.1-3.18.1-4.76,0-1.16-.04-2.33-.1-3.49-.06-1.03-.25-3.09-.25-3.09"/><path id="path4051" class="cls-3" d="M331.61,240.47s1.79.36,2.7.39c1.03.04,2.07-.08,3.09-.2,1.71-.19,3.43-.43,5.11-.83,1.42-.34,2.82-.78,4.17-1.33.75-.3,1.49-.64,2.16-1.08.36-.24.71-.5.98-.83.41-.51.71-1.11.93-1.72.29-.79.42-1.63.54-2.46.22-1.48.26-2.98.34-4.47.1-1.85.15-3.7.2-5.55.03-1.01.13-2.03.05-3.04-.03-.36-.12-.72-.2-1.08-.04-.2-.15-.59-.15-.59"/><path id="path4060" class="cls-3" d="M350.96,234.38s.21.7.34,1.03c.14.35.25.74.49,1.03.34.42.82.71,1.28.98.96.57,1.99,1.01,3.04,1.38,1.1.38,2.25.62,3.39.83,1.64.31,3.3.53,4.96.69,1.24.12,2.49.26,3.73.2.88-.04,2.6-.39,2.6-.39"/><path id="path4066" class="cls-3" d="M351.95,219.3s.33-1.13.39-1.72c.06-.52,0-1.57,0-1.57"/><path id="path4073" class="cls-3" d="M336.13,93.15s-2.33,4.53-3.89,6.53c-1.73,2.22-5.97,5.97-5.97,5.97"/><path id="path4133" class="cls-3" d="M355.16,93.29s2.57,6.5,4.58,9.31c1.6,2.24,5.83,5.83,5.83,5.83"/><path id="path4135" class="cls-3" d="M348.91,90.51s.86,11.76,1.25,17.64c.39,5.83.93,11.66,1.11,17.5.13,3.98,0,11.95,0,11.95"/><path id="path4137" class="cls-3" d="M351.55,159.63l-.79,17.68"/><path id="path4152" class="cls-3" d="M299.32,151.77s-1.04,3.27-1.67,4.86c-.71,1.79-2.36,5.28-2.36,5.28"/><path id="path4154" class="cls-3" d="M408.08,166.36s.29-3.82,0-5.7c-.23-1.53-.74-3.03-1.39-4.45-.36-.79-1.39-2.22-1.39-2.22"/><path id="path4134" class="cls-5" d="M268.27,251.95c.16.23.51.22.78.29.2.05.41.07.62.1.29.04.64.3.88.13.16-.11.1-.37.13-.55.05-.3.1-.61.1-.91,0-.19-.02-.37-.07-.55-.03-.12-.04-.27-.13-.36-.06-.06-.15-.07-.23-.1-.17-.07-.34-.19-.52-.2-.22-.01-.44.09-.65.16-.16.05-.33.08-.46.2-.17.16-.25.4-.33.62-.07.2-.11.41-.13.62-.02.18-.11.4,0,.55h0Z"/><path id="path4136" class="cls-5" d="M272.48,255.04c.05.14.24.2.36.29.2.15.38.34.62.42.18.06.37.04.55.03.25-.01.52-.03.75-.13.16-.07.34-.14.42-.29.12-.22.06-.5.03-.75-.03-.3-.12-.6-.23-.88-.06-.15-.14-.29-.23-.42-.07-.1-.13-.2-.23-.26-.08-.05-.17-.06-.26-.1-.11-.04-.21-.12-.33-.13-.19,0-.39.06-.55.16-.17.1-.32.26-.42.42-.13.21-.18.45-.26.68-.06.18-.12.37-.16.55-.03.13-.11.27-.07.39h0Z"/><path id="path4150" class="cls-5" d="M279.36,255.14c.18.29.62.3.95.39.31.09.63.15.95.16.19,0,.4.03.55-.07.07-.04.1-.12.13-.2.06-.15.06-.32.07-.49.02-.37,0-.74-.03-1.11-.01-.12-.01-.25-.07-.36-.04-.08-.11-.13-.16-.2-.08-.1-.13-.22-.23-.29-.09-.07-.21-.11-.33-.13-.13-.02-.26-.02-.39,0-.19.03-.37.12-.55.2-.17.07-.36.1-.49.23-.11.11-.15.28-.2.42-.08.24-.1.5-.13.75-.03.23-.18.49-.07.68h0Z"/><path id="path4156" class="cls-5" d="M288.13,250.02c.17.15.46-.03.68-.03.36,0,.81.28,1.08.03.29-.27.07-.78.07-1.17,0-.31.07-.64-.07-.91-.09-.18-.27-.32-.46-.39-.14-.05-.31-.02-.46,0-.13.02-.27.03-.39.1-.17.09-.33.22-.42.39-.08.15-.08.32-.1.49-.03.24-.04.48-.03.72.01.26-.1.61.1.78h0Z"/></g><g id="g5692"><path id="path4024" class="cls-5" d="M79.26,59.06s.12,1.67.16,2.51c.04.99.05,1.99.05,2.98,0,1.05,0,2.09-.05,3.14-.02.37-.01.74-.1,1.1-.11.42-.34.81-.52,1.2-.29.62-.56,1.26-.94,1.83-.4.59-.89,1.13-1.41,1.62-.79.74-1.67,1.38-2.56,1.99-1.4.95-2.92,1.72-4.39,2.56-1.3.74-2.58,1.52-3.92,2.2-1.09.55-2.23,1.01-3.35,1.52-1.13.52-2.26,1.06-3.4,1.57-.8.36-1.62.67-2.41,1.05-.73.34-1.4.81-2.14,1.1-1.1.43-2.27.62-3.4.94-1.1.31-2.23.52-3.29.94-.71.28-1.38.67-2.04,1.05-.68.39-1.38.77-1.99,1.26-.54.43-1,.95-1.46,1.46-.46.52-.94,1.03-1.31,1.62-.35.57-.63,1.19-.84,1.83-.22.66-.32,1.35-.42,2.04-.14,1.02-.16,2.06-.21,3.09-.05,1.06-.05,2.13-.1,3.19-.05,1.13-.11,2.27-.21,3.4-.07.77-.22,1.53-.26,2.3-.05.87-.05,1.74,0,2.61.04.79.17,1.57.26,2.35.18,1.43.38,2.86.58,4.29.12.85.22,1.71.37,2.56.18,1.03.45,2.05.63,3.09.11.64.23,1.29.26,1.93.04.7,0,1.4-.05,2.09-.06.79-.19,1.57-.31,2.35-.22,1.4-.47,2.79-.73,4.18-.15.79-.35,1.56-.47,2.35-.12.75-.19,1.5-.26,2.25-.11,1.1-.15,2.2-.26,3.29-.13,1.22-.3,2.44-.47,3.66-.23,1.61-.5,3.21-.73,4.81-.19,1.32-.29,2.66-.52,3.97-.15.84-.35,1.68-.58,2.51-.21.78-.47,1.54-.73,2.3-.3.88-.59,1.76-.94,2.61-.42,1.02-.9,2.01-1.41,2.98-.27.52-.62,1-.89,1.52-.37.7-.68,1.42-.99,2.14-.21.48-.42.96-.58,1.46-.2.62-.33,1.25-.47,1.88-.18.85-.3,1.71-.47,2.56-.19.98-.42,1.95-.63,2.93-.19.91-.41,1.81-.58,2.72-.08.47-.15.94-.21,1.41-.11.9-.2,1.81-.26,2.72-.06.96-.09,1.92-.1,2.88-.01.71.01,1.43,0,2.14-.02.84-.03,1.68-.1,2.51-.06.68-.13,1.37-.26,2.04-.12.62-.32,1.22-.47,1.83-.28,1.13-.54,2.27-.84,3.4-.43,1.61-.86,3.22-1.36,4.81-.35,1.11-.7,2.22-1.15,3.29-.26.61-.7,1.14-.89,1.78-.13.45-.04.95-.16,1.41-.14.51-.31,1.04-.63,1.46-.23.31-.55.56-.89.73-.79.39-1.74.32-2.56.63-.7.27-1.32.7-1.99,1.05-.83.43-1.66.87-2.51,1.26-.65.29-1.31.56-1.99.78-.46.15-1,.11-1.41.37-.23.15-.35.42-.52.63-.27.32-.58.61-.84.94-.38.48-.73.99-1.05,1.52-.25.42-.41.9-.68,1.31-.3.45-.7.83-1.05,1.26-.25.31-.45.66-.73.94-.17.16-.39.26-.58.42-.07.06-.15.13-.21.21-.17.22-.27.49-.42.73-.17.27-.36.52-.52.78-.21.34-.33.73-.58,1.05-.25.32-.59.56-.89.84-.27.25-.54.51-.84.73-.32.25-.68.43-.99.68-.15.11-.32.21-.42.37-.11.18-.18.41-.16.63.02.19.14.37.26.52.17.2.4.34.63.47.31.18.64.35.99.42.27.06.56.03.84,0,.43-.04.84-.14,1.26-.26.52-.15,1.03-.33,1.52-.58.43-.22.84-.47,1.2-.78.32-.27.55-.63.84-.94.26-.28.58-.51.78-.84.13-.21.15-.47.26-.68.07-.13.17-.25.26-.37.33-.42.68-.82,1.05-1.2.35-.37.7-.73,1.1-1.05s.56-.43.89-.52c.24-.06.49-.04.73,0,.33.05.64.17.94.31.35.17.99.63.99.63"/><path id="path4034" class="cls-5" d="M16.51,224.26s2.11-.3,3.14-.58c1.23-.32,2.42-.49,3.61-.94.99-.37,2.09-.87,2.93-1.52.78-.6,1.28-1.51,1.78-2.35.48-.81,1.15-2.56,1.15-2.56"/><path id="path4036" class="cls-5" d="M12.11,223.79s0,.67.05.99c.08.53.32,1.04.42,1.57.09.5.15,1.01.16,1.52,0,.56-.07,1.12-.16,1.67-.14.85-.36,1.68-.58,2.51-.09.35-.26.69-.31,1.05-.05.33.03.66,0,.99-.04.37-.11.74-.21,1.1-.12.45-.3.88-.47,1.31-.16.42-.35.83-.52,1.26-.24.59-.46,1.18-.68,1.78-.18.47-.31.96-.52,1.41-.13.29-.35.54-.47.84-.11.27-.15.56-.21.84-.07.33-.07.67-.16.99-.12.45-.31.87-.47,1.31-.19.52-.39,1.04-.58,1.57-.16.45-.33.9-.47,1.36-.08.26-.15.52-.21.78-.1.45-.19.9-.26,1.36-.07.49-.16.97-.16,1.46,0,.32-.01.65.1.94.11.27.32.48.52.68.22.22.44.48.73.58.3.09.65.06.94-.05.28-.11.49-.35.68-.58.31-.36.52-.78.73-1.2.32-.64.55-1.31.78-1.99.26-.77.43-1.58.68-2.35.22-.69.43-1.38.73-2.04.15-.33.35-.63.52-.94.19-.33.42-.64.58-.99.16-.35.23-.74.37-1.1.21-.56.45-1.12.68-1.67.21-.52.29-1.11.63-1.57.15-.2.35-.36.58-.47.13-.06.28-.12.42-.1.15.02.32.09.42.21.1.13.1.31.1.47,0,.21-.04.43-.1.63-.11.33-.33.62-.47.94-.14.32-.25.66-.37.99-.19.54-.34,1.1-.58,1.62-.15.33-.36.62-.52.94-.19.39-.38.79-.52,1.2-.21.65-.32,1.32-.47,1.99-.22.96-.41,1.92-.63,2.88-.12.54-.26,1.08-.37,1.62-.13.69-.25,1.39-.31,2.09-.05.52-.08,1.05-.05,1.57.02.33.04.68.16.99.09.25.22.5.42.68.19.18.44.27.68.37.3.12.62.31.94.26.26-.04.47-.25.68-.42.19-.15.41-.3.52-.52.19-.38.13-.84.21-1.26.11-.58.19-1.17.37-1.73.08-.25.25-.47.31-.73.08-.32,0-.66.05-.99.07-.49.18-.98.31-1.46.19-.71.43-1.4.68-2.09.19-.51.37-1.04.63-1.52.16-.3.45-.52.58-.84.07-.18.07-.38.1-.58.04-.23.06-.45.1-.68.09-.44.23-.87.31-1.31.07-.4.07-.81.16-1.2.12-.55.27-1.09.47-1.62.09-.23.11-.53.31-.68.13-.09.32-.11.47-.05.13.05.22.19.26.31.07.18.03.39,0,.58-.05.38-.21.73-.31,1.1-.12.4-.27.79-.37,1.2-.07.31-.12.63-.16.94-.06.54-.07,1.08-.1,1.62-.02.33-.01.66-.05.99-.09.71-.28,1.4-.42,2.09-.15.75-.34,1.49-.47,2.25-.08.47-.12.94-.21,1.41-.1.53-.28,1.04-.37,1.57-.06.33-.11.66-.1.99,0,.32-.03.65.1.94.11.24.31.42.52.58.17.12.37.22.58.26.27.06.56.04.84,0,.22-.04.44-.09.63-.21.23-.14.42-.35.58-.58.15-.22.23-.48.31-.73.26-.77.4-1.56.58-2.35.16-.71.28-1.43.42-2.14.22-1.13.43-2.27.68-3.4.08-.35.13-.71.26-1.05.13-.33.42-.6.52-.94.1-.33.09-.7.1-1.05.02-.49-.03-.98,0-1.46.04-.7.17-1.4.26-2.09.05-.38.08-.77.16-1.15.04-.21.05-.44.16-.63.05-.09.12-.17.21-.21.11-.06.26-.12.37-.05.05.03.05.1.05.16,0,.16-.08.31-.1.47-.05.36-.03.73-.05,1.1-.02.35-.07.7-.05,1.05.02.37.09.73.16,1.1.07.39.22.76.26,1.15.08.68,0,1.36,0,2.04,0,.92-.01,1.85,0,2.77,0,.65-.12,1.31.05,1.93.08.27.22.53.42.73.19.19.42.36.68.42.22.05.47.03.68-.05.22-.08.42-.24.58-.42.21-.24.35-.54.47-.84.22-.52.35-1.07.47-1.62.09-.41.17-.83.21-1.26.03-.33,0-.66,0-.99,0-.99-.1-1.99-.05-2.98.02-.44.12-.87.16-1.31.03-.38.04-.77.05-1.15.01-.61-.03-1.22,0-1.83.03-.49.06-.98.16-1.46.05-.25.13-.49.21-.73.24-.69.56-1.36.84-2.04.34-.83.65-1.68.99-2.51.32-.77.63-1.55.99-2.3.39-.8.89-1.54,1.26-2.35.37-.81.7-1.65.94-2.51.15-.53.23-1.08.31-1.62.15-.97.24-1.95.31-2.93.07-1.03.09-2.06.1-3.09,0-.54.1-1.09,0-1.62-.05-.29-.31-.84-.31-.84"/><path id="path4038" class="cls-5" d="M35.59,216.63s.12-.68.26-.99c.32-.74.91-1.33,1.31-2.04.43-.78.8-1.59,1.15-2.41.57-1.31,1.11-2.63,1.57-3.97.42-1.24.69-2.52,1.1-3.77.52-1.59,1.16-3.13,1.73-4.71.32-.89.59-1.79.94-2.67.47-1.16,1.04-2.27,1.57-3.4.57-1.24,1.19-2.46,1.73-3.71.58-1.34,1.03-2.74,1.62-4.08.48-1.08,1.05-2.12,1.57-3.19.41-.83.89-1.64,1.2-2.51.22-.63.35-1.28.47-1.93.12-.66.19-1.32.26-1.99.09-.77.21-2.3.21-2.3"/><path id="path4040" class="cls-5" d="M52.07,174.79s.56-.91.73-1.41c.18-.54.29-1.11.31-1.67.03-.58-.2-1.15-.16-1.73.04-.5.28-.97.37-1.46.09-.5.14-1.01.16-1.52.02-.54,0-1.08-.05-1.62-.05-.49-.2-.97-.26-1.46-.07-.57-.15-1.15-.1-1.73.04-.6.26-1.18.37-1.78.17-.94.31-1.88.47-2.82.23-1.33.48-2.65.73-3.97.32-1.68.66-3.35.99-5.02.3-1.52.64-3.02.89-4.55.18-1.11.28-2.23.42-3.35.09-.68.26-2.04.26-2.04"/><path id="path4043" class="cls-5" d="M54.16,113.19s.37,1.17.63,1.73c.45.98,1.02,1.9,1.57,2.82.45.75.86,1.52,1.41,2.2.63.77,1.5,1.33,2.14,2.09.63.75,1.67,2.41,1.67,2.41"/><path id="path4045" class="cls-5" d="M56.62,118.21s.75,1.39.99,2.14c.22.69.37,1.42.42,2.14.06.89-.1,1.78-.16,2.67-.07,1.05-.15,2.09-.21,3.14-.08,1.39-.13,2.79-.21,4.18-.05.91-.13,1.81-.16,2.72-.03.87,0,1.74,0,2.61,0,.68-.01,1.36,0,2.04.02,1.01.09,2.02.1,3.03.01,1.15-.1,2.3-.05,3.45.03.75.13,1.5.21,2.25.1.94.23,1.88.31,2.82.07.71.12,1.43.16,2.14.06,1.1.03,2.2.1,3.29.06.82.17,1.64.26,2.46.08.73.21,1.46.26,2.2.06.78.09,1.57.05,2.35-.04.82-.19,1.64-.31,2.46-.19,1.26-.41,2.51-.63,3.77-.22,1.29-.47,2.58-.68,3.87-.24,1.48-.47,2.96-.68,4.45-.13.94-.26,1.88-.37,2.82-.16,1.44-.35,2.89-.42,4.34-.03.63-.01,1.26,0,1.88,0,.49.04.98.05,1.46,0,.49.04.98,0,1.46-.04.39-.12.77-.21,1.15-.2.83-.55,1.62-.73,2.46-.17.79-.18,1.61-.31,2.41-.2,1.19-.48,2.37-.73,3.56-.27,1.24-.58,2.47-.84,3.71-.29,1.42-.49,2.87-.78,4.29-.2.98-.5,1.94-.68,2.93-.21,1.12-.36,2.26-.47,3.4-.16,1.62-.23,3.24-.31,4.86-.05,1.06-.09,2.13-.1,3.19-.02.96.05,1.92,0,2.88-.06,1.16-.22,2.3-.37,3.45-.21,1.64-.51,3.27-.73,4.92-.25,1.88-.53,3.76-.68,5.65-.16,2-.21,4.01-.26,6.01-.05,1.69-.05,3.38-.05,5.07s.04,3.38.05,5.07c.02,2.46-.02,4.92.05,7.37.06,2.06.22,4.11.31,6.17.07,1.57.1,3.14.21,4.71.05.73.14,1.46.21,2.2.17,1.64.34,3.28.52,4.92.23,2.04.45,4.08.73,6.12.26,1.87.54,3.74.89,5.6.21,1.12.55,2.22.73,3.35.1.62.14,1.26.21,1.88.05.45.14.9.16,1.36.02.57-.04,1.15-.05,1.73-.02,1.1.04,2.2,0,3.29-.04,1.33-.16,2.65-.26,3.97-.09,1.29-.23,2.58-.31,3.87-.06.94-.15,1.88-.16,2.82,0,.8.07,1.6.1,2.41.04,1.08.07,2.16.1,3.24.02.71.09,1.43.05,2.14-.03.49-.12.98-.21,1.46-.2,1.11-.46,2.2-.73,3.29-.36,1.46-.82,2.89-1.2,4.34-.4,1.5-.78,2.99-1.15,4.5-.38,1.56-.75,3.13-1.1,4.71-.32,1.44-.68,2.88-.89,4.34-.09.59-.11,1.18-.16,1.78-.11,1.41-.2,2.82-.26,4.24-.06,1.43-.12,2.86-.1,4.29,0,.77.06,1.53.1,2.3.07,1.06.13,2.13.26,3.19.13,1.05.37,2.09.52,3.14.21,1.49.36,3,.52,4.5.15,1.41.22,2.83.42,4.24.26,1.81.7,3.59.99,5.39.29,1.77.48,3.56.78,5.33.12.7.26,1.4.42,2.09.19.86.42,1.71.63,2.56.38,1.53.84,3.05,1.15,4.6.21,1.07.35,2.16.47,3.24.11.97.16,1.95.21,2.93.04.84.07,1.67.05,2.51-.02.87-.16,2.61-.16,2.61"/><path id="path4047" class="cls-5" d="M53.06,402.53s-.42,1.18-.58,1.78c-.15.59-.2,1.2-.37,1.78-.14.47-.36.9-.52,1.36-.17.47-.35.93-.47,1.41-.14.55-.26,1.11-.31,1.67-.05.5-.05,1.01,0,1.52.04.43.15.84.26,1.26.09.34.25.65.31.99.04.22.04.45.05.68.02.42,0,1.26,0,1.26"/><path id="path4049" class="cls-5" d="M53.48,412.84s-.64,1.43-1.05,2.09c-.34.55-.79,1.03-1.15,1.57-.35.51-.76,1-.99,1.57-.16.4-.2.83-.26,1.26-.08.55-.1,1.12-.16,1.67-.03.31,0,.65-.1.94-.14.36-.44.64-.68.94-.17.22-.39.39-.52.63-.2.37-.18.83-.37,1.2-.19.38-.47.71-.73,1.05-.31.41-.64.82-.99,1.2-.46.48-.98.9-1.46,1.36-.44.41-.86.85-1.31,1.26-.29.26-.64.44-.89.73-.27.32-.48.7-.63,1.1-.12.33-.14.7-.21,1.05-.07.35-.21.69-.21,1.05,0,.28.09.56.16.84.08.33.21.65.26.99.07.45-.12.94.05,1.36.15.35.48.6.78.84.25.2.54.36.84.47.33.12.69.17,1.05.21.19.02.58,0,.58,0"/><path id="path4053" class="cls-5" d="M46.26,432.5s-.32.32-.42.52c-.15.29-.2.62-.26.94-.06.33-.07.66-.1.99-.04.42-.11.84-.1,1.26,0,.53.03,1.06.16,1.57.07.27.14.56.31.78.12.16.29.29.47.37.23.1.49.09.73.1.3.01.89-.05.89-.05"/><path id="path4055" class="cls-5" d="M49.71,432.81s-.18.54-.31.78c-.12.22-.32.4-.42.63-.09.21-.1.45-.16.68-.06.25-.1.5-.21.73-.09.19-.29.32-.37.52-.05.13-.02.28-.05.42-.07.26-.17.51-.31.73-.08.14-.26.22-.31.37-.1.28-.08.6,0,.89.06.23.18.47.37.63.23.19.55.24.84.31.29.07.59.09.89.1.26.02.52.01.78,0,.21,0,.63-.05.63-.05"/><path id="path4057" class="cls-5" d="M52.85,433.23s-.34.47-.47.73c-.11.23-.17.49-.26.73-.1.25-.19.49-.31.73-.11.22-.27.4-.37.63-.08.2-.1.42-.16.63-.07.26-.12.53-.21.78-.09.27-.25.51-.31.78-.05.2-.09.42-.05.63.05.28.17.57.37.78.24.26.59.43.94.52.24.06.49.02.73,0,.53-.03,1.05-.12,1.57-.21.33-.06.67-.11.99-.21.22-.07.45-.12.63-.26.14-.11.26-.25.31-.42.03-.1,0-.31,0-.31"/><path id="path4059" class="cls-5" d="M58.6,432.45s-.39.65-.63.94c-.34.42-.8.74-1.15,1.15-.23.26-.48.52-.63.84-.13.29-.14.63-.21.94-.08.36-.23.73-.21,1.1.02.36.2.7.31,1.05.08.23.13.48.26.68.21.32.51.58.84.78.44.28.95.5,1.46.58.61.09,1.23-.06,1.83-.16.43-.07.84-.18,1.26-.31.41-.13.83-.25,1.2-.47.23-.14.45-.32.63-.52.25-.28.52-.58.63-.94.08-.25-.02-.52,0-.78.02-.3.05-.6.1-.89.05-.25.21-.73.21-.73"/><path id="path4061" class="cls-5" d="M64.3,437.52s.55-.2.78-.37c.34-.23.66-.5.89-.84.27-.4.4-.89.52-1.36.13-.51.17-1.04.21-1.57.04-.59.1-1.19,0-1.78-.1-.57-.36-1.09-.58-1.62-.19-.48-.34-.98-.63-1.41-.21-.32-.49-.59-.78-.84-.19-.16-.63-.42-.63-.42"/><path id="path4063" class="cls-5" d="M65.14,428.05s.13-1.08.16-1.62c.02-.33-.05-.67,0-.99.05-.34.24-.65.31-.99.14-.6.18-1.22.26-1.83.07-.56.16-1.11.21-1.67.03-.31-.01-.63.05-.94.08-.38.36-.71.42-1.1.04-.26-.04-.52-.05-.78,0-.3-.02-.59,0-.89.03-.49.17-.97.21-1.46.02-.24-.02-.49,0-.73.05-.69.18-1.37.31-2.04.18-.9.51-1.77.68-2.67.1-.54.25-1.08.21-1.62-.04-.42-.25-.8-.37-1.2-.13-.48-.2-.99-.37-1.46-.25-.72-.64-1.39-.94-2.09-.15-.35-.42-1.05-.42-1.05"/><path id="path4065" class="cls-5" d="M66.5,408.91s-.29-1.46-.37-2.2c-.05-.56-.04-1.12-.05-1.67,0-.54.06-1.08,0-1.62-.05-.46-.22-.9-.31-1.36-.13-.61-.25-1.22-.37-1.83-.11-.63-.26-1.25-.31-1.88-.04-.5.04-1.01,0-1.52-.07-.88-.37-1.73-.42-2.61-.05-.8.05-1.6.1-2.41.08-1.1.11-2.21.31-3.29.23-1.23.66-2.41.99-3.61.32-1.15.69-2.29.99-3.45.25-.99.49-1.98.68-2.98.17-.87.26-1.75.42-2.61.22-1.22.42-2.46.73-3.66.3-1.17.69-2.32,1.1-3.45.39-1.08.91-2.11,1.31-3.19.61-1.64,1.19-3.29,1.67-4.97.27-.95.56-1.9.68-2.88.11-.85.08-1.71.05-2.56-.03-1.03-.16-2.06-.26-3.09-.12-1.29-.33-2.58-.42-3.87-.09-1.36-.05-2.72-.1-4.08-.03-.61-.1-1.22-.1-1.83-.01-.66.03-1.32.05-1.99.02-.58-.05-1.16.05-1.73.07-.38.21-.74.37-1.1.36-.82.85-1.58,1.31-2.35.58-.99,1.25-1.93,1.83-2.93.46-.8.9-1.62,1.31-2.46.53-1.08.99-2.19,1.46-3.29.46-1.08.97-2.14,1.36-3.24.38-1.09.73-2.21.94-3.35.17-.91.22-1.84.26-2.77.06-1.29.07-2.58,0-3.87-.06-1.14-.3-2.26-.37-3.4-.06-1.08,0-2.16,0-3.24s0-2.23,0-3.35c0-1.87-.08-3.73-.05-5.6.02-1.5.09-3,.16-4.5.03-.61.04-1.22.1-1.83.1-1,.26-1.99.42-2.98.2-1.28.47-2.54.68-3.82.21-1.32.33-2.66.58-3.97.19-1,.5-1.98.68-2.98.3-1.68.36-3.4.68-5.07.26-1.34.7-2.64.99-3.97.32-1.42.61-2.85.84-4.29.23-1.49.37-3,.52-4.5.17-1.67.35-3.34.42-5.02.07-1.76.01-3.52,0-5.28,0-1.12,0-2.23-.05-3.35-.15-3.44-.75-10.3-.75-10.3"/><path id="path4079" class="cls-5" d="M117.71,408.81s-.04-1.28,0-1.92c.04-.55.18-1.08.22-1.63.04-.61-.07-1.24,0-1.85.09-.8.43-1.55.55-2.34.16-1.02.15-2.06.26-3.09.12-1.08.36-2.15.42-3.24.05-.99.03-1.99-.05-2.98-.11-1.21-.36-2.41-.58-3.61-.16-.87-.31-1.75-.52-2.61-.31-1.29-.76-2.54-1.1-3.82-.29-1.11-.56-2.22-.78-3.35-.26-1.3-.35-2.63-.63-3.92-.29-1.36-.67-2.7-1.1-4.03-.55-1.72-1.25-3.38-1.88-5.07-.28-.75-.58-1.49-.84-2.25-.32-.95-.64-1.9-.89-2.88-.28-1.1-.53-2.22-.68-3.35-.07-.56-.12-1.12-.1-1.69.04-1.17.32-2.31.44-3.48.11-1.08.2-2.17.26-3.25.09-1.6.15-3.2.18-4.81.02-1.08.05-2.17,0-3.25-.02-.59,0-1.2-.15-1.77-.14-.57-.42-1.1-.67-1.63-.25-.53-.53-1.04-.81-1.55-.65-1.19-1.36-2.35-2-3.55-.65-1.23-1.3-2.46-1.87-3.73-.54-1.2-.99-2.43-1.46-3.66-.4-1.02-.84-2.03-1.15-3.09-.3-1.04-.57-2.11-.68-3.19-.14-1.42.01-2.86.05-4.29.07-2.25.27-4.5.31-6.75.03-1.66-.04-3.31-.05-4.97-.02-1.92-.07-3.83-.05-5.75,0-.65.08-1.29.05-1.93-.05-1.17-.22-2.34-.37-3.5-.09-.73-.22-1.46-.31-2.2-.21-1.67-.34-3.35-.58-5.02-.22-1.52-.54-3.03-.78-4.55-.24-1.46-.4-2.94-.68-4.39-.38-1.93-.94-3.83-1.36-5.75-.4-1.86-.82-3.72-1.1-5.6-.17-1.16-.25-2.33-.37-3.5-.15-1.55-.34-3.1-.42-4.65-.1-1.98-.06-3.97-.05-5.96,0-1.15,0-2.3.05-3.45.18-3.37.94-10.07.94-10.07"/><path id="path4081" class="cls-5" d="M58.02,308.31s-.04,1.87,0,2.81c.05,1.19.25,2.36.3,3.55.04.94.1,1.88,0,2.81-.1.95-.29,1.9-.59,2.81-.41,1.24-1.35,2.28-1.63,3.55-.25,1.16-.17,2.38,0,3.55.15,1.02.89,2.96.89,2.96"/><path id="path4083" class="cls-5" d="M71.48,330.2s1.2-3.02,1.63-4.59c.34-1.26.64-2.54.74-3.85.11-1.43.18-2.9-.15-4.29-.25-1.05-.81-2.01-1.33-2.96-.52-.93-1.77-2.66-1.77-2.66"/><path id="path4085" class="cls-5" d="M76.36,315.55s1.51-3.64,2.22-5.47c.67-1.72,1.45-3.4,1.92-5.18.39-1.5.74-4.59.74-4.59"/><path id="path4087" class="cls-5" d="M102.99,304.76s1.16,3.85,2.07,5.62c.68,1.33,1.64,2.49,2.51,3.7.8,1.11,2.51,3.25,2.51,3.25"/><path id="path4089" class="cls-5" d="M126.36,308.16s-.24,2.37-.44,3.55c-.2,1.14-.75,2.24-.74,3.4.01,1.27.51,2.49.89,3.7.36,1.16,1.04,2.22,1.33,3.4.34,1.4.4,2.85.44,4.29.03,1.13.14,2.3-.15,3.4-.22.85-1.18,2.37-1.18,2.37"/><path id="path4091" class="cls-5" d="M110.98,315.11s-.61,1.55-.74,2.37c-.18,1.17-.15,2.38,0,3.55.2,1.52.56,3.04,1.18,4.44.48,1.07,1.2,2.03,1.92,2.96.67.85,2.22,2.37,2.22,2.37"/><path id="path4093" class="cls-5" d="M72.81,338.04s-2.87,2.35-4.14,3.7c-1.3,1.38-3.55,4.44-3.55,4.44"/><path id="path4095" class="cls-5" d="M110.68,338.33s2.41,3.72,3.55,5.62c.97,1.61,2.81,4.88,2.81,4.88"/><path id="path4097" class="cls-5" d="M81.69,225.77s-3.95-5.69-6.06-8.43c-1.75-2.28-3.62-4.46-5.47-6.66-1.6-1.9-4.88-5.62-4.88-5.62"/><path id="path4099" class="cls-5" d="M122.51,202.99s-3.64,2.86-5.32,4.44c-1.88,1.77-3.55,3.75-5.32,5.62-1.68,1.77-3.49,3.43-5.03,5.32-1.58,1.96-4.29,6.21-4.29,6.21"/><path id="path4101" class="cls-5" d="M117.89,403.19s-.49.87-.67,1.33c-.15.41-.21.84-.33,1.26-.13.45-.31.88-.44,1.33-.13.43-.24.86-.33,1.29-.07.33-.13.66-.15,1-.01.23,0,.47.04.7.04.28.12.54.18.81.15.57.35,1.13.48,1.7.12.52.12,1.07.26,1.59.06.24.22.46.26.7.05.27,0,.54,0,.81,0,.26-.07.52-.04.78.03.23.18.44.22.67.05.25.05.52.04.78-.01.24-.12.47-.11.7.03.47.31.9.37,1.37.04.28-.03.57,0,.85.03.32.11.64.18.96.08.35.22.68.26,1.04.04.35-.06.72,0,1.07.05.3.24.56.3.85.08.41.05.84.07,1.26.02.42.04.84.07,1.26.02.25.11.81.11.81"/><path id="path4103" class="cls-5" d="M120.15,426.71s-.57.54-.85.81c-.25.25-.53.48-.74.78-.21.29-.33.64-.48.96-.25.54-.54,1.06-.7,1.63-.12.43-.17.88-.18,1.33-.02.42.04.84.07,1.26.03.42.02.85.11,1.26.12.54.27,1.09.55,1.55.21.33.49.63.81.85.22.15.74.3.74.3"/><path id="path4105" class="cls-5" d="M119.3,435.81s.2.46.26.7c.06.27.02.55.07.81.06.29.16.58.3.85.17.33.35.68.63.92.31.28.72.44,1.11.59.58.23,1.2.37,1.81.48.46.09.93.14,1.41.15.4,0,.8.03,1.18-.07.43-.11.87-.28,1.18-.59.26-.26.36-.65.48-1,.16-.45.3-.92.33-1.41.02-.33-.04-.67-.11-1-.07-.29-.16-.59-.3-.85-.16-.31-.41-.57-.63-.85-.23-.29-.44-.59-.7-.85-.33-.33-.78-.53-1.07-.89-.21-.26-.48-.89-.48-.89"/><path id="path4107" class="cls-5" d="M127.62,439.02s.4.45.67.59c.37.2.8.27,1.22.33.44.07.89.06,1.33.07.49.02,1.02.21,1.48.04.27-.1.5-.34.63-.59.08-.15.06-.34.07-.52.02-.3.07-.6,0-.89-.06-.24-.26-.43-.33-.67-.05-.15-.05-.32-.07-.48s-.03-.32-.07-.48c-.05-.2-.13-.4-.22-.59-.07-.15-.19-.29-.26-.44-.09-.2-.14-.42-.22-.63-.08-.21-.14-.44-.26-.63-.11-.17-.32-.26-.41-.44-.08-.17-.07-.55-.07-.55"/><path id="path4109" class="cls-5" d="M132.94,439.65s.67-.01,1-.04c.43-.03.89,0,1.29-.15.24-.09.45-.26.63-.44.15-.15.31-.32.37-.52.07-.21.04-.45,0-.67-.04-.25-.12-.49-.26-.7-.07-.1-.19-.16-.26-.26-.11-.16-.17-.34-.22-.52-.03-.12,0-.25-.04-.37-.04-.16-.12-.3-.18-.44-.06-.11-.15-.21-.18-.33-.04-.14.02-.3,0-.44-.02-.15-.05-.3-.11-.44-.05-.13-.15-.25-.22-.37-.09-.15-.2-.28-.26-.44-.03-.09-.04-.3-.04-.3"/><path id="path4111" class="cls-5" d="M135.97,438.91s.52.11.67.11.47-.07.7-.15c.23-.07.47-.15.67-.3.16-.12.3-.29.37-.48.08-.23-.01-.49,0-.74.03-.59.19-1.18.18-1.77,0-.42-.11-.84-.15-1.26-.03-.31.04-.64-.07-.92-.06-.15-.19-.26-.3-.37-.08-.08-.26-.22-.26-.22"/><path id="path4113" class="cls-5" d="M138.45,438.02s.64.09.96.07c.36-.02.74-.07,1.07-.22.31-.14.6-.34.81-.59.21-.25.36-.57.44-.89.06-.23.03-.47.04-.7,0-.2-.03-.4,0-.59.04-.28.16-.54.22-.81.07-.33.17-.66.15-1-.02-.28-.14-.54-.22-.81-.09-.32-.18-.65-.3-.96-.12-.3-.24-.61-.41-.89-.12-.2-.26-.38-.41-.55-.21-.25-.42-.49-.67-.7-.25-.21-.56-.35-.81-.55-.27-.22-.51-.48-.74-.74-.21-.24-.37-.52-.59-.74-.23-.24-.53-.4-.78-.63-.17-.16-.33-.34-.48-.52-.23-.27-.48-.54-.67-.85-.17-.27-.28-.56-.41-.85-.19-.44-.29-.92-.52-1.33-.18-.32-.47-.57-.67-.89-.21-.34-.33-.72-.52-1.07-.17-.33-.37-.64-.55-.96-.19-.33-.37-.67-.55-1-.22-.38-.67-1.15-.67-1.15"/><path id="path4115" class="cls-5" d="M134.05,421.31s-.11-.54-.15-.81c-.06-.42-.04-.84-.11-1.26-.07-.39-.13-.79-.3-1.15-.15-.33-.42-.59-.63-.89s-.42-.59-.63-.89c-.27-.37-.6-.7-.81-1.11-.14-.25-.3-.81-.3-.81"/><path id="path4117" class="cls-5" d="M132.35,416.39s-.07-.47-.07-.7c0-.41.01-.82.07-1.22.05-.36.14-.72.26-1.07.11-.32.33-.6.41-.92.12-.48.12-.98.11-1.48,0-.5-.06-.99-.15-1.48-.07-.4-.14-.81-.3-1.18-.11-.25-.33-.45-.44-.7-.23-.49-.34-1.03-.48-1.55-.09-.34-.16-.69-.22-1.04-.14-.8-.26-1.6-.33-2.4-.05-.57-.07-1.55-.07-1.7s.06-1.5.11-2.26c.05-.7.11-1.41.18-2.11.08-.8.18-1.6.3-2.4.1-.68.2-1.36.33-2.03.2-.97.67-2.74.7-2.88.04-.15.46-1.67.67-2.51.26-1.05.51-2.11.7-3.18.16-.89.22-1.8.37-2.7.12-.71.29-1.4.41-2.11.31-1.81.57-3.62.81-5.44.13-.97.23-1.95.33-2.92.12-1.13.22-2.27.33-3.4.1-1.02.13-2.05.3-3.07.15-.95.48-1.86.63-2.81.13-.88.15-1.78.22-2.66.08-.96.24-1.92.26-2.88.02-.93-.11-1.85-.15-2.77-.03-.64-.05-1.28-.07-1.92-.03-.89,0-1.78-.07-2.66-.08-1.13-.24-2.25-.41-3.36-.12-.82-.29-1.63-.44-2.44-.15-.8-.31-1.6-.48-2.4-.14-.67-.28-1.34-.44-2-.32-1.3-.72-2.59-1.07-3.88-.22-.83-.48-1.64-.67-2.48-.18-.83-.22-1.69-.44-2.51-.2-.73-.57-1.41-.78-2.14-.16-.58-.21-1.19-.37-1.77-.08-.3-.24-.58-.3-.89-.11-.55-.09-1.11-.11-1.66-.03-.62-.04-1.23-.04-1.85,0-.64.02-1.28.04-1.92.03-.88.04-2.48.11-2.63.07-.15-.02-1.11-.04-1.66-.02-.73-.04-1.45-.07-2.18-.07-1.3-.2-2.59-.26-3.88-.05-1.08-.02-2.17-.07-3.25-.06-1.14-.2-2.27-.26-3.4-.03-.65-.03-1.31-.04-1.96,0-.63-.07-1.26,0-1.89.07-.64.31-1.25.44-1.89.16-.77.31-1.55.44-2.33.21-1.22.41-2.44.59-3.66.2-1.33.4-2.66.55-3.99.18-1.48.28-2.96.44-4.44.2-1.74.48-3.47.67-5.21.18-1.67.44-4.88.44-5.03s.08-2.42.11-3.62c.03-1.13.05-2.27.07-3.4.04-1.71.1-3.43.15-5.14.07-2.45.2-4.9.22-7.36.02-2.05-.02-4.09-.07-6.14-.03-1.11-.08-2.22-.15-3.33-.14-2.42-.25-4.84-.52-7.25-.16-1.46-.45-2.91-.67-4.36-.18-1.19-.33-2.39-.52-3.59-.08-.53-.22-1.05-.26-1.59-.07-.93.02-1.87.04-2.81.01-.83.06-1.65.04-2.48-.06-2.28-.21-4.57-.44-6.84-.1-.94-.26-1.88-.41-2.81-.11-.72-.23-1.43-.37-2.14-.48-2.38-1.15-4.72-1.66-7.1-.28-1.29-.52-2.59-.78-3.88-.32-1.61-.58-3.24-.92-4.84-.18-.84-.44-1.67-.59-2.51-.05-.28-.11-.7-.11-.85s.03-1.11.04-1.66c.01-.76.07-1.53.04-2.29-.03-.74-.15-1.48-.22-2.22-.12-1.21-.23-2.42-.37-3.62-.16-1.36-.33-2.72-.55-4.07-.18-1.07-.59-3-.63-3.18-.04-.18-.37-2.69-.59-4.03-.13-.8-.33-1.6-.44-2.4-.09-.64-.14-1.28-.18-1.92-.05-.79-.1-1.58-.07-2.37.03-.94.19-1.87.3-2.81.1-.89.26-1.77.33-2.66.09-1,.09-2,.15-3,.04-.78.08-1.55.15-2.33.1-1.16.31-2.31.37-3.48.05-.87-.01-1.75,0-2.63.01-.99.07-1.97.07-2.96,0-.58-.07-1.16-.04-1.74.02-.32.03-.66.15-.96.03-.08.12-.14.15-.22.13-.42.01-.89,0-1.33-.05-1.73-.22-3.45-.3-5.18-.08-1.87-.13-3.75-.18-5.62-.04-1.61-.18-3.23-.11-4.84.02-.43.07-.87.15-1.29.11-.55.21-1.12.44-1.63.24-.53.64-.96.96-1.44.43-.65.96-1.25,1.29-1.96.32-.69.67-2.18.67-2.18"/><path id="path4119" class="cls-5" d="M126.76,138.72s.08,1.36.15,2.03c.11,1.11.23,2.22.41,3.33.21,1.34.51,2.66.78,3.99.22,1.07.46,2.14.67,3.22.27,1.4.47,2.81.74,4.22.2,1.03.41,2.05.63,3.07.19.91.49,1.81.59,2.74.07.66.02,1.33,0,2-.02.7-.08,1.41-.15,2.11-.06.59-.21,1.18-.22,1.77,0,.54.04,1.09.15,1.63.07.34.28.65.33,1,.04.26,0,.52,0,.78,0,.53-.01,1.06.04,1.59.04.37.09.75.18,1.11.12.44.33.86.48,1.29.09.27.19.54.26.81.13.57.19,1.16.26,1.74.06.47.02.95.15,1.41.2.74.62,1.41.96,2.11.39.79.83,1.54,1.22,2.33.53,1.07,1.04,2.16,1.52,3.25.55,1.25,1.01,2.52,1.55,3.77.46,1.06.97,2.09,1.44,3.14.59,1.29,1.22,2.56,1.74,3.88.62,1.59,1.08,3.23,1.63,4.84.48,1.41,1.02,2.79,1.44,4.22.16.54.23,1.1.41,1.63.17.52.41,1.02.63,1.52.25.56.51,1.11.78,1.66.13.27.28.54.41.81.2.45.36.92.55,1.37.21.47.42.95.67,1.41.22.41.52.77.74,1.18.13.24.28.48.33.74.06.28,0,.57,0,.85,0,.6-.06,1.21-.04,1.81.03.91.13,1.83.22,2.74.1.99.17,1.98.37,2.96.15.77.35,1.53.63,2.26.27.72.68,1.38,1,2.07.42.91.81,1.83,1.22,2.74.24.54.51,1.08.74,1.63.23.56.37,1.15.63,1.7.18.39.48.71.63,1.11.1.26.09.55.18.81.11.31.36.57.44.89.08.31.01.64.04.96.03.48.12.96.15,1.44.03.66-.03,1.33,0,2,.01.28.06.57.07.85.03.79-.03,1.58-.04,2.37,0,.62-.02,1.23,0,1.85.01.41-.01.82.07,1.22.09.4.31.76.44,1.15.11.34.17.7.3,1.04.08.22.16.44.3.63.17.22.38.43.63.55.16.08.34.11.52.11.22,0,.48.01.67-.11.16-.1.23-.32.33-.48.11-.17.24-.33.3-.52.07-.25,0-.52,0-.78-.01-.91-.07-1.82-.07-2.74,0-.53.02-1.06.04-1.59.01-.41.02-.81.04-1.22.01-.38-.05-.77.04-1.15.05-.21.2-.38.26-.59.11-.38.13-.79.15-1.18.02-.48,0-.97-.07-1.44-.03-.2-.12-.39-.15-.59-.02-.12-.03-.25,0-.37.03-.11.08-.24.18-.3.05-.03.13-.02.18,0,.1.04.17.13.22.22.07.11.08.25.11.37.06.22.13.44.18.67.09.35.18.71.22,1.07.05.4.03.81.04,1.22.02.59,0,1.18.04,1.77.03.37.07.75.15,1.11.06.28.16.55.26.81.13.36.33.7.44,1.07.19.63.3,1.28.41,1.92.1.58.12,1.16.22,1.74.11.62.25,1.24.41,1.85.15.6.36,1.18.52,1.77.12.44.16.91.33,1.33.12.29.26.59.48.81.16.17.37.3.59.37.18.06.37.05.55.04.23-.02.45-.09.67-.15.21-.06.45-.09.63-.22.24-.17.46-.42.55-.7.09-.28-.03-.59-.04-.89-.01-.32.02-.65-.04-.96-.06-.35-.25-.66-.33-1-.16-.67-.17-1.36-.3-2.03-.12-.63-.32-1.25-.44-1.89-.11-.59-.17-1.18-.26-1.77-.06-.41-.15-.81-.18-1.22-.04-.47,0-.94-.04-1.41-.04-.46-.07-.92-.18-1.37-.09-.37-.3-.71-.41-1.07-.1-.34-.13-.7-.22-1.04-.06-.21-.19-.41-.22-.63-.02-.16-.08-.37.04-.48.11-.11.32-.05.48-.04.1,0,.22,0,.3.07.18.15.22.41.3.63.12.36.15.74.22,1.11.12.6.16,1.22.33,1.81.08.29.23.56.33.85.1.29.22.58.26.89.03.18-.03.37,0,.55.07.36.25.7.41,1.04.2.43.48.82.67,1.26.25.58.4,1.2.59,1.81.16.5.33,1,.44,1.52.09.44.1.89.18,1.33.11.55.29,1.08.41,1.63.11.53.13,1.07.26,1.59.06.24.1.49.22.7.15.26.34.5.59.67.24.16.53.25.81.26.34.02.71-.05,1-.22.29-.18.49-.48.67-.78.16-.28.28-.6.33-.92.07-.43,0-.86-.04-1.29-.04-.58-.1-1.16-.18-1.74-.12-.81-.27-1.61-.44-2.4-.22-1.02-.53-2.02-.78-3.03-.2-.81-.27-1.66-.55-2.44-.17-.47-.45-.88-.67-1.33-.23-.5-.45-1.01-.67-1.52-.28-.68-.57-1.37-.81-2.07-.11-.32-.26-.63-.3-.96-.02-.15-.03-.31.04-.44.07-.16.21-.3.37-.37.13-.05.28-.04.41,0,.21.07.38.24.52.41.29.34.45.77.63,1.18.27.63.46,1.3.67,1.96.12.37.17.76.33,1.11.19.39.52.7.74,1.07.21.36.39.73.55,1.11.21.47.39.95.55,1.44.19.57.3,1.17.48,1.74.23.71.49,1.42.78,2.11.25.59.53,1.16.81,1.74.14.29.22.63.44.85.16.15.38.23.59.3.24.07.49.11.74.07.24-.03.47-.12.67-.26.23-.16.41-.39.55-.63.15-.26.25-.55.3-.85.08-.51.02-1.04-.04-1.55-.06-.52-.17-1.04-.3-1.55-.13-.51-.32-1.01-.48-1.52-.2-.63-.38-1.26-.59-1.89-.2-.58-.45-1.15-.63-1.74-.15-.49-.22-.99-.37-1.48-.16-.51-.36-1.02-.55-1.52-.28-.71-.61-1.4-.89-2.11-.2-.52-.35-1.07-.55-1.59-.24-.61-.58-1.18-.78-1.81-.09-.3-.13-.62-.18-.92-.08-.42-.16-.84-.22-1.26-.07-.47-.06-.94-.15-1.41-.05-.28-.16-.54-.22-.81-.11-.5-.19-1.01-.26-1.52-.07-.58-.17-1.16-.15-1.74.02-.59.18-1.16.26-1.74.05-.36.1-.71.15-1.07.04-.31.11-.92.11-.92"/><path id="path4121" class="cls-5" d="M156.2,217.34s.58,1.34.96,1.96c.55.9,1.11,1.83,1.89,2.55.6.55,1.33.96,2.07,1.29.77.34,1.61.53,2.44.7.9.19,1.82.29,2.74.37.59.05,1.18.06,1.77.07.3,0,.89,0,.89,0"/><path id="path4123" class="cls-5" d="M170.07,222.92s.4-.04.59,0c.29.06.57.2.81.37.29.2.49.5.74.74.44.43.9.82,1.33,1.26.37.38.78.74,1.07,1.18.16.25.22.56.37.81.23.4.5.78.81,1.11.23.24.51.42.78.63.49.38.93.84,1.48,1.11.5.25,1.08.33,1.63.44.46.09.93.2,1.41.18.41-.01.85-.04,1.22-.22.27-.14.5-.37.67-.63.12-.19.21-.41.22-.63.01-.21-.03-.45-.15-.63-.12-.18-.34-.28-.52-.41-.34-.25-.69-.46-1.04-.7-.27-.19-.58-.35-.81-.59-.28-.29-.45-.66-.67-1-.29-.46-.52-.95-.81-1.41-.23-.35-.47-.68-.74-1-.25-.29-.55-.53-.81-.81-.44-.47-.85-.95-1.26-1.44-.32-.39-.67-.75-.92-1.18-.22-.37-.3-.81-.52-1.18-.26-.44-.6-.82-.92-1.22-.25-.3-.5-.61-.78-.89-.16-.17-.32-.36-.52-.48-.4-.25-.89-.33-1.33-.48-.59-.2-1.59-.55-1.77-.59s-1.23-.58-1.85-.85c-.94-.41-1.89-.8-2.85-1.18-.59-.24-1.19-.46-1.77-.7-.35-.14-.73-.22-1.04-.44-.2-.14-.33-.36-.48-.55-.22-.29-.45-.57-.63-.89-.08-.14-.15-.29-.18-.44-.07-.31.03-.65-.04-.96-.1-.45-.36-.86-.52-1.29-.26-.71-.47-1.44-.74-2.14-.22-.58-.55-1.11-.74-1.7-.15-.46-.18-.94-.3-1.41-.19-.78-.39-1.56-.63-2.33-.23-.74-.55-1.44-.78-2.18-.25-.8-.46-1.62-.63-2.44-.19-.89-.33-1.79-.44-2.7-.12-.96-.2-1.92-.26-2.88-.08-1.3-.06-2.61-.11-3.92-.06-1.49-.05-2.99-.22-4.47-.12-1.03-.35-2.05-.55-3.07-.28-1.39-.65-2.75-.92-4.14-.21-1.04-.32-2.11-.55-3.14-.16-.72-.36-1.44-.59-2.14-.21-.65-.46-1.29-.74-1.92-.26-.58-.55-1.14-.85-1.7-.48-.91-1.09-1.76-1.52-2.7-.47-1.02-.75-2.13-1.15-3.18-.33-.88-.77-1.72-1.04-2.63-.4-1.34-.85-3.88-.85-4.1s-.39-2.91-.59-4.36c-.27-2-.6-3.99-.81-5.99-.1-.98-.12-1.97-.22-2.96-.11-1.04-.27-2.07-.41-3.11-.1-.76-.17-1.53-.3-2.29-.23-1.43-.61-2.82-.81-4.25-.13-.88-.21-1.77-.26-2.66-.05-.87-.07-1.75-.04-2.63.03-.87.1-1.73.22-2.59.19-1.36.58-2.68.81-4.03.21-1.2.38-2.41.52-3.62.15-1.28.28-2.56.33-3.85.05-1.31.01-2.61-.04-3.92-.05-1.31-.15-2.61-.26-3.92-.16-1.91-.39-3.82-.55-5.73-.07-.79,0-1.6-.18-2.37-.15-.66-.42-1.29-.74-1.89-.26-.48-.61-.91-.96-1.33-.3-.35-.62-.69-.96-1-.86-.78-1.78-1.49-2.74-2.14-.64-.44-1.28-.88-2-1.18-.61-.26-1.28-.35-1.92-.52-1.28-.33-2.59-.53-3.85-.92-1.08-.34-2.14-.77-3.18-1.22-1-.43-1.97-.95-2.96-1.41-1.45-.67-2.93-1.26-4.36-1.96-2.57-1.27-5.11-2.61-7.58-4.07-1.16-.68-2.27-1.44-3.4-2.18-.6-.39-1.77-1.18-1.77-1.18"/><path id="path4125" class="cls-5" d="M110.2,75.86s-.87-.42-1.26-.7c-.5-.37-.95-.81-1.33-1.29-.25-.32-.45-.67-.63-1.04-.37-.78-.66-1.61-.89-2.44-.17-.62-.37-1.89-.37-1.89"/><path id="path4127" class="cls-5" d="M105.47,73.57s-.17-1.77-.15-2.66c.02-.76.18-1.5.26-2.26.07-.65.11-1.31.18-1.96.19-1.73.45-3.45.63-5.18.13-1.26.17-2.52.33-3.77.17-1.24.39-2.48.67-3.7.2-.86.48-1.7.7-2.55.17-.67.34-1.35.48-2.03.01-.07.04-.22.04-.22"/><path id="path4129" class="cls-5" d="M105.1,54.23s.8-2.03,1.22-3.03c.37-.88.73-1.77,1.15-2.63.27-.55.67-1.05.89-1.63.23-.63.22-1.32.41-1.96.12-.4.44-1.18.44-1.18"/><path id="path4131" class="cls-5" d="M107.61,50.01s.3-.56.55-.74c.14-.1.31-.12.48-.15.34-.05.69.05,1.04,0,.46-.06.91-.18,1.33-.37.4-.18.79-.4,1.11-.7.34-.33.58-.77.81-1.18.37-.65.66-1.34.92-2.03.15-.39.28-.78.37-1.18.1-.47.07-.97.18-1.44.1-.43.3-.84.44-1.26.2-.55.45-1.09.59-1.66.2-.82.34-1.67.33-2.51,0-.44-.24-1.76-.24-1.76"/><path id="path4139" class="cls-5" d="M108.34,48.13s-.4.53-.52.84c-.14.35-.15.73-.21,1.1-.08.52-.12,1.05-.21,1.57-.14.81-.34,1.61-.52,2.41-.15.66-.28,1.33-.47,1.99-.21.71-.41,1.43-.73,2.09-.37.75-.88,1.41-1.36,2.09-.51.73-1.03,1.48-1.62,2.14-.72.81-1.53,1.55-2.35,2.25-.8.68-1.6,1.37-2.51,1.88-.7.39-1.49.62-2.25.89-.71.25-1.4.55-2.14.68-.6.1-1.22.1-1.83.05-.74-.06-1.47-.25-2.2-.42-.91-.21-1.85-.38-2.72-.73-.7-.28-1.39-.64-1.99-1.1-.7-.53-1.23-1.25-1.83-1.88-.81-.86-1.7-1.66-2.41-2.61-.45-.6-.86-1.24-1.15-1.93-.28-.67-.39-1.39-.58-2.09-.28-1.06-.6-2.11-.78-3.19-.19-1.14-.22-2.3-.31-3.45-.02-.24-.05-.73-.05-.73"/><path id="path4141" class="cls-5" d="M79,53.1s-.67-1.58-1.05-2.35c-.24-.5-.55-.96-.78-1.46-.39-.82-.78-1.64-1.05-2.51-.18-.61-.28-1.25-.37-1.88-.07-.54-.01-1.09-.1-1.62-.05-.32-.26-.94-.26-.94"/><path id="path4143" class="cls-5" d="M77.43,49.65s-.6-.56-.94-.78c-.07-.04-.13-.08-.21-.1-.24-.06-.49,0-.73-.05-.31-.06-.63-.14-.89-.31-.4-.26-.71-.66-.99-1.05-.42-.58-.77-1.22-1.05-1.88-.17-.42-.25-.87-.37-1.31-.15-.61-.3-1.22-.42-1.83-.12-.61-.19-1.22-.31-1.83-.08-.39-.21-.76-.26-1.15-.13-.9-.22-1.81-.16-2.72.03-.46.17-.91.26-1.36.07-.33.21-.99.21-.99"/><path id="path4145" class="cls-5" d="M109.28,44.63c.36.16.66-.46.89-.78.27-.38.39-.86.52-1.31.18-.61.3-1.25.37-1.88.04-.38-.06-.77,0-1.15.11-.64.37-1.24.63-1.83.29-.67.64-1.32,1.05-1.93.34-.52.7-1.04,1.15-1.46.15-.15.31-.38.52-.37.23.01.35.31.52.47.16.14.31.29.47.42.12.09.24.35.37.26.28-.19-.2-.66-.26-.99-.09-.48-.18-.97-.16-1.46.04-.89.41-1.73.52-2.61.13-1.09.05-2.2.16-3.29.14-1.42.52-2.81.63-4.24.06-.87.1-1.75,0-2.61-.13-1.14-.43-2.26-.78-3.35-.39-1.2-.9-2.37-1.46-3.5-.65-1.3-1.28-2.64-2.2-3.77-.73-.89-1.67-1.57-2.56-2.3-1.18-.96-2.34-1.96-3.66-2.72-1.14-.66-2.38-1.11-3.61-1.57-1.54-.57-3.08-1.22-4.71-1.46-1.5-.23-3.03,0-4.55,0s-3.15-.16-4.71,0c-1.2.12-2.42.31-3.56.73-1.36.5-2.66,1.22-3.82,2.09-.71.53-1.29,1.22-1.88,1.88-.76.84-1.49,1.69-2.14,2.61-.56.8-1.05,1.65-1.52,2.51-.49.9-.9,1.85-1.36,2.77-.57,1.15-1.29,2.24-1.73,3.45-.29.81-.36,1.68-.58,2.51-.22.83-.56,1.62-.73,2.46-.2.98-.24,1.98-.31,2.98-.07.92-.12,1.85-.1,2.77.01.82.14,1.64.16,2.46.02.75-.22,1.52-.05,2.25.13.57.47,1.07.78,1.57.21.34.48.64.73.94.42.5,1,.89,1.31,1.46.24.44.23.98.37,1.46.11.4.31.79.37,1.2.08.62-.08,1.26-.05,1.88.03.56.02,1.14.21,1.67.08.21.22.4.37.58.18.2.4.67.63.52.46-.3-.41-1.03-.47-1.57-.06-.54-.01-1.09.1-1.62.13-.6.47-1.14.68-1.73.27-.74.67-1.46.73-2.25.08-.95-.42-1.87-.42-2.82,0-.62.13-1.23.26-1.83.14-.62.46-1.2.58-1.83.16-.84.16-2.3.16-2.56s.58-3.19.58-3.4.31-1.39.58-2.04c.51-1.23,1.03-2.52,1.93-3.5.77-.83,1.77-1.48,2.82-1.88.81-.31,1.7-.41,2.56-.37.68.03,1.34.26,1.99.47.7.23,1.32.7,2.04.89.7.18,1.43.24,2.14.21.73-.03,1.42-.33,2.14-.42.87-.11,1.74-.11,2.61-.16.7-.04,1.78-.1,2.09-.1s2.09.05,2.35.05,1.13.49,1.67.78c.69.38,1.41.73,1.99,1.26.51.46.94,1.02,1.26,1.62.3.57.44,1.2.58,1.83.16.77.17,1.57.26,2.35.08.65.2,1.29.26,1.93.08.87-.12,1.77.1,2.61.16.57.78,1.36.84,1.57.05.21.39.86.52,1.31.14.48.25.97.26,1.46.01.72-.28,1.42-.31,2.14-.05.89.01,1.78.1,2.67.1.91.32,1.81.47,2.72.11.66.26,1.32.31,1.99.02.3-.27.77,0,.89h0Z"/><path id="path4147" class="cls-5" d="M84.96,54.62s.63.09.94.1c.38.01.77-.02,1.15-.05.45-.04.9-.12,1.36-.16.43-.03.87-.1,1.31-.05.21.02.41.13.63.16.35.05.7.04,1.05.05.38.01.77,0,1.15,0,.38,0,.77-.07,1.15-.05.35.02.7.11,1.05.16.4.06.8.11,1.2.16.31.04.94.1.94.1"/><path id="path4149" class="cls-5" d="M86.06,55.35s.82.55,1.26.78c.66.37,1.32.77,2.04.99.57.18,1.18.24,1.78.26.7.02,1.41,0,2.09-.16.48-.12.91-.38,1.36-.58.46-.2.91-.41,1.36-.63.21-.1.63-.31.63-.31"/><path id="path4151" class="cls-5" d="M85.75,53.83s.83-.27,1.26-.37c.77-.17,1.56-.27,2.35-.37.66-.08,1.32-.14,1.99-.16.71-.02,1.43.02,2.14.05.3.01.6,0,.89.05.43.08.86.22,1.26.42.51.25,1.41.94,1.41.94"/><path id="path4153" class="cls-5" d="M88.94,48.34s-.55-.23-.68-.47c-.07-.14-.1-.35,0-.47.08-.09.24-.06.37-.05.26.03.5.14.73.26.29.15.55.35.78.58.22.2.34.5.58.68.25.19.53.38.84.42.25.03.52-.02.73-.16.22-.14.31-.42.47-.63.15-.2.27-.43.47-.58.15-.11.35-.14.52-.21.17-.07.34-.19.52-.21.19-.02.4.01.58.1.13.07.26.17.31.31.05.15.04.34-.05.47-.11.16-.52.26-.52.26"/><path id="path4155" class="cls-5" d="M95.32,48.81s.75-.06,1.05-.26c.3-.2.49-.55.63-.89.12-.28.17-.59.16-.89-.01-.38-.12-.75-.26-1.1-.12-.3-.47-.84-.47-.84"/><path id="path4157" class="cls-5" d="M88.1,48.65s-.62-.07-.89-.21c-.27-.14-.52-.36-.68-.63-.15-.25-.2-.55-.21-.84,0-.34.06-.69.21-.99.2-.41.89-1.05.89-1.05"/><path id="path4159" class="cls-5" d="M94.37,36.63s-.37,1.07-.47,1.62c-.12.65-.14,1.32-.16,1.99-.02.77-.09,1.55.05,2.3.09.51.52,1.46.52,1.46"/><path id="path4161" class="cls-5" d="M90.09,36.84s-.08,1.64-.16,2.46c-.08.77-.18,1.54-.31,2.3-.12.68-.42,2.04-.42,2.04"/><path id="path4163" class="cls-5" d="M96.47,38.77s0-.7.16-.99c.21-.39.64-.63.99-.89.25-.18.49-.38.78-.47.48-.15,1.01-.12,1.52-.1.75.02,1.5.14,2.25.26.49.08,1,.12,1.46.31.46.2,1.26.84,1.26.84"/><path id="path4165" class="cls-5" d="M96.83,37.62s.17.35.31.47c.18.15.41.23.63.31.44.16.89.31,1.36.31.53,0,1.06-.14,1.57-.31.37-.13.76-.25,1.05-.52.13-.12.22-.3.26-.47.02-.07.02-.14,0-.21-.06-.2-.37-.52-.37-.52"/><path id="path4167" class="cls-4" d="M100.86,36.43c.28.66-.03,1.43-.69,1.71-.66.28-1.43-.03-1.71-.69-.14-.34-.14-.71.01-1.05"/><path id="path4169" class="cls-4" d="M100.11,36.35c.24.31.18.75-.13.99s-.75.18-.99-.13c-.2-.26-.19-.61,0-.86"/><path id="path4171" class="cls-5" d="M87.6,38.54s.02-.35-.03-.52c-.05-.22-.18-.41-.29-.6-.13-.22-.25-.46-.44-.63-.18-.16-.41-.24-.63-.34-.25-.12-.49-.26-.76-.31-.32-.07-.64-.03-.97-.03-.53.01-1.07.03-1.59.1-.45.07-.89.21-1.33.31-.47.11-1.41.34-1.41.34"/><path id="path4173" class="cls-5" d="M82.01,36.5s-.19.11-.21.21c-.02.07.03.15.08.21.18.21.48.28.73.39.36.16.74.32,1.12.42.59.15,1.2.2,1.8.26.27.03.54.07.81.05.12,0,.26-.02.37-.08.08-.04.14-.11.18-.18.06-.11.1-.24.1-.37,0-.14-.1-.42-.1-.42"/><path id="path4175" class="cls-4" d="M86.32,36.5c.02.68-.45,1.27-1.09,1.42M84.28,37.82c-.47-.22-.8-.7-.81-1.25,0-.14.01-.28.05-.42"/><path id="path4178" class="cls-4" d="M85.38,36.11c.25.31.2.75-.11,1s-.75.2-1-.11c-.21-.26-.21-.63,0-.89"/><path id="path4180" class="cls-5" d="M95.73,34.85c.44.2.8-.56,1.26-.73.65-.25,1.35-.35,2.04-.42.57-.06,1.15-.03,1.73,0,.67.03,1.34.07,1.99.21.72.15,1.37.53,2.09.68.36.07.83.35,1.1.1.27-.25.07-.74,0-1.1-.1-.52-.28-1.03-.58-1.46-.25-.36-.58-.72-.99-.89-.43-.18-.94-.08-1.41-.1-.7-.04-1.4-.18-2.09-.1-.74.08-1.42.41-2.14.58-.67.15-1.45,0-2.04.37-.4.25-.63.73-.84,1.15-.14.28-.25.58-.26.89-.01.28-.1.72.16.84Z"/><path id="path4182" class="cls-5" d="M89.56,34.48c.33-.56-.35-1.29-.78-1.78-.39-.44-.99-.64-1.52-.89-.62-.3-1.27-.56-1.93-.73-.65-.17-1.32-.27-1.99-.31-.52-.03-1.05-.03-1.57.05-.75.12-1.5.32-2.2.63-.34.15-.73.28-.94.58-.14.2-.14.48-.16.73-.02.24-.11.55.05.73.19.21.55.13.84.16.52.06,1.05.11,1.57.05.43-.05.83-.23,1.26-.31.43-.09.87-.17,1.31-.21.49-.04.98-.06,1.46,0,.77.1,1.52.3,2.25.58.33.12.62.33.94.47.27.12.54.27.84.31.19.03.48.11.58-.05Z"/><path id="path4188" class="cls-1" d="M71.36,122.63c.55,1.04-.07,2.46-1.4,3.16s-2.85.44-3.4-.61.07-2.46,1.4-3.16,2.85-.44,3.4.61Z"/><path id="path4190" class="cls-4" d="M69.48,124.35c0,.48-.39.86-.86.86s-.86-.39-.86-.86.39-.86.86-.86.86.39.86.86Z"/><path id="path4192" class="cls-2" d="M117.2,125.41c-.63.92-2.14.99-3.37.15s-1.7-2.27-1.07-3.2,2.14-.99,3.37-.15,1.7,2.27,1.07,3.2Z"/><path id="path4194" class="cls-4" d="M116.18,124.33c0,.52-.42.94-.94.94s-.94-.42-.94-.94.42-.94.94-.94.94.42.94.94Z"/><path id="path5688" class="cls-5" d="M86.62,237.24s3.31,2.55,5.27,2.57c1.97.03,5.39-2.45,5.39-2.45"/><path id="path5690" class="cls-4" d="M93.22,179.71c0,.91-.74,1.65-1.65,1.65s-1.65-.74-1.65-1.65.74-1.65,1.65-1.65,1.65.74,1.65,1.65Z"/></g></g></svg>